<?xml version="1.0" encoding="utf-8"?>
<!-- Generator: Adobe Illustrator 22.1.0, SVG Export Plug-In . SVG Version: 6.00 Build 0)  -->
<svg version="1.1" id="sankey_svg" xmlns="http://www.w3.org/2000/svg" xmlns:xlink="http://www.w3.org/1999/xlink" x="0px" y="0px"
	 viewBox="0 0 960 600" style="enable-background:new 0 0 960 600;" xml:space="preserve">
<style type="text/css">
	.st0{display:none;fill:#FFFFFF;stroke:#000000;stroke-miterlimit:10;}
	.st1{display:none;}
	.st2{fill:none;stroke:#44B5FF;stroke-width:234;stroke-opacity:0.1;}
	.st3{fill:none;stroke:#44B5FF;stroke-width:140.4;stroke-opacity:0.1;}
	.st4{fill:none;stroke:#44B5FF;stroke-width:46.8;stroke-opacity:0.1;}
	.st5{fill:#44B5FF;fill-opacity:0.9;}
	.st6{font-family:'Roboto-Light';}
	.st7{font-size:30px;}
	.st8{enable-background:new    ;}
</style>
<title>Your Diagram Title</title>
<rect x="-12.9" y="-18.9" class="st0" width="996" height="640.5"/>
<g>
	<rect class="st1" width="960" height="600"/>
	<g transform="translate(12,12)">
		<g>
			<path class="st2" d="M10,117c294.5,0,158.6,182.3,453,182.3			">
<title>Young Adult → This Book:
5</title>
			</path>
			<path class="st2" d="M473,299c294.5,0,163.5-182,458-182			">
<title>This Book → Little Fires Everywhere:
5</title>
			</path>
			<path class="st3" d="M10,340.2c294.5,0,163.6-77,458-77			">
<title>Stack 813 → This Book:
3</title>
			</path>
			<path class="st3" d="M468,263.2c294.5,0,163.5,77,458,77			">
<title>This Book → All the Lights We can not See:
3</title>
			</path>
			<path class="st4" d="M10,469.8c294.5,0,158.5-118.1,453-118.1			">
<title>Family + Fiction → This Book:
1</title>
			</path>
			<path class="st4" d="M10,552.6c294.5,0,158.6-159.6,453-159.6			">
<title>Bookclub → This Book:
1</title>
			</path>
			<path class="st4" d="M473,351.7c294.5,0,158.5,118.1,453,118.1			">
<title>This Book → YA + Family:
1</title>
			</path>
			<path class="st4" d="M473,393c294.5,0,158.5,159.6,453,159.6			">
<title>This Book → Immigration:
1</title>
			</path>
		</g>
		<g>
			<g transform="translate(0,7.105427357601002e-14)">
				<rect id="r0" shape-rendering="crispEdges" class="st5" width="10" height="234">
				<title>Young Adult:
5</title>
				</rect>
				<text transform="matrix(1 0 0 1 16 127.5)" class="st6 st7">Young Adult</text>
			</g>
			<g transform="translate(463,28.80000000000005)">
				<rect id="r1" y="153.9" shape-rendering="crispEdges" class="st5" width="10" height="233.3">
				<title>This Book:
10</title>
				</rect>
			</g>
			<g transform="translate(0,270.00000000000006)">
				<rect id="r2" shape-rendering="crispEdges" class="st5" width="10" height="140.4">
				<title>Stack 813:
3</title>
				</rect>
				<text transform="matrix(1 0 0 1 16 80.7)" class="st6 st7">Stack 813</text>
			</g>
			<g transform="translate(0,446.40000000000003)">
				<rect id="r3" y="0" shape-rendering="crispEdges" class="st5" width="10" height="46.8">
				<title>Family + Fiction:
1</title>
				</rect>
				<text transform="matrix(1 0 0 1 16 33.9)" class="st6 st7">Family + Fiction</text>
			</g>
			<g transform="translate(0,529.2)">
				<rect id="r4" y="0" shape-rendering="crispEdges" class="st5" width="10" height="46.8">
				<title>Bookclub:
1</title>
				</rect>
				<text transform="matrix(1 0 0 1 16 33.9)" class="st6 st7">Bookclub</text>
			</g>
			<g transform="translate(926,-2.842170943040401e-14)">
				<rect id="r5" shape-rendering="crispEdges" class="st5" width="10" height="234">
				<title>Little Fires Everywhere:
5</title>
				</rect>
				<text transform="matrix(1 0 0 1 -311.0977 127.5)" class="st6 st7">Little Fires Everywhere</text>
			</g>
			<g transform="translate(926,270)">
				<rect id="r6" shape-rendering="crispEdges" class="st5" width="10" height="140.4">
				<title>All the Lights We can not See:
3</title>
				</rect>
				<text transform="matrix(1 0 0 1 -177.8701 58.7)" class="st8"><tspan x="0" y="0" class="st6 st7">All the Lights </tspan><tspan x="-35.1" y="36" class="st6 st7">We can not See</tspan></text>
			</g>
			<g transform="translate(926,446.4)">
				<rect id="r7" y="0" shape-rendering="crispEdges" class="st5" width="10" height="46.8">
				<title>YA + Family:
1</title>
				</rect>
				<text transform="matrix(1 0 0 1 -164.6865 33.9)" class="st6 st7">YA + Family</text>
			</g>
			<g transform="translate(926,529.2)">
				<rect id="r8" y="0" shape-rendering="crispEdges" class="st5" width="10" height="46.8">
				<title>Immigration:
1</title>
				</rect>
				<text transform="matrix(1 0 0 1 -162.709 33.9)" class="st6 st7">Immigration</text>
			</g>
		</g>
	</g>
</g>
<image style="overflow:visible;" width="313" height="478" xlink:href="Image 1.png"  transform="matrix(0.4881 0 0 0.4881 407 194.6667)">
</image>
</svg>
