<svg xmlns="http://www.w3.org/2000/svg" xmlns:xlink="http://www.w3.org/1999/xlink" viewBox="5967.125 7453 750.875 324.93">
  <defs>
    <style>
      .cls-1 {
        fill: #444;
        stroke: #95989a;
      }

      .cls-2 {
        fill: #fff;
        stroke: #e0e0e0;
        stroke-width: 4px;
      }

      .cls-2, .cls-3 {
        opacity: 0.1;
      }

      .cls-3 {
        fill: #e0e0e0;
      }

      .cls-4 {
        fill: url(#pattern);
      }

      .cls-5, .cls-6 {
        fill: #33b599;
      }

      .cls-6 {
        font-size: 12px;
        font-family: Roboto-Regular, Roboto;
      }

      .cls-7 {
        fill: rgba(250,195,57,0.2);
      }

      .cls-18, .cls-8 {
        fill: none;
      }

      .cls-8 {
        stroke: #fac339;
        stroke-width: 2px;
      }

      .cls-10, .cls-9 {
        fill: #fac339;
      }

      .cls-10 {
        font-size: 20px;
      }

      .cls-10, .cls-11 {
        font-family: Roboto-Light, Roboto;
        font-weight: 300;
      }

      .cls-11 {
        font-size: 14px;
      }

      .cls-12 {
        fill: #f8f8f8;
      }

      .cls-13, .cls-14, .cls-16 {
        opacity: 0.8;
      }

      .cls-13 {
        fill: url(#pattern-2);
      }

      .cls-14 {
        stroke: #000;
        stroke-width: 0.5px;
        fill: url(#pattern-3);
      }

      .cls-15 {
        fill: #ddd;
      }

      .cls-17 {
        stroke: none;
      }

      .cls-19 {
        filter: url(#ctrl-e-5);
      }

      .cls-20 {
        filter: url(#ctrl-m-5);
      }

      .cls-21 {
        filter: url(#ctrl-r-5);
      }

      .cls-22 {
        filter: url(#ctrl-n-4);
      }

      .cls-23 {
        filter: url(#Ellipse_21-5);
      }

      .cls-24 {
        filter: url(#Line_29-5);
      }

      .cls-25 {
        filter: url(#Ellipse_22-5);
      }

      .cls-26 {
        filter: url(#Ellipse_21-4);
      }

      .cls-27 {
        filter: url(#Line_47-4);
      }

      .cls-28 {
        filter: url(#Line_29-4);
      }

      .cls-29 {
        filter: url(#Ellipse_22-4);
      }

      .cls-30 {
        filter: url(#ctrl-p-4);
      }

      .cls-31 {
        filter: url(#ctrl-e-4);
      }

      .cls-32 {
        filter: url(#ctrl-m-4);
      }

      .cls-33 {
        filter: url(#ctrl-r-4);
      }

      .cls-34 {
        filter: url(#Ellipse_21-3);
      }

      .cls-35 {
        filter: url(#Line_47-3);
      }

      .cls-36 {
        filter: url(#Line_29-3);
      }

      .cls-37 {
        filter: url(#Ellipse_22-3);
      }

      .cls-38 {
        filter: url(#ctrl-p-3);
      }

      .cls-39 {
        filter: url(#ctrl-e-3);
      }

      .cls-40 {
        filter: url(#ctrl-m-3);
      }

      .cls-41 {
        filter: url(#ctrl-r-3);
      }

      .cls-42 {
        filter: url(#ctrl-n-3);
      }

      .cls-43 {
        filter: url(#Ellipse_21-2);
      }

      .cls-44 {
        filter: url(#Line_47-2);
      }

      .cls-45 {
        filter: url(#Line_29-2);
      }

      .cls-46 {
        filter: url(#Ellipse_22-2);
      }

      .cls-47 {
        filter: url(#ctrl-p-2);
      }

      .cls-48 {
        filter: url(#ctrl-e-2);
      }

      .cls-49 {
        filter: url(#ctrl-m-2);
      }

      .cls-50 {
        filter: url(#ctrl-r-2);
      }

      .cls-51 {
        filter: url(#ctrl-n-2);
      }

      .cls-52 {
        filter: url(#Ellipse_21);
      }

      .cls-53 {
        filter: url(#Line_47);
      }

      .cls-54 {
        filter: url(#Line_29);
      }

      .cls-55 {
        filter: url(#Ellipse_22);
      }

      .cls-56 {
        filter: url(#ctrl-p);
      }

      .cls-57 {
        filter: url(#ctrl-e);
      }

      .cls-58 {
        filter: url(#ctrl-m);
      }

      .cls-59 {
        filter: url(#ctrl-r);
      }

      .cls-60 {
        filter: url(#ctrl-n);
      }
    </style>
    <pattern id="pattern" preserveAspectRatio="none" width="100%" height="100%" viewBox="0 0 1941 1323">
      <image width="1941" height="1323" xlink:href="../../projects/cvp/CVP-event.png"/>
    </pattern>
    <filter id="ctrl-n" x="6095.214" y="7486" width="18" height="18" filterUnits="userSpaceOnUse">
      <feOffset dy="1" input="SourceAlpha"/>
      <feGaussianBlur stdDeviation="1" result="blur"/>
      <feFlood flood-opacity="0.239"/>
      <feComposite operator="in" in2="blur"/>
      <feComposite in="SourceGraphic"/>
    </filter>
    <filter id="ctrl-r" x="6199.714" y="7486" width="18" height="18" filterUnits="userSpaceOnUse">
      <feOffset dy="1" input="SourceAlpha"/>
      <feGaussianBlur stdDeviation="1" result="blur-2"/>
      <feFlood flood-opacity="0.239"/>
      <feComposite operator="in" in2="blur-2"/>
      <feComposite in="SourceGraphic"/>
    </filter>
    <filter id="ctrl-m" x="6304.143" y="7486" width="18" height="18" filterUnits="userSpaceOnUse">
      <feOffset dy="1" input="SourceAlpha"/>
      <feGaussianBlur stdDeviation="1" result="blur-3"/>
      <feFlood flood-opacity="0.239"/>
      <feComposite operator="in" in2="blur-3"/>
      <feComposite in="SourceGraphic"/>
    </filter>
    <filter id="ctrl-e" x="6408.571" y="7486" width="18" height="18" filterUnits="userSpaceOnUse">
      <feOffset dy="1" input="SourceAlpha"/>
      <feGaussianBlur stdDeviation="1" result="blur-4"/>
      <feFlood flood-opacity="0.239"/>
      <feComposite operator="in" in2="blur-4"/>
      <feComposite in="SourceGraphic"/>
    </filter>
    <filter id="ctrl-p" x="6408.571" y="7467" width="18" height="18" filterUnits="userSpaceOnUse">
      <feOffset dy="1" input="SourceAlpha"/>
      <feGaussianBlur stdDeviation="1" result="blur-5"/>
      <feFlood flood-opacity="0.239"/>
      <feComposite operator="in" in2="blur-5"/>
      <feComposite in="SourceGraphic"/>
    </filter>
    <filter id="Ellipse_22" x="6401" y="7478" width="34" height="34" filterUnits="userSpaceOnUse">
      <feOffset dy="1" input="SourceAlpha"/>
      <feGaussianBlur stdDeviation="1" result="blur-6"/>
      <feFlood flood-opacity="0.239"/>
      <feComposite operator="in" in2="blur-6"/>
      <feComposite in="SourceGraphic"/>
    </filter>
    <filter id="Line_29" x="6415.5" y="7546.5" width="84" height="8" filterUnits="userSpaceOnUse">
      <feOffset dy="1" input="SourceAlpha"/>
      <feGaussianBlur stdDeviation="1" result="blur-7"/>
      <feFlood flood-opacity="0.239"/>
      <feComposite operator="in" in2="blur-7"/>
      <feComposite in="SourceGraphic"/>
    </filter>
    <filter id="Line_47" x="6414.5" y="7492.5" width="8" height="62" filterUnits="userSpaceOnUse">
      <feOffset dy="1" input="SourceAlpha"/>
      <feGaussianBlur stdDeviation="1" result="blur-8"/>
      <feFlood flood-opacity="0.239"/>
      <feComposite operator="in" in2="blur-8"/>
      <feComposite in="SourceGraphic"/>
    </filter>
    <filter id="Ellipse_21" x="6408" y="7485" width="20" height="20" filterUnits="userSpaceOnUse">
      <feOffset dy="1" input="SourceAlpha"/>
      <feGaussianBlur stdDeviation="1" result="blur-9"/>
      <feFlood flood-opacity="0.239"/>
      <feComposite operator="in" in2="blur-9"/>
      <feComposite in="SourceGraphic"/>
    </filter>
    <filter id="ctrl-n-2" x="6095.214" y="7486" width="18" height="18" filterUnits="userSpaceOnUse">
      <feOffset dy="1" input="SourceAlpha"/>
      <feGaussianBlur stdDeviation="1" result="blur-10"/>
      <feFlood flood-opacity="0.239"/>
      <feComposite operator="in" in2="blur-10"/>
      <feComposite in="SourceGraphic"/>
    </filter>
    <filter id="ctrl-r-2" x="6199.714" y="7486" width="18" height="18" filterUnits="userSpaceOnUse">
      <feOffset dy="1" input="SourceAlpha"/>
      <feGaussianBlur stdDeviation="1" result="blur-11"/>
      <feFlood flood-opacity="0.239"/>
      <feComposite operator="in" in2="blur-11"/>
      <feComposite in="SourceGraphic"/>
    </filter>
    <filter id="ctrl-m-2" x="6304.143" y="7486" width="18" height="18" filterUnits="userSpaceOnUse">
      <feOffset dy="1" input="SourceAlpha"/>
      <feGaussianBlur stdDeviation="1" result="blur-12"/>
      <feFlood flood-opacity="0.239"/>
      <feComposite operator="in" in2="blur-12"/>
      <feComposite in="SourceGraphic"/>
    </filter>
    <filter id="ctrl-e-2" x="6408.571" y="7486" width="18" height="18" filterUnits="userSpaceOnUse">
      <feOffset dy="1" input="SourceAlpha"/>
      <feGaussianBlur stdDeviation="1" result="blur-13"/>
      <feFlood flood-opacity="0.239"/>
      <feComposite operator="in" in2="blur-13"/>
      <feComposite in="SourceGraphic"/>
    </filter>
    <filter id="ctrl-p-2" x="6408.571" y="7467" width="18" height="18" filterUnits="userSpaceOnUse">
      <feOffset dy="1" input="SourceAlpha"/>
      <feGaussianBlur stdDeviation="1" result="blur-14"/>
      <feFlood flood-opacity="0.239"/>
      <feComposite operator="in" in2="blur-14"/>
      <feComposite in="SourceGraphic"/>
    </filter>
    <filter id="Ellipse_22-2" x="6296" y="7479" width="34" height="34" filterUnits="userSpaceOnUse">
      <feOffset dy="1" input="SourceAlpha"/>
      <feGaussianBlur stdDeviation="1" result="blur-15"/>
      <feFlood flood-opacity="0.239"/>
      <feComposite operator="in" in2="blur-15"/>
      <feComposite in="SourceGraphic"/>
    </filter>
    <filter id="Line_29-2" x="6310.5" y="7547.5" width="189" height="8" filterUnits="userSpaceOnUse">
      <feOffset dy="1" input="SourceAlpha"/>
      <feGaussianBlur stdDeviation="1" result="blur-16"/>
      <feFlood flood-opacity="0.239"/>
      <feComposite operator="in" in2="blur-16"/>
      <feComposite in="SourceGraphic"/>
    </filter>
    <filter id="Line_47-2" x="6309.5" y="7492.5" width="8" height="62" filterUnits="userSpaceOnUse">
      <feOffset dy="1" input="SourceAlpha"/>
      <feGaussianBlur stdDeviation="1" result="blur-17"/>
      <feFlood flood-opacity="0.239"/>
      <feComposite operator="in" in2="blur-17"/>
      <feComposite in="SourceGraphic"/>
    </filter>
    <filter id="Ellipse_21-2" x="6303" y="7486" width="20" height="20" filterUnits="userSpaceOnUse">
      <feOffset dy="1" input="SourceAlpha"/>
      <feGaussianBlur stdDeviation="1" result="blur-18"/>
      <feFlood flood-opacity="0.239"/>
      <feComposite operator="in" in2="blur-18"/>
      <feComposite in="SourceGraphic"/>
    </filter>
    <pattern id="pattern-2" preserveAspectRatio="xMidYMid slice" width="100%" height="100%" viewBox="0 0 1945 1312">
      <image width="1945" height="1312" xlink:href="../../projects/cvp/CVP-resource.png"/>
    </pattern>
    <filter id="ctrl-n-3" x="6095.214" y="7486" width="18" height="18" filterUnits="userSpaceOnUse">
      <feOffset dy="1" input="SourceAlpha"/>
      <feGaussianBlur stdDeviation="1" result="blur-19"/>
      <feFlood flood-opacity="0.239"/>
      <feComposite operator="in" in2="blur-19"/>
      <feComposite in="SourceGraphic"/>
    </filter>
    <filter id="ctrl-r-3" x="6199.714" y="7486" width="18" height="18" filterUnits="userSpaceOnUse">
      <feOffset dy="1" input="SourceAlpha"/>
      <feGaussianBlur stdDeviation="1" result="blur-20"/>
      <feFlood flood-opacity="0.239"/>
      <feComposite operator="in" in2="blur-20"/>
      <feComposite in="SourceGraphic"/>
    </filter>
    <filter id="ctrl-m-3" x="6304.143" y="7486" width="18" height="18" filterUnits="userSpaceOnUse">
      <feOffset dy="1" input="SourceAlpha"/>
      <feGaussianBlur stdDeviation="1" result="blur-21"/>
      <feFlood flood-opacity="0.239"/>
      <feComposite operator="in" in2="blur-21"/>
      <feComposite in="SourceGraphic"/>
    </filter>
    <filter id="ctrl-e-3" x="6408.571" y="7486" width="18" height="18" filterUnits="userSpaceOnUse">
      <feOffset dy="1" input="SourceAlpha"/>
      <feGaussianBlur stdDeviation="1" result="blur-22"/>
      <feFlood flood-opacity="0.239"/>
      <feComposite operator="in" in2="blur-22"/>
      <feComposite in="SourceGraphic"/>
    </filter>
    <filter id="ctrl-p-3" x="6408.571" y="7467" width="18" height="18" filterUnits="userSpaceOnUse">
      <feOffset dy="1" input="SourceAlpha"/>
      <feGaussianBlur stdDeviation="1" result="blur-23"/>
      <feFlood flood-opacity="0.239"/>
      <feComposite operator="in" in2="blur-23"/>
      <feComposite in="SourceGraphic"/>
    </filter>
    <filter id="Ellipse_22-3" x="6192" y="7478" width="34" height="34" filterUnits="userSpaceOnUse">
      <feOffset dy="1" input="SourceAlpha"/>
      <feGaussianBlur stdDeviation="1" result="blur-24"/>
      <feFlood flood-opacity="0.239"/>
      <feComposite operator="in" in2="blur-24"/>
      <feComposite in="SourceGraphic"/>
    </filter>
    <filter id="Line_29-3" x="6205.5" y="7547.5" width="294" height="8" filterUnits="userSpaceOnUse">
      <feOffset dy="1" input="SourceAlpha"/>
      <feGaussianBlur stdDeviation="1" result="blur-25"/>
      <feFlood flood-opacity="0.239"/>
      <feComposite operator="in" in2="blur-25"/>
      <feComposite in="SourceGraphic"/>
    </filter>
    <filter id="Line_47-3" x="6204.5" y="7492.5" width="8" height="62" filterUnits="userSpaceOnUse">
      <feOffset dy="1" input="SourceAlpha"/>
      <feGaussianBlur stdDeviation="1" result="blur-26"/>
      <feFlood flood-opacity="0.239"/>
      <feComposite operator="in" in2="blur-26"/>
      <feComposite in="SourceGraphic"/>
    </filter>
    <filter id="Ellipse_21-3" x="6199" y="7485" width="20" height="20" filterUnits="userSpaceOnUse">
      <feOffset dy="1" input="SourceAlpha"/>
      <feGaussianBlur stdDeviation="1" result="blur-27"/>
      <feFlood flood-opacity="0.239"/>
      <feComposite operator="in" in2="blur-27"/>
      <feComposite in="SourceGraphic"/>
    </filter>
    <pattern id="pattern-3" preserveAspectRatio="xMidYMid slice" width="100%" height="100%" viewBox="0 0 1945 1312">
      <image width="1945" height="1312" xlink:href="../../projects/cvp/CVP-network.png"/>
    </pattern>
    <filter id="ctrl-r-4" x="6199.714" y="7486" width="18" height="18" filterUnits="userSpaceOnUse">
      <feOffset dy="1" input="SourceAlpha"/>
      <feGaussianBlur stdDeviation="1" result="blur-28"/>
      <feFlood flood-opacity="0.239"/>
      <feComposite operator="in" in2="blur-28"/>
      <feComposite in="SourceGraphic"/>
    </filter>
    <filter id="ctrl-m-4" x="6304.143" y="7486" width="18" height="18" filterUnits="userSpaceOnUse">
      <feOffset dy="1" input="SourceAlpha"/>
      <feGaussianBlur stdDeviation="1" result="blur-29"/>
      <feFlood flood-opacity="0.239"/>
      <feComposite operator="in" in2="blur-29"/>
      <feComposite in="SourceGraphic"/>
    </filter>
    <filter id="ctrl-e-4" x="6408.571" y="7486" width="18" height="18" filterUnits="userSpaceOnUse">
      <feOffset dy="1" input="SourceAlpha"/>
      <feGaussianBlur stdDeviation="1" result="blur-30"/>
      <feFlood flood-opacity="0.239"/>
      <feComposite operator="in" in2="blur-30"/>
      <feComposite in="SourceGraphic"/>
    </filter>
    <filter id="ctrl-p-4" x="6408.571" y="7467" width="18" height="18" filterUnits="userSpaceOnUse">
      <feOffset dy="1" input="SourceAlpha"/>
      <feGaussianBlur stdDeviation="1" result="blur-31"/>
      <feFlood flood-opacity="0.239"/>
      <feComposite operator="in" in2="blur-31"/>
      <feComposite in="SourceGraphic"/>
    </filter>
    <filter id="Ellipse_22-4" x="6087" y="7478" width="34" height="34" filterUnits="userSpaceOnUse">
      <feOffset dy="1" input="SourceAlpha"/>
      <feGaussianBlur stdDeviation="1" result="blur-32"/>
      <feFlood flood-opacity="0.239"/>
      <feComposite operator="in" in2="blur-32"/>
      <feComposite in="SourceGraphic"/>
    </filter>
    <filter id="Line_29-4" x="6101.5" y="7547.5" width="398" height="8" filterUnits="userSpaceOnUse">
      <feOffset dy="1" input="SourceAlpha"/>
      <feGaussianBlur stdDeviation="1" result="blur-33"/>
      <feFlood flood-opacity="0.239"/>
      <feComposite operator="in" in2="blur-33"/>
      <feComposite in="SourceGraphic"/>
    </filter>
    <filter id="Line_47-4" x="6100.5" y="7492.5" width="8" height="62" filterUnits="userSpaceOnUse">
      <feOffset dy="1" input="SourceAlpha"/>
      <feGaussianBlur stdDeviation="1" result="blur-34"/>
      <feFlood flood-opacity="0.239"/>
      <feComposite operator="in" in2="blur-34"/>
      <feComposite in="SourceGraphic"/>
    </filter>
    <filter id="Ellipse_21-4" x="6094" y="7485" width="20" height="20" filterUnits="userSpaceOnUse">
      <feOffset dy="1" input="SourceAlpha"/>
      <feGaussianBlur stdDeviation="1" result="blur-35"/>
      <feFlood flood-opacity="0.239"/>
      <feComposite operator="in" in2="blur-35"/>
      <feComposite in="SourceGraphic"/>
    </filter>
    <filter id="Ellipse_22-5" x="6393" y="7542" width="34" height="34" filterUnits="userSpaceOnUse">
      <feOffset dy="1" input="SourceAlpha"/>
      <feGaussianBlur stdDeviation="1" result="blur-36"/>
      <feFlood flood-opacity="0.239"/>
      <feComposite operator="in" in2="blur-36"/>
      <feComposite in="SourceGraphic"/>
    </filter>
    <filter id="Line_29-5" x="6407.5" y="7555.5" width="92" height="8" filterUnits="userSpaceOnUse">
      <feOffset dy="1" input="SourceAlpha"/>
      <feGaussianBlur stdDeviation="1" result="blur-37"/>
      <feFlood flood-opacity="0.239"/>
      <feComposite operator="in" in2="blur-37"/>
      <feComposite in="SourceGraphic"/>
    </filter>
    <filter id="Ellipse_21-5" x="6400" y="7549" width="20" height="20" filterUnits="userSpaceOnUse">
      <feOffset dy="1" input="SourceAlpha"/>
      <feGaussianBlur stdDeviation="1" result="blur-38"/>
      <feFlood flood-opacity="0.239"/>
      <feComposite operator="in" in2="blur-38"/>
      <feComposite in="SourceGraphic"/>
    </filter>
    <filter id="ctrl-n-4" x="6095.214" y="7715" width="18" height="18" filterUnits="userSpaceOnUse">
      <feOffset dy="1" input="SourceAlpha"/>
      <feGaussianBlur stdDeviation="1" result="blur-39"/>
      <feFlood flood-opacity="0.239"/>
      <feComposite operator="in" in2="blur-39"/>
      <feComposite in="SourceGraphic"/>
    </filter>
    <filter id="ctrl-r-5" x="6199.929" y="7715" width="18" height="18" filterUnits="userSpaceOnUse">
      <feOffset dy="1" input="SourceAlpha"/>
      <feGaussianBlur stdDeviation="1" result="blur-40"/>
      <feFlood flood-opacity="0.239"/>
      <feComposite operator="in" in2="blur-40"/>
      <feComposite in="SourceGraphic"/>
    </filter>
    <filter id="ctrl-m-5" x="6304.357" y="7715" width="18" height="18" filterUnits="userSpaceOnUse">
      <feOffset dy="1" input="SourceAlpha"/>
      <feGaussianBlur stdDeviation="1" result="blur-41"/>
      <feFlood flood-opacity="0.239"/>
      <feComposite operator="in" in2="blur-41"/>
      <feComposite in="SourceGraphic"/>
    </filter>
    <filter id="ctrl-e-5" x="6408.786" y="7715" width="18" height="18" filterUnits="userSpaceOnUse">
      <feOffset dy="1" input="SourceAlpha"/>
      <feGaussianBlur stdDeviation="1" result="blur-42"/>
      <feFlood flood-opacity="0.239"/>
      <feComposite operator="in" in2="blur-42"/>
      <feComposite in="SourceGraphic"/>
    </filter>
  </defs>
  <g id="cvp_concept" transform="translate(5596 7366)">
    <g id="cvp_cpt-events" transform="translate(1 -135)">
      <g id="mockup_e" transform="translate(-1211.875 1668.93) rotate(-90)">
        <g id="Rectangle_7" data-name="Rectangle 7" class="cls-1" transform="translate(1122 1582)">
          <rect class="cls-17" width="324.93" height="503.275" rx="20"/>
          <rect class="cls-18" x="0.5" y="0.5" width="323.93" height="502.275" rx="19.5"/>
        </g>
        <g id="Ellipse_7" data-name="Ellipse 7" class="cls-2" transform="translate(1271.028 2050.257)">
          <circle class="cls-17" cx="13.437" cy="13.437" r="13.437"/>
          <circle class="cls-18" cx="13.437" cy="13.437" r="11.437"/>
        </g>
        <rect id="Rectangle_9" data-name="Rectangle 9" class="cls-3" width="29.317" height="4.072" rx="2.036" transform="translate(1269.806 1605.209)"/>
        <path id="CVP-event" class="cls-4" d="M0,0H417a0,0,0,0,1,0,0V278.23a6,6,0,0,1-6,6H6a6,6,0,0,1-6-6V0A0,0,0,0,1,0,0Z" transform="translate(1419.93 1624.875) rotate(90)"/>
      </g>
      <g id="control_e" transform="translate(-0.214 -229)">
        <g class="cls-60" transform="matrix(1, 0, 0, 1, -5596.79, -7002)">
          <circle id="ctrl-n-5" data-name="ctrl-n" class="cls-5" cx="6" cy="6" r="6" transform="translate(6098.21 7488)"/>
        </g>
        <g class="cls-59" transform="matrix(1, 0, 0, 1, -5596.79, -7002)">
          <circle id="ctrl-r-6" data-name="ctrl-r" class="cls-5" cx="6" cy="6" r="6" transform="translate(6202.71 7488)"/>
        </g>
        <g class="cls-58" transform="matrix(1, 0, 0, 1, -5596.79, -7002)">
          <circle id="ctrl-m-6" data-name="ctrl-m" class="cls-5" cx="6" cy="6" r="6" transform="translate(6307.14 7488)"/>
        </g>
        <g class="cls-57" transform="matrix(1, 0, 0, 1, -5596.79, -7002)">
          <circle id="ctrl-e-6" data-name="ctrl-e" class="cls-5" cx="6" cy="6" r="6" transform="translate(6411.57 7488)"/>
        </g>
        <g class="cls-56" transform="matrix(1, 0, 0, 1, -5596.79, -7002)">
          <circle id="ctrl-p-5" data-name="ctrl-p" class="cls-5" cx="6" cy="6" r="6" transform="translate(6411.57 7469)"/>
        </g>
        <text id="Profile" class="cls-6" transform="translate(773.214 477)"><tspan x="0" y="0">Profile</tspan></text>
      </g>
      <g id="info">
        <g class="cls-55" transform="matrix(1, 0, 0, 1, -5597, -7231)">
          <circle id="Ellipse_22-6" data-name="Ellipse 22" class="cls-7" cx="14" cy="14" r="14" transform="translate(6404 7480)"/>
        </g>
        <g class="cls-54" transform="matrix(1, 0, 0, 1, -5597, -7231)">
          <line id="Line_29-6" data-name="Line 29" class="cls-8" x2="78" transform="translate(6418.5 7549.5)"/>
        </g>
        <line id="Line_30" data-name="Line 30" class="cls-8" y2="152" transform="translate(899.5 282.5)"/>
        <g class="cls-53" transform="matrix(1, 0, 0, 1, -5597, -7231)">
          <line id="Line_47-5" data-name="Line 47" class="cls-8" y2="56" transform="translate(6418.5 7494.5)"/>
        </g>
        <g class="cls-52" transform="matrix(1, 0, 0, 1, -5597, -7231)">
          <circle id="Ellipse_21-6" data-name="Ellipse 21" class="cls-9" cx="7" cy="7" r="7" transform="translate(6411 7487)"/>
        </g>
        <text id="Events" class="cls-10" transform="translate(913 308)"><tspan x="0" y="0">Events</tspan></text>
        <text id="Gives_veterans_the_opportunity_to_identify_themselves_with_school_and_military_related_information_and_is_connected_with_the_university_s_system_" data-name="Gives veterans the opportunity to identify themselves with school and military related information, and is connected with the university&apos;s system " class="cls-11" transform="translate(913 322)"><tspan x="0" y="13">Gives veterans the opportunity to </tspan><tspan x="0" y="34">identify themselves with school </tspan><tspan x="0" y="55">and military related information, </tspan><tspan x="0" y="76">and is connected with the </tspan><tspan x="0" y="97">university&apos;s system </tspan></text>
      </g>
    </g>
    <g id="cvp_cpt-map" transform="translate(1 -135)">
      <g id="mockup_m" transform="translate(-1211.875 1668.93) rotate(-90)">
        <g id="Rectangle_7-2" data-name="Rectangle 7" class="cls-1" transform="translate(1122 1582)">
          <rect class="cls-17" width="324.93" height="503.275" rx="20"/>
          <rect class="cls-18" x="0.5" y="0.5" width="323.93" height="502.275" rx="19.5"/>
        </g>
        <rect id="luca-bravo-198061" class="cls-12" width="300.378" height="416.953" rx="6" transform="translate(1133.802 1625.161)"/>
        <g id="Ellipse_7-2" data-name="Ellipse 7" class="cls-2" transform="translate(1271.028 2050.257)">
          <circle class="cls-17" cx="13.437" cy="13.437" r="13.437"/>
          <circle class="cls-18" cx="13.437" cy="13.437" r="11.437"/>
        </g>
        <rect id="Rectangle_9-2" data-name="Rectangle 9" class="cls-3" width="29.317" height="4.072" rx="2.036" transform="translate(1269.806 1605.209)"/>
        <image id="CVP-map" width="417" height="231.119" transform="translate(1419.93 1624.875) rotate(90)" xlink:href="../../projects/cvp/CVP-map.png"/>
      </g>
      <g id="control_m" transform="translate(-0.214 -229)">
        <g class="cls-51" transform="matrix(1, 0, 0, 1, -5596.79, -7002)">
          <circle id="ctrl-n-6" data-name="ctrl-n" class="cls-5" cx="6" cy="6" r="6" transform="translate(6098.21 7488)"/>
        </g>
        <g class="cls-50" transform="matrix(1, 0, 0, 1, -5596.79, -7002)">
          <circle id="ctrl-r-7" data-name="ctrl-r" class="cls-5" cx="6" cy="6" r="6" transform="translate(6202.71 7488)"/>
        </g>
        <g class="cls-49" transform="matrix(1, 0, 0, 1, -5596.79, -7002)">
          <circle id="ctrl-m-7" data-name="ctrl-m" class="cls-5" cx="6" cy="6" r="6" transform="translate(6307.14 7488)"/>
        </g>
        <g class="cls-48" transform="matrix(1, 0, 0, 1, -5596.79, -7002)">
          <circle id="ctrl-e-7" data-name="ctrl-e" class="cls-5" cx="6" cy="6" r="6" transform="translate(6411.57 7488)"/>
        </g>
        <g class="cls-47" transform="matrix(1, 0, 0, 1, -5596.79, -7002)">
          <circle id="ctrl-p-6" data-name="ctrl-p" class="cls-5" cx="6" cy="6" r="6" transform="translate(6411.57 7469)"/>
        </g>
        <text id="Profile-2" data-name="Profile" class="cls-6" transform="translate(773.214 477)"><tspan x="0" y="0">Profile</tspan></text>
      </g>
      <g id="info-2" data-name="info">
        <g class="cls-46" transform="matrix(1, 0, 0, 1, -5597, -7231)">
          <circle id="Ellipse_22-7" data-name="Ellipse 22" class="cls-7" cx="14" cy="14" r="14" transform="translate(6299 7481)"/>
        </g>
        <g class="cls-45" transform="matrix(1, 0, 0, 1, -5597, -7231)">
          <line id="Line_29-7" data-name="Line 29" class="cls-8" x2="183" transform="translate(6313.5 7550.5)"/>
        </g>
        <line id="Line_30-2" data-name="Line 30" class="cls-8" y2="152" transform="translate(899.5 282.5)"/>
        <g class="cls-44" transform="matrix(1, 0, 0, 1, -5597, -7231)">
          <line id="Line_47-6" data-name="Line 47" class="cls-8" y2="56" transform="translate(6313.5 7494.5)"/>
        </g>
        <g class="cls-43" transform="matrix(1, 0, 0, 1, -5597, -7231)">
          <circle id="Ellipse_21-7" data-name="Ellipse 21" class="cls-9" cx="7" cy="7" r="7" transform="translate(6306 7488)"/>
        </g>
        <text id="Map" class="cls-10" transform="translate(913 308)"><tspan x="0" y="0">Map</tspan></text>
        <text id="Gives_veterans_the_opportunity_to_identify_themselves_with_school_and_military_related_information_and_is_connected_with_the_university_s_system_2" data-name="Gives veterans the opportunity to identify themselves with school and military related information, and is connected with the university&apos;s system " class="cls-11" transform="translate(913 322)"><tspan x="0" y="13">Gives veterans the opportunity to </tspan><tspan x="0" y="34">identify themselves with school </tspan><tspan x="0" y="55">and military related information, </tspan><tspan x="0" y="76">and is connected with the </tspan><tspan x="0" y="97">university&apos;s system </tspan></text>
      </g>
    </g>
    <g id="cvp_cpt-resources" transform="translate(1 -135)">
      <g id="mockup_r" transform="translate(-1211.875 1668.93) rotate(-90)">
        <g id="Rectangle_7-3" data-name="Rectangle 7" class="cls-1" transform="translate(1122 1582)">
          <rect class="cls-17" width="324.93" height="503.275" rx="20"/>
          <rect class="cls-18" x="0.5" y="0.5" width="323.93" height="502.275" rx="19.5"/>
        </g>
        <rect id="luca-bravo-198061-2" data-name="luca-bravo-198061" class="cls-12" width="300.378" height="416.953" rx="6" transform="translate(1133.802 1625.161)"/>
        <g id="Ellipse_7-3" data-name="Ellipse 7" class="cls-2" transform="translate(1271.028 2050.257)">
          <circle class="cls-17" cx="13.437" cy="13.437" r="13.437"/>
          <circle class="cls-18" cx="13.437" cy="13.437" r="11.437"/>
        </g>
        <rect id="Rectangle_9-3" data-name="Rectangle 9" class="cls-3" width="29.317" height="4.072" rx="2.036" transform="translate(1269.806 1605.209)"/>
        <path id="CVP-resource" class="cls-13" d="M0,0H417a0,0,0,0,1,0,0V275.287a6,6,0,0,1-6,6H6a6,6,0,0,1-6-6V0A0,0,0,0,1,0,0Z" transform="translate(1415.93 1624.875) rotate(90)"/>
      </g>
      <g id="control_r" transform="translate(-0.214 -229)">
        <g class="cls-42" transform="matrix(1, 0, 0, 1, -5596.79, -7002)">
          <circle id="ctrl-n-7" data-name="ctrl-n" class="cls-5" cx="6" cy="6" r="6" transform="translate(6098.21 7488)"/>
        </g>
        <g class="cls-41" transform="matrix(1, 0, 0, 1, -5596.79, -7002)">
          <circle id="ctrl-r-8" data-name="ctrl-r" class="cls-5" cx="6" cy="6" r="6" transform="translate(6202.71 7488)"/>
        </g>
        <g class="cls-40" transform="matrix(1, 0, 0, 1, -5596.79, -7002)">
          <circle id="ctrl-m-8" data-name="ctrl-m" class="cls-5" cx="6" cy="6" r="6" transform="translate(6307.14 7488)"/>
        </g>
        <g class="cls-39" transform="matrix(1, 0, 0, 1, -5596.79, -7002)">
          <circle id="ctrl-e-8" data-name="ctrl-e" class="cls-5" cx="6" cy="6" r="6" transform="translate(6411.57 7488)"/>
        </g>
        <g class="cls-38" transform="matrix(1, 0, 0, 1, -5596.79, -7002)">
          <circle id="ctrl-p-7" data-name="ctrl-p" class="cls-5" cx="6" cy="6" r="6" transform="translate(6411.57 7469)"/>
        </g>
        <text id="Profile-3" data-name="Profile" class="cls-6" transform="translate(773.214 477)"><tspan x="0" y="0">Profile</tspan></text>
      </g>
      <g id="info-3" data-name="info">
        <g class="cls-37" transform="matrix(1, 0, 0, 1, -5597, -7231)">
          <circle id="Ellipse_22-8" data-name="Ellipse 22" class="cls-7" cx="14" cy="14" r="14" transform="translate(6195 7480)"/>
        </g>
        <g class="cls-36" transform="matrix(1, 0, 0, 1, -5597, -7231)">
          <line id="Line_29-8" data-name="Line 29" class="cls-8" x2="288" transform="translate(6208.5 7550.5)"/>
        </g>
        <line id="Line_30-3" data-name="Line 30" class="cls-8" y2="152" transform="translate(899.5 282.5)"/>
        <g class="cls-35" transform="matrix(1, 0, 0, 1, -5597, -7231)">
          <line id="Line_47-7" data-name="Line 47" class="cls-8" y2="56" transform="translate(6208.5 7494.5)"/>
        </g>
        <g class="cls-34" transform="matrix(1, 0, 0, 1, -5597, -7231)">
          <circle id="Ellipse_21-8" data-name="Ellipse 21" class="cls-9" cx="7" cy="7" r="7" transform="translate(6202 7487)"/>
        </g>
        <text id="Resources" class="cls-10" transform="translate(913 308)"><tspan x="0" y="0">Resources</tspan></text>
        <text id="Gives_veterans_the_opportunity_to_identify_themselves_with_school_and_military_related_information_and_is_connected_with_the_university_s_system_3" data-name="Gives veterans the opportunity to identify themselves with school and military related information, and is connected with the university&apos;s system " class="cls-11" transform="translate(913 322)"><tspan x="0" y="13">Gives veterans the opportunity to </tspan><tspan x="0" y="34">identify themselves with school </tspan><tspan x="0" y="55">and military related information, </tspan><tspan x="0" y="76">and is connected with the </tspan><tspan x="0" y="97">university&apos;s system </tspan></text>
      </g>
    </g>
    <g id="cvp_cpt-network" transform="translate(1 -135)">
      <g id="mockup_n" transform="translate(-1211.875 1668.93) rotate(-90)">
        <g id="Rectangle_7-4" data-name="Rectangle 7" class="cls-1" transform="translate(1122 1582)">
          <rect class="cls-17" width="324.93" height="503.275" rx="20"/>
          <rect class="cls-18" x="0.5" y="0.5" width="323.93" height="502.275" rx="19.5"/>
        </g>
        <rect id="luca-bravo-198061-3" data-name="luca-bravo-198061" class="cls-12" width="300.378" height="416.953" rx="6" transform="translate(1133.802 1625.161)"/>
        <g id="Ellipse_7-4" data-name="Ellipse 7" class="cls-2" transform="translate(1271.028 2050.257)">
          <circle class="cls-17" cx="13.437" cy="13.437" r="13.437"/>
          <circle class="cls-18" cx="13.437" cy="13.437" r="11.437"/>
        </g>
        <rect id="Rectangle_9-4" data-name="Rectangle 9" class="cls-3" width="29.317" height="4.072" rx="2.036" transform="translate(1269.806 1605.209)"/>
        <g id="CVP-network" class="cls-14" transform="translate(1414.93 1624.875) rotate(90)">
          <path class="cls-17" d="M0,0H417a0,0,0,0,1,0,0V275.287a6,6,0,0,1-6,6H0a0,0,0,0,1,0,0V0A0,0,0,0,1,0,0Z"/>
          <path class="cls-18" d="M.5.25h416a.25.25,0,0,1,.25.25V275.287a5.75,5.75,0,0,1-5.75,5.75H.5a.25.25,0,0,1-.25-.25V.5A.25.25,0,0,1,.5.25Z"/>
        </g>
      </g>
      <g id="control_n" transform="translate(-0.214 -229)">
        <g class="cls-33" transform="matrix(1, 0, 0, 1, -5596.79, -7002)">
          <circle id="ctrl-r-9" data-name="ctrl-r" class="cls-5" cx="6" cy="6" r="6" transform="translate(6202.71 7488)"/>
        </g>
        <g class="cls-32" transform="matrix(1, 0, 0, 1, -5596.79, -7002)">
          <circle id="ctrl-m-9" data-name="ctrl-m" class="cls-5" cx="6" cy="6" r="6" transform="translate(6307.14 7488)"/>
        </g>
        <g class="cls-31" transform="matrix(1, 0, 0, 1, -5596.79, -7002)">
          <circle id="ctrl-e-9" data-name="ctrl-e" class="cls-5" cx="6" cy="6" r="6" transform="translate(6411.57 7488)"/>
        </g>
        <g class="cls-30" transform="matrix(1, 0, 0, 1, -5596.79, -7002)">
          <circle id="ctrl-p-8" data-name="ctrl-p" class="cls-5" cx="6" cy="6" r="6" transform="translate(6411.57 7469)"/>
        </g>
        <text id="Profile-4" data-name="Profile" class="cls-6" transform="translate(773.214 477)"><tspan x="0" y="0">Profile</tspan></text>
      </g>
      <g id="info-4" data-name="info">
        <g class="cls-29" transform="matrix(1, 0, 0, 1, -5597, -7231)">
          <circle id="Ellipse_22-9" data-name="Ellipse 22" class="cls-7" cx="14" cy="14" r="14" transform="translate(6090 7480)"/>
        </g>
        <g class="cls-28" transform="matrix(1, 0, 0, 1, -5597, -7231)">
          <line id="Line_29-9" data-name="Line 29" class="cls-8" x2="392" transform="translate(6104.5 7550.5)"/>
        </g>
        <line id="Line_30-4" data-name="Line 30" class="cls-8" y2="152" transform="translate(899.5 282.5)"/>
        <g class="cls-27" transform="matrix(1, 0, 0, 1, -5597, -7231)">
          <line id="Line_47-8" data-name="Line 47" class="cls-8" y2="56" transform="translate(6104.5 7494.5)"/>
        </g>
        <g class="cls-26" transform="matrix(1, 0, 0, 1, -5597, -7231)">
          <circle id="Ellipse_21-9" data-name="Ellipse 21" class="cls-9" cx="7" cy="7" r="7" transform="translate(6097 7487)"/>
        </g>
        <text id="Network" class="cls-10" transform="translate(913 308)"><tspan x="0" y="0">Network</tspan></text>
        <text id="Gives_veterans_the_opportunity_to_identify_themselves_with_school_and_military_related_information_and_is_connected_with_the_university_s_system_4" data-name="Gives veterans the opportunity to identify themselves with school and military related information, and is connected with the university&apos;s system " class="cls-11" transform="translate(913 322)"><tspan x="0" y="13">Gives veterans the opportunity to </tspan><tspan x="0" y="34">identify themselves with school </tspan><tspan x="0" y="55">and military related information, </tspan><tspan x="0" y="76">and is connected with the </tspan><tspan x="0" y="97">university&apos;s system </tspan></text>
      </g>
    </g>
    <g id="cvp_cpt-profile" transform="translate(1 -135)">
      <g id="mockup_p" transform="translate(-1211.875 1668.93) rotate(-90)">
        <g id="Rectangle_7-5" data-name="Rectangle 7" class="cls-1" transform="translate(1122 1582)">
          <rect class="cls-17" width="324.93" height="503.275" rx="20"/>
          <rect class="cls-18" x="0.5" y="0.5" width="323.93" height="502.275" rx="19.5"/>
        </g>
        <rect id="luca-bravo-198061-4" data-name="luca-bravo-198061" class="cls-15" width="300.378" height="416.953" rx="6" transform="translate(1133.802 1625.161)"/>
        <g id="Ellipse_7-5" data-name="Ellipse 7" class="cls-2" transform="translate(1271.028 2050.257)">
          <circle class="cls-17" cx="13.437" cy="13.437" r="13.437"/>
          <circle class="cls-18" cx="13.437" cy="13.437" r="11.437"/>
        </g>
        <rect id="Rectangle_9-5" data-name="Rectangle 9" class="cls-3" width="29.317" height="4.072" rx="2.036" transform="translate(1269.806 1605.209)"/>
        <image id="cvp-profile" class="cls-16" width="417" height="281.287" transform="translate(1433.93 1624.875) rotate(90)" xlink:href="../../projects/cvp/cvp-profile.png"/>
        <rect id="Rectangle_36" data-name="Rectangle 36" class="cls-12" width="41" height="39" transform="translate(1362.93 2000.875) rotate(90)"/>
      </g>
      <g id="info-5" data-name="info">
        <g class="cls-25" transform="matrix(1, 0, 0, 1, -5597, -7231)">
          <circle id="Ellipse_22-10" data-name="Ellipse 22" class="cls-7" cx="14" cy="14" r="14" transform="translate(6396 7544)"/>
        </g>
        <g class="cls-24" transform="matrix(1, 0, 0, 1, -5597, -7231)">
          <line id="Line_29-10" data-name="Line 29" class="cls-8" x2="86" transform="translate(6410.5 7558.5)"/>
        </g>
        <g class="cls-23" transform="matrix(1, 0, 0, 1, -5597, -7231)">
          <circle id="Ellipse_21-10" data-name="Ellipse 21" class="cls-9" cx="7" cy="7" r="7" transform="translate(6403 7551)"/>
        </g>
        <line id="Line_30-5" data-name="Line 30" class="cls-8" y2="152" transform="translate(899.5 282.5)"/>
        <text id="Profile-5" data-name="Profile" class="cls-10" transform="translate(941 308)"><tspan x="-27.852" y="0">Profile</tspan></text>
        <text id="Gives_veterans_the_opportunity_to_identify_themselves_with_school_and_military_related_information_and_is_connected_with_the_university_s_system_5" data-name="Gives veterans the opportunity to identify themselves with school and military related information, and is connected with the university&apos;s system " class="cls-11" transform="translate(913 322)"><tspan x="0" y="13">Gives veterans the opportunity to </tspan><tspan x="0" y="34">identify themselves with school </tspan><tspan x="0" y="55">and military related information, </tspan><tspan x="0" y="76">and is connected with the </tspan><tspan x="0" y="97">university&apos;s system </tspan></text>
      </g>
      <g id="control_p">
        <g class="cls-22" transform="matrix(1, 0, 0, 1, -5597, -7231)">
          <circle id="ctrl-n-8" data-name="ctrl-n" class="cls-5" cx="6" cy="6" r="6" transform="translate(6098.21 7717)"/>
        </g>
        <g class="cls-21" transform="matrix(1, 0, 0, 1, -5597, -7231)">
          <circle id="ctrl-r-10" data-name="ctrl-r" class="cls-5" cx="6" cy="6" r="6" transform="translate(6202.93 7717)"/>
        </g>
        <g class="cls-20" transform="matrix(1, 0, 0, 1, -5597, -7231)">
          <circle id="ctrl-m-10" data-name="ctrl-m" class="cls-5" cx="6" cy="6" r="6" transform="translate(6307.36 7717)"/>
        </g>
        <g class="cls-19" transform="matrix(1, 0, 0, 1, -5597, -7231)">
          <circle id="ctrl-e-10" data-name="ctrl-e" class="cls-5" cx="6" cy="6" r="6" transform="translate(6411.79 7717)"/>
        </g>
      </g>
    </g>
  </g>
</svg>
