<svg xmlns="http://www.w3.org/2000/svg" xmlns:xlink="http://www.w3.org/1999/xlink" viewBox="5454.001 14415 399.499 200.498">
  <defs>
    <style>
      .cls-1 {
        fill: #fff;
        stroke: #707070;
      }

      .cls-2 {
        clip-path: url(#clip-path);
      }

      .cls-3 {
        opacity: 0.8;
        fill: url(#pattern);
      }

      .cls-10, .cls-4, .cls-6, .cls-8 {
        fill: none;
      }

      .cls-4, .cls-6 {
        stroke: #33b599;
      }

      .cls-4, .cls-8 {
        stroke-width: 0.5px;
      }

      .cls-5, .cls-7 {
        fill: #33b599;
      }

      .cls-11, .cls-7 {
        font-size: 14px;
        font-family: Roboto-Light, Roboto;
        font-weight: 300;
      }

      .cls-10, .cls-8 {
        stroke: #51a6df;
      }

      .cls-11, .cls-9 {
        fill: #51a6df;
      }

      .cls-12 {
        filter: url(#Ellipse_23-5);
      }

      .cls-13 {
        filter: url(#Ellipse_23-4);
      }

      .cls-14 {
        filter: url(#Ellipse_23-3);
      }

      .cls-15 {
        filter: url(#Ellipse_23-2);
      }

      .cls-16 {
        filter: url(#Ellipse_23);
      }
    </style>
    <clipPath id="clip-path">
      <path id="Exclusion_3" data-name="Exclusion 3" class="cls-1" d="M-4654.175-14003.5h0l-8.1-7.5-6.763,7.5-7.846-7.5-6.771,7.235-7.217-7.235-7.689,7.5-8.1-7.5-6.759,7.5-7.846-7.5c-.011.012-4.922,5.259-6.77,7.235l-7.217-7.235-7.693,7.5-8.1-7.5-6.763,7.5-7.845-7.5-1.309,1.4c-1.556,1.663-4.16,4.447-5.46,5.835l-7.218-7.235-7.689,7.5-8.1-7.5-6.759,7.5-7.846-7.5-6.77,7.235-7.218-7.235-7.689,7.5-8.1-7.5-6.763,7.5-7.845-7.5-3.768,4.029-3,3.206-7.217-7.235-7.692,7.5-8.1-7.5-6.763,7.5-7.846-7.5-6.77,7.235-7.218-7.235-7.689,7.5-8.1-7.5-6.763,7.5-7.842-7.5c-.011.012-4.813,5.143-6.771,7.235l-7.217-7.235-7.692,7.5-8.1-7.5-6.762,7.5-7.846-7.5-1.179,1.262c-1.591,1.7-4.253,4.549-5.588,5.974l-7.221-7.235-7.689,7.5-8.1-7.5-6.759,7.5-7.846-7.5-4.389,4.69-2.129,2.276V-14138.5h399v134.5l-6.983-7-7.692,7.5Zm-384.323,0h-.5l.06-.064.27-.287.17-.183v.533Z" transform="translate(5454 14677)"/>
    </clipPath>
    <pattern id="pattern" preserveAspectRatio="none" width="100%" height="100%" viewBox="0 0 1512 1535">
      <image width="1512" height="1535" xlink:href="../../assets/ntulis_contaudit.jpg"/>
    </pattern>
    <filter id="Ellipse_23" x="5505" y="14477.5" width="13" height="13" filterUnits="userSpaceOnUse">
      <feOffset dy="1" input="SourceAlpha"/>
      <feGaussianBlur stdDeviation="1" result="blur"/>
      <feFlood flood-opacity="0.161"/>
      <feComposite operator="in" in2="blur"/>
      <feComposite in="SourceGraphic"/>
    </filter>
    <filter id="Ellipse_23-2" x="5541" y="14477.5" width="13" height="13" filterUnits="userSpaceOnUse">
      <feOffset dy="1" input="SourceAlpha"/>
      <feGaussianBlur stdDeviation="1" result="blur-2"/>
      <feFlood flood-opacity="0.161"/>
      <feComposite operator="in" in2="blur-2"/>
      <feComposite in="SourceGraphic"/>
    </filter>
    <filter id="Ellipse_23-3" x="5666" y="14477.5" width="13" height="13" filterUnits="userSpaceOnUse">
      <feOffset dy="1" input="SourceAlpha"/>
      <feGaussianBlur stdDeviation="1" result="blur-3"/>
      <feFlood flood-opacity="0.161"/>
      <feComposite operator="in" in2="blur-3"/>
      <feComposite in="SourceGraphic"/>
    </filter>
    <filter id="Ellipse_23-4" x="5718" y="14477.5" width="13" height="13" filterUnits="userSpaceOnUse">
      <feOffset dy="1" input="SourceAlpha"/>
      <feGaussianBlur stdDeviation="1" result="blur-4"/>
      <feFlood flood-opacity="0.161"/>
      <feComposite operator="in" in2="blur-4"/>
      <feComposite in="SourceGraphic"/>
    </filter>
    <filter id="Ellipse_23-5" x="5755" y="14477.5" width="13" height="13" filterUnits="userSpaceOnUse">
      <feOffset dy="1" input="SourceAlpha"/>
      <feGaussianBlur stdDeviation="1" result="blur-5"/>
      <feFlood flood-opacity="0.161"/>
      <feComposite operator="in" in2="blur-5"/>
      <feComposite in="SourceGraphic"/>
    </filter>
  </defs>
  <g id="ntulis_contAudit" transform="translate(5039 14139)">
    <g id="Mask_Group_2" data-name="Mask Group 2" class="cls-2" transform="translate(0 -197)">
      <rect id="ntulis_contaudit-2" data-name="ntulis_contaudit" class="cls-3" width="400" height="405.5" transform="translate(415 538)"/>
    </g>
    <g id="Group_118" data-name="Group 118" transform="translate(-169 -276.5)">
      <line id="Line_63" data-name="Line 63" class="cls-4" y1="59.5" transform="translate(641.5 561)"/>
      <g class="cls-16" transform="matrix(1, 0, 0, 1, -4870, -13862.5)">
        <circle id="Ellipse_23-6" data-name="Ellipse 23" class="cls-5" cx="3.5" cy="3.5" r="3.5" transform="translate(5508 14479.5)"/>
      </g>
      <line id="Line_67" data-name="Line 67" class="cls-4" x1="8" transform="translate(641.5 561)"/>
      <line id="Line_64" data-name="Line 64" class="cls-6" y2="15" transform="translate(649.5 553)"/>
      <text id="Pages" class="cls-7" transform="translate(654 565.5)"><tspan x="0" y="0">Pages</tspan></text>
    </g>
    <g id="Group_119" data-name="Group 119" transform="translate(-133 -276.5)">
      <line id="Line_63-2" data-name="Line 63" class="cls-4" y1="38.5" transform="translate(641.5 582)"/>
      <g class="cls-15" transform="matrix(1, 0, 0, 1, -4906, -13862.5)">
        <circle id="Ellipse_23-7" data-name="Ellipse 23" class="cls-5" cx="3.5" cy="3.5" r="3.5" transform="translate(5544 14479.5)"/>
      </g>
      <line id="Line_67-2" data-name="Line 67" class="cls-4" x1="8" transform="translate(641.5 582)"/>
      <line id="Line_64-2" data-name="Line 64" class="cls-6" y2="15" transform="translate(649.5 574)"/>
      <text id="Content" class="cls-7" transform="translate(654 586.5)"><tspan x="0" y="0">Content</tspan></text>
    </g>
    <g id="Group_120" data-name="Group 120" transform="translate(-8 -276.5)">
      <line id="Line_63-3" data-name="Line 63" class="cls-8" y1="59.5" transform="translate(641.5 561)"/>
      <g class="cls-14" transform="matrix(1, 0, 0, 1, -5031, -13862.5)">
        <circle id="Ellipse_23-8" data-name="Ellipse 23" class="cls-9" cx="3.5" cy="3.5" r="3.5" transform="translate(5669 14479.5)"/>
      </g>
      <line id="Line_67-3" data-name="Line 67" class="cls-8" x1="8" transform="translate(641.5 561)"/>
      <line id="Line_64-3" data-name="Line 64" class="cls-10" y2="15" transform="translate(649.5 553)"/>
      <text id="Producing_Methods" data-name="Producing Methods" class="cls-11" transform="translate(654 565.5)"><tspan x="0" y="0">Producing Methods</tspan></text>
    </g>
    <g id="Group_121" data-name="Group 121" transform="translate(44 -276.5)">
      <line id="Line_63-4" data-name="Line 63" class="cls-8" y1="38.5" transform="translate(641.5 582)"/>
      <g class="cls-13" transform="matrix(1, 0, 0, 1, -5083, -13862.5)">
        <circle id="Ellipse_23-9" data-name="Ellipse 23" class="cls-9" cx="3.5" cy="3.5" r="3.5" transform="translate(5721 14479.5)"/>
      </g>
      <line id="Line_67-4" data-name="Line 67" class="cls-8" x1="8" transform="translate(641.5 582)"/>
      <line id="Line_64-4" data-name="Line 64" class="cls-10" y2="15" transform="translate(649.5 574)"/>
      <text id="Styles" class="cls-11" transform="translate(654 586.5)"><tspan x="0" y="0">Styles</tspan></text>
    </g>
    <g id="Group_122" data-name="Group 122" transform="translate(81 -276.5)">
      <line id="Line_63-5" data-name="Line 63" class="cls-8" y1="17.5" transform="translate(641.5 603)"/>
      <g class="cls-12" transform="matrix(1, 0, 0, 1, -5120, -13862.5)">
        <circle id="Ellipse_23-10" data-name="Ellipse 23" class="cls-9" cx="3.5" cy="3.5" r="3.5" transform="translate(5758 14479.5)"/>
      </g>
      <line id="Line_67-5" data-name="Line 67" class="cls-8" x1="8" transform="translate(641.5 603)"/>
      <line id="Line_64-5" data-name="Line 64" class="cls-10" y2="15" transform="translate(649.5 595)"/>
      <text id="References" class="cls-11" transform="translate(654 607.5)"><tspan x="0" y="0">References</tspan></text>
    </g>
  </g>
</svg>
