<svg xmlns="http://www.w3.org/2000/svg" xmlns:xlink="http://www.w3.org/1999/xlink" viewBox="5454.001 14415 400 203.2">
  <defs>
    <style>
      .cls-1 {
        fill: #fff;
        opacity: 0;
      }

      .cls-2 {
        clip-path: url(#clip-path);
      }

      .cls-3 {
        opacity: 0.8;
        fill: url(#pattern);
      }

      .cls-10, .cls-4, .cls-6, .cls-8 {
        fill: none;
      }

      .cls-4, .cls-6 {
        stroke: #33b599;
      }

      .cls-4, .cls-8 {
        stroke-width: 0.5px;
      }

      .cls-5, .cls-7 {
        fill: #33b599;
      }

      .cls-11, .cls-7 {
        font-size: 14px;
        font-family: Roboto-Light, Roboto;
        font-weight: 300;
      }

      .cls-10, .cls-8 {
        stroke: #51a6df;
      }

      .cls-11, .cls-9 {
        fill: #51a6df;
      }

      .cls-12 {
        filter: url(#Line_67-5);
      }

      .cls-13 {
        filter: url(#Ellipse_23-5);
      }

      .cls-14 {
        filter: url(#Line_63-5);
      }

      .cls-15 {
        filter: url(#Line_67-4);
      }

      .cls-16 {
        filter: url(#Ellipse_23-4);
      }

      .cls-17 {
        filter: url(#Line_63-4);
      }

      .cls-18 {
        filter: url(#Line_67-3);
      }

      .cls-19 {
        filter: url(#Ellipse_23-3);
      }

      .cls-20 {
        filter: url(#Line_63-3);
      }

      .cls-21 {
        filter: url(#Line_67-2);
      }

      .cls-22 {
        filter: url(#Ellipse_23-2);
      }

      .cls-23 {
        filter: url(#Line_63-2);
      }

      .cls-24 {
        filter: url(#Line_67);
      }

      .cls-25 {
        filter: url(#Ellipse_23);
      }

      .cls-26 {
        filter: url(#Line_63);
      }
    </style>
    <clipPath id="clip-path">
      <path id="Exclusion_2" data-name="Exclusion 2" class="cls-1" d="M-4639-14000.3h-400c.156-.159.34-.35.5-.516v.17h13.989l-7.47-6.893-6.519,6.723V-14138.5h399v137.717l-6.983-6.755-7.325,6.893h-.755l.385.344,0,0,.368-.346h14.308v-.138l.5.481Zm-252.351-.346.373.344,0,0,.324-.346h14.152l-7.713-6.893-6.439,6.893Zm-44.389,0,.373.344,0,0,.324-.346h14.156l-7.717-6.893-6.439,6.893Zm266.324,0,.373.344,0,0,.324-.346h14.153l-7.713-6.893-6.44,6.893Zm-44.386,0,.373.344,0,0,.324-.346h14.153l-7.717-6.893-6.437,6.893Zm-44.389,0,.373.344,0,0,.324-.346h14.153l-7.713-6.893-6.44,6.893Zm-44.386,0,.373.344,0,0,.324-.346h14.153l-7.717-6.893-6.437,6.893Zm-44.389,0,.373.344,0,0,.324-.346h14.156l-7.717-6.893-6.44,6.893Zm-133.16,0,.373.344,0,0,.324-.346h14.153l-7.714-6.893-6.439,6.893Zm-44.386,0,.373.344,0,0,.324-.346h14.152l-7.717-6.893-6.436,6.893Zm236.787,0,.385.344,0,0,.368-.346h14.449l-7.127-6.893-7.322,6.893Zm44.386,0,.385.344,0,0,.368-.346h14.453l-7.127-6.893-7.325,6.893Zm-133.161,0,.386.344,0,0,.368-.346h14.453l-7.128-6.893-7.325,6.893Zm-44.386,0,.386.344,0,0,.368-.346h14.449l-7.128-6.893-7.321,6.893Zm-44.389,0,.385.344,0,0,.368-.346h14.453l-7.128-6.893-7.325,6.893Zm-44.386,0,.386.344,0,0,.368-.346h14.453l-7.131-6.893-7.321,6.893Zm177.55,0,.386.344,0,0,.367-.346h14.45l-7.128-6.893-7.322,6.893Zm133.161,0,.385.344,0,0,.368-.346h14.449l-7.127-6.893-7.322,6.893Zm15.2,0,.089.087.084-.087h14.157l-7.47-6.893-3.482,3.59-3.2,3.3Zm-44.386,0,.09.087.084-.087h14.156l-7.47-6.893-3.189,3.288-3.5,3.6Zm-44.389,0,.09.087.039-.041.04-.041,0,0h14.156l-7.47-6.893-1,1.035c-1.491,1.537-4.266,4.4-5.683,5.857Zm-44.385,0,.089.087.074-.076.01-.011h14.156l-7.47-6.893-3.122,3.219-3.564,3.674Zm-44.386,0,.089.087.021-.021.021-.022.042-.043h14.153l-7.47-6.893-1.938,2-4.744,4.893Zm-44.389,0,.089.087.041-.043.039-.04,0,0h14.156l-7.47-6.893-1,1.035c-1.491,1.537-4.266,4.4-5.683,5.857Zm-44.386,0,.089.087.084-.087h14.153l-7.467-6.893-3.482,3.59-3.2,3.3Zm-44.386,0,.09.087.084-.087h14.153l-7.47-6.893-2.355,2.43-4.328,4.463Z" transform="translate(5454 14479.5)"/>
    </clipPath>
    <pattern id="pattern" preserveAspectRatio="xMidYMid slice" width="100%" height="100%" viewBox="0 0 2757 2799">
      <image width="2757" height="2799" xlink:href="../../projects/ntulis_ia/course_continv.png"/>
    </pattern>
    <filter id="Line_63" x="5508.25" y="14421.5" width="6.5" height="65.5" filterUnits="userSpaceOnUse">
      <feOffset dy="1" input="SourceAlpha"/>
      <feGaussianBlur stdDeviation="1" result="blur"/>
      <feFlood flood-opacity="0.161"/>
      <feComposite operator="in" in2="blur"/>
      <feComposite in="SourceGraphic"/>
    </filter>
    <filter id="Ellipse_23" x="5505" y="14477.5" width="13" height="13" filterUnits="userSpaceOnUse">
      <feOffset dy="1" input="SourceAlpha"/>
      <feGaussianBlur stdDeviation="1" result="blur-2"/>
      <feFlood flood-opacity="0.161"/>
      <feComposite operator="in" in2="blur-2"/>
      <feComposite in="SourceGraphic"/>
    </filter>
    <filter id="Line_67" x="5508.5" y="14421.25" width="14" height="6.5" filterUnits="userSpaceOnUse">
      <feOffset dy="1" input="SourceAlpha"/>
      <feGaussianBlur stdDeviation="1" result="blur-3"/>
      <feFlood flood-opacity="0.161"/>
      <feComposite operator="in" in2="blur-3"/>
      <feComposite in="SourceGraphic"/>
    </filter>
    <filter id="Line_63-2" x="5544.25" y="14442.5" width="6.5" height="44.5" filterUnits="userSpaceOnUse">
      <feOffset dy="1" input="SourceAlpha"/>
      <feGaussianBlur stdDeviation="1" result="blur-4"/>
      <feFlood flood-opacity="0.161"/>
      <feComposite operator="in" in2="blur-4"/>
      <feComposite in="SourceGraphic"/>
    </filter>
    <filter id="Ellipse_23-2" x="5541" y="14477.5" width="13" height="13" filterUnits="userSpaceOnUse">
      <feOffset dy="1" input="SourceAlpha"/>
      <feGaussianBlur stdDeviation="1" result="blur-5"/>
      <feFlood flood-opacity="0.161"/>
      <feComposite operator="in" in2="blur-5"/>
      <feComposite in="SourceGraphic"/>
    </filter>
    <filter id="Line_67-2" x="5544.5" y="14442.25" width="14" height="6.5" filterUnits="userSpaceOnUse">
      <feOffset dy="1" input="SourceAlpha"/>
      <feGaussianBlur stdDeviation="1" result="blur-6"/>
      <feFlood flood-opacity="0.161"/>
      <feComposite operator="in" in2="blur-6"/>
      <feComposite in="SourceGraphic"/>
    </filter>
    <filter id="Line_63-3" x="5669.25" y="14421.5" width="6.5" height="65.5" filterUnits="userSpaceOnUse">
      <feOffset dy="1" input="SourceAlpha"/>
      <feGaussianBlur stdDeviation="1" result="blur-7"/>
      <feFlood flood-opacity="0.161"/>
      <feComposite operator="in" in2="blur-7"/>
      <feComposite in="SourceGraphic"/>
    </filter>
    <filter id="Ellipse_23-3" x="5666" y="14477.5" width="13" height="13" filterUnits="userSpaceOnUse">
      <feOffset dy="1" input="SourceAlpha"/>
      <feGaussianBlur stdDeviation="1" result="blur-8"/>
      <feFlood flood-opacity="0.161"/>
      <feComposite operator="in" in2="blur-8"/>
      <feComposite in="SourceGraphic"/>
    </filter>
    <filter id="Line_67-3" x="5669.5" y="14421.25" width="14" height="6.5" filterUnits="userSpaceOnUse">
      <feOffset dy="1" input="SourceAlpha"/>
      <feGaussianBlur stdDeviation="1" result="blur-9"/>
      <feFlood flood-opacity="0.161"/>
      <feComposite operator="in" in2="blur-9"/>
      <feComposite in="SourceGraphic"/>
    </filter>
    <filter id="Line_63-4" x="5721.25" y="14442.5" width="6.5" height="44.5" filterUnits="userSpaceOnUse">
      <feOffset dy="1" input="SourceAlpha"/>
      <feGaussianBlur stdDeviation="1" result="blur-10"/>
      <feFlood flood-opacity="0.161"/>
      <feComposite operator="in" in2="blur-10"/>
      <feComposite in="SourceGraphic"/>
    </filter>
    <filter id="Ellipse_23-4" x="5718" y="14477.5" width="13" height="13" filterUnits="userSpaceOnUse">
      <feOffset dy="1" input="SourceAlpha"/>
      <feGaussianBlur stdDeviation="1" result="blur-11"/>
      <feFlood flood-opacity="0.161"/>
      <feComposite operator="in" in2="blur-11"/>
      <feComposite in="SourceGraphic"/>
    </filter>
    <filter id="Line_67-4" x="5721.5" y="14442.25" width="14" height="6.5" filterUnits="userSpaceOnUse">
      <feOffset dy="1" input="SourceAlpha"/>
      <feGaussianBlur stdDeviation="1" result="blur-12"/>
      <feFlood flood-opacity="0.161"/>
      <feComposite operator="in" in2="blur-12"/>
      <feComposite in="SourceGraphic"/>
    </filter>
    <filter id="Line_63-5" x="5758.25" y="14463.5" width="6.5" height="23.5" filterUnits="userSpaceOnUse">
      <feOffset dy="1" input="SourceAlpha"/>
      <feGaussianBlur stdDeviation="1" result="blur-13"/>
      <feFlood flood-opacity="0.161"/>
      <feComposite operator="in" in2="blur-13"/>
      <feComposite in="SourceGraphic"/>
    </filter>
    <filter id="Ellipse_23-5" x="5755" y="14477.5" width="13" height="13" filterUnits="userSpaceOnUse">
      <feOffset dy="1" input="SourceAlpha"/>
      <feGaussianBlur stdDeviation="1" result="blur-14"/>
      <feFlood flood-opacity="0.161"/>
      <feComposite operator="in" in2="blur-14"/>
      <feComposite in="SourceGraphic"/>
    </filter>
    <filter id="Line_67-5" x="5758.5" y="14463.25" width="14" height="6.5" filterUnits="userSpaceOnUse">
      <feOffset dy="1" input="SourceAlpha"/>
      <feGaussianBlur stdDeviation="1" result="blur-15"/>
      <feFlood flood-opacity="0.161"/>
      <feComposite operator="in" in2="blur-15"/>
      <feComposite in="SourceGraphic"/>
    </filter>
  </defs>
  <g id="ntulis_contAudit" transform="translate(5039 14139)">
    <g id="Mask_Group_1" data-name="Mask Group 1" class="cls-2">
      <rect id="course_continv" class="cls-3" width="400" height="406.094" transform="translate(415 342)"/>
    </g>
    <g id="Group_118" data-name="Group 118" transform="translate(-169 -276.5)">
      <g class="cls-26" transform="matrix(1, 0, 0, 1, -4870, -13862.5)">
        <line id="Line_63-6" data-name="Line 63" class="cls-4" y1="59.5" transform="translate(5511.5 14423.5)"/>
      </g>
      <g class="cls-25" transform="matrix(1, 0, 0, 1, -4870, -13862.5)">
        <circle id="Ellipse_23-6" data-name="Ellipse 23" class="cls-5" cx="3.5" cy="3.5" r="3.5" transform="translate(5508 14479.5)"/>
      </g>
      <g class="cls-24" transform="matrix(1, 0, 0, 1, -4870, -13862.5)">
        <line id="Line_67-6" data-name="Line 67" class="cls-4" x1="8" transform="translate(5511.5 14423.5)"/>
      </g>
      <line id="Line_64" data-name="Line 64" class="cls-6" y2="15" transform="translate(649.5 553)"/>
      <text id="Pages" class="cls-7" transform="translate(654 565.5)"><tspan x="0" y="0">Pages</tspan></text>
    </g>
    <g id="Group_119" data-name="Group 119" transform="translate(-133 -276.5)">
      <g class="cls-23" transform="matrix(1, 0, 0, 1, -4906, -13862.5)">
        <line id="Line_63-7" data-name="Line 63" class="cls-4" y1="38.5" transform="translate(5547.5 14444.5)"/>
      </g>
      <g class="cls-22" transform="matrix(1, 0, 0, 1, -4906, -13862.5)">
        <circle id="Ellipse_23-7" data-name="Ellipse 23" class="cls-5" cx="3.5" cy="3.5" r="3.5" transform="translate(5544 14479.5)"/>
      </g>
      <g class="cls-21" transform="matrix(1, 0, 0, 1, -4906, -13862.5)">
        <line id="Line_67-7" data-name="Line 67" class="cls-4" x1="8" transform="translate(5547.5 14444.5)"/>
      </g>
      <line id="Line_64-2" data-name="Line 64" class="cls-6" y2="15" transform="translate(649.5 574)"/>
      <text id="Content" class="cls-7" transform="translate(654 586.5)"><tspan x="0" y="0">Content</tspan></text>
    </g>
    <g id="Group_120" data-name="Group 120" transform="translate(-8 -276.5)">
      <g class="cls-20" transform="matrix(1, 0, 0, 1, -5031, -13862.5)">
        <line id="Line_63-8" data-name="Line 63" class="cls-8" y1="59.5" transform="translate(5672.5 14423.5)"/>
      </g>
      <g class="cls-19" transform="matrix(1, 0, 0, 1, -5031, -13862.5)">
        <circle id="Ellipse_23-8" data-name="Ellipse 23" class="cls-9" cx="3.5" cy="3.5" r="3.5" transform="translate(5669 14479.5)"/>
      </g>
      <g class="cls-18" transform="matrix(1, 0, 0, 1, -5031, -13862.5)">
        <line id="Line_67-8" data-name="Line 67" class="cls-8" x1="8" transform="translate(5672.5 14423.5)"/>
      </g>
      <line id="Line_64-3" data-name="Line 64" class="cls-10" y2="15" transform="translate(649.5 553)"/>
      <text id="Producing_Methods" data-name="Producing Methods" class="cls-11" transform="translate(654 565.5)"><tspan x="0" y="0">Producing Methods</tspan></text>
    </g>
    <g id="Group_121" data-name="Group 121" transform="translate(44 -276.5)">
      <g class="cls-17" transform="matrix(1, 0, 0, 1, -5083, -13862.5)">
        <line id="Line_63-9" data-name="Line 63" class="cls-8" y1="38.5" transform="translate(5724.5 14444.5)"/>
      </g>
      <g class="cls-16" transform="matrix(1, 0, 0, 1, -5083, -13862.5)">
        <circle id="Ellipse_23-9" data-name="Ellipse 23" class="cls-9" cx="3.5" cy="3.5" r="3.5" transform="translate(5721 14479.5)"/>
      </g>
      <g class="cls-15" transform="matrix(1, 0, 0, 1, -5083, -13862.5)">
        <line id="Line_67-9" data-name="Line 67" class="cls-8" x1="8" transform="translate(5724.5 14444.5)"/>
      </g>
      <line id="Line_64-4" data-name="Line 64" class="cls-10" y2="15" transform="translate(649.5 574)"/>
      <text id="Styles" class="cls-11" transform="translate(654 586.5)"><tspan x="0" y="0">Styles</tspan></text>
    </g>
    <g id="Group_122" data-name="Group 122" transform="translate(81 -276.5)">
      <g class="cls-14" transform="matrix(1, 0, 0, 1, -5120, -13862.5)">
        <line id="Line_63-10" data-name="Line 63" class="cls-8" y1="17.5" transform="translate(5761.5 14465.5)"/>
      </g>
      <g class="cls-13" transform="matrix(1, 0, 0, 1, -5120, -13862.5)">
        <circle id="Ellipse_23-10" data-name="Ellipse 23" class="cls-9" cx="3.5" cy="3.5" r="3.5" transform="translate(5758 14479.5)"/>
      </g>
      <g class="cls-12" transform="matrix(1, 0, 0, 1, -5120, -13862.5)">
        <line id="Line_67-10" data-name="Line 67" class="cls-8" x1="8" transform="translate(5761.5 14465.5)"/>
      </g>
      <line id="Line_64-5" data-name="Line 64" class="cls-10" y2="15" transform="translate(649.5 595)"/>
      <text id="References" class="cls-11" transform="translate(654 607.5)"><tspan x="0" y="0">References</tspan></text>
    </g>
  </g>
</svg>
