<svg xmlns="http://www.w3.org/2000/svg" viewBox="0 0 400 400">
    <defs>
        <style>
            .cls-1{isolation:isolate;}
            .cls-2,.cls-6{fill:#61bee2;}
            .cls-3{opacity:0.6;mix-blend-mode:soft-light;}
            .cls-4{stroke:#000;}
            .cls-5{fill:#f6f6f6;}
            .cls-6{stroke:#f6f6f6;stroke-miterlimit:10;stroke-width:8px;}
        </style>
    </defs>
    <title>Artboard 2</title>
    <g class="cls-1">
        <g id="Layer_2" data-name="Layer 2">
            <rect class="cls-2" width="400" height="400"/>
            <g class="cls-3">
                <path d="M228.25,171.59H174.52c-1.86,5.42,2.6,15.65-8.28,15.13-9.32-.45-6-9.16-7.09-15l-7.79-.93c-.13-1.47-.33-2.78-.34-4.1-.23-26.86-.37-53.67,4-80.36,1.47-9.06,5.49-14.52,13.92-17.39a98.51,98.51,0,0,1,64.72-.14c8.6,2.88,12.72,8.28,14.26,17.7,4.39,26.88,4.26,53.88,4.06,80.92a31.7,31.7,0,0,1-.41,3.49l-7.37.64c-1.69,5.7,2,15.28-8.16,15.14C226.2,186.59,229.73,177.46,228.25,171.59Zm-27.1-48.29c11.47,0,22.93,0,34.4,0,7.38,0,8-.66,7.06-8.21-1-7.71-2.38-15.36-3.17-23.08-.53-5.17-3.07-7-8-6.93q-30,.18-60,0c-5.11,0-7.42,2.14-8,7-1,8.1-2.07,16.18-3.37,24.23-.83,5.11,1,7.13,6.18,7C177.83,123.15,189.49,123.29,201.15,123.3ZM201.08,79c6.6,0,13.2.17,19.79-.13,1.46-.07,2.85-1.81,4.27-2.78C223.65,75,222.2,73,220.7,73q-19.2-.38-38.41,0c-1.55,0-3.07,2-4.61,3,1.59,1,3.14,2.81,4.78,2.9C188.65,79.25,194.87,79,201.08,79Zm-27.24,68.61c-.59-4-2.91-6.71-7.19-6.62s-6.92,2.74-6.84,7.07,2.68,6.82,7.06,6.77S173.4,152.12,173.84,147.64Zm69.26.29c-.41-4.47-2.9-7-7.14-6.91s-6.92,2.92-6.81,7.13,2.71,6.84,7.13,6.73S242.8,152.1,243.09,147.93Z"/>
                <circle cx="112.7" cy="215.66" r="12.18"/>
                <circle cx="290.23" cy="215.66" r="12.18"/>
                <path d="M63.22,215.36l3.18-.28c2.08-.17,5.12-.48,9-.74s8.58-.64,14-.94l8.6-.51c3-.18,6.21-.3,9.54-.46l10.37-.48c3.58-.16,7.29-.26,11.09-.39,7.62-.26,15.65-.56,24-.68l12.65-.26,6.45-.13,6.51,0,26.45-.17,26.45.18c4.36,0,8.69.09,13,.18l12.65.26c8.31.12,16.34.44,24,.69,3.81.14,7.51.23,11.09.4l10.37.48c6.65.28,12.74.65,18.14,1s10.11.66,14,.93,6.92.57,9,.73l3.18.28v.6l-141.78.3L63.22,216Z"/>
                <circle class="cls-4" cx="171.88" cy="215.66" r="11.2"/>
                <circle class="cls-4" cx="231.05" cy="215.66" r="11.2"/>
            </g>
            <path class="cls-5" d="M223.25,166.59H169.52c-1.86,5.42,2.6,15.65-8.28,15.13-9.32-.45-6-9.16-7.09-15l-7.79-.93c-.13-1.47-.33-2.78-.34-4.1-.23-26.86-.37-53.67,4-80.36,1.47-9.06,5.49-14.52,13.92-17.39a98.51,98.51,0,0,1,64.72-.14c8.6,2.88,12.72,8.28,14.26,17.7,4.39,26.88,4.26,53.88,4.06,80.92a31.7,31.7,0,0,1-.41,3.49l-7.37.64c-1.69,5.7,2,15.28-8.16,15.14C221.2,181.59,224.73,172.46,223.25,166.59Zm-27.1-48.29c11.47,0,22.93,0,34.4,0,7.38,0,8-.66,7.06-8.21-1-7.71-2.38-15.36-3.17-23.08-.53-5.17-3.07-7-8-6.93q-30,.18-60,0c-5.11,0-7.42,2.14-8,7-1,8.1-2.07,16.18-3.37,24.23-.83,5.11,1,7.13,6.18,7C172.83,118.15,184.49,118.29,196.15,118.3ZM196.08,74c6.6,0,13.2.17,19.79-.13,1.46-.07,2.85-1.81,4.27-2.78C218.65,70,217.2,68,215.7,68q-19.2-.38-38.41,0c-1.55,0-3.07,2-4.61,3,1.59,1,3.14,2.81,4.78,2.9C183.65,74.25,189.87,74,196.08,74Zm-27.24,68.61c-.59-4-2.91-6.71-7.19-6.62s-6.92,2.74-6.84,7.07,2.68,6.82,7.06,6.77S168.4,147.12,168.84,142.64Zm69.26.29c-.41-4.47-2.9-7-7.14-6.91s-6.92,2.92-6.81,7.13,2.71,6.84,7.13,6.73S237.8,147.1,238.09,142.93Z"/>
            <circle class="cls-5" cx="107.7" cy="210.66" r="12.18"/>
            <circle class="cls-5" cx="285.23" cy="210.66" r="12.18"/>
            <path class="cls-5" d="M58.22,210.36l3.18-.28c2.08-.17,5.12-.48,9-.74s8.58-.64,14-.94l8.6-.51c3-.18,6.21-.3,9.54-.46l10.37-.48c3.58-.16,7.29-.26,11.09-.39,7.62-.26,15.65-.56,24-.68l12.65-.26,6.45-.13,6.51,0,26.45-.17,26.45.18c4.36,0,8.69.09,13,.18l12.65.26c8.31.12,16.34.44,24,.69,3.81.14,7.51.23,11.09.4l10.37.48c6.65.28,12.74.65,18.14,1s10.11.66,14,.93,6.92.57,9,.73l3.18.28v.6l-141.78.3L58.22,211Z"/>
            <circle class="cls-6" cx="166.88" cy="210.66" r="11.2"/>
            <circle class="cls-6" cx="226.05" cy="210.66" r="11.2"/>
        </g>
    </g>
</svg>