<svg xmlns="http://www.w3.org/2000/svg" viewBox="0 0 400 400"><defs><style>.cls-1{isolation:isolate;}.cls-2{fill:#9b59b6;}.cls-3{opacity:0.6;mix-blend-mode:soft-light;}.cls-4{fill:#f6f6f6;}</style></defs><title>Artboard 4</title><g class="cls-1"><g id="Layer_4" data-name="Layer 4"><rect class="cls-2" x="0.39" width="400" height="400"/><g class="cls-3"><path d="M229.18,150.47l-2.76-3.67,5.8-4.51c.94-.73,1.81-1.55,2.8-2.2,1.2-.79,1.21-1.52.34-2.61-4.6-5.73-9.09-11.55-13.72-17.25-2.82-3.48-5.79-6.85-8.77-10.2a2.67,2.67,0,0,0-1.93-.81c-7.68.66-15.39,1.12-23,2.22-8.47,1.22-16.85,3.07-25.28,4.6a2,2,0,0,0-1.83,1.89c-1.66,8.68-3.32,17.37-5.06,26a2.2,2.2,0,0,0,1,2.34q7.6,6.44,15.23,12.84c.29.24.58.46,1.08.86l-2.72,4L154.59,151c-.31,1.49-.62,2.86-.87,4.24-.54,3-1,6.05-1.58,9.08a2.11,2.11,0,0,0,1,2.55,10.09,10.09,0,0,1-4.94,18.67,9.74,9.74,0,0,1-9.36-5.55,9.52,9.52,0,0,1,1.2-10.89,3,3,0,0,0,.58-3.71,137.56,137.56,0,0,1-7.81-28c-.19-1.06-.49-1.64-1.78-1.81a13.4,13.4,0,0,1-.8-26.42,13.86,13.86,0,0,1,4.83,0,1.83,1.83,0,0,0,2.27-1.15,181.74,181.74,0,0,1,14.35-23.3c3.17-4.24,6.55-8.32,9.93-12.39a2.55,2.55,0,0,0,.56-3A10.06,10.06,0,0,1,172,55.54a9.54,9.54,0,0,1,8.6,5.69A2.72,2.72,0,0,0,183.4,63c8.08.35,16.16.73,24.23,1.33,4.13.3,8.24,1,12.33,1.68a1.9,1.9,0,0,0,2.47-1.27,12.79,12.79,0,0,1,12.08-7.57,13.27,13.27,0,0,1,12.27,18.46,2.77,2.77,0,0,0,.69,3.63,125.41,125.41,0,0,1,16,19.91,1.94,1.94,0,0,0,2.38,1,10.07,10.07,0,0,1,6,19.18,1.89,1.89,0,0,0-1.38,2.19c.61,8.22-.14,16.4-1.08,24.55a105.56,105.56,0,0,1-1.93,10.81,2.79,2.79,0,0,0,1.33,3.45,13.3,13.3,0,0,1,2.53,19.55,13.4,13.4,0,0,1-23.61-9.33,12.47,12.47,0,0,1,3.31-8.08,1.66,1.66,0,0,0,.17-2.5q-5.54-7.89-11-15.86c-.73-1.07-1.29-1.29-2.41-.37C235.09,146,232.22,148.13,229.18,150.47ZM197.31,86.3c.53.67.79,1.06,1.11,1.4,4.93,5.23,9.9,10.43,14.78,15.7,1,1,2,1,3.21,1,5.94-.1,11.89-.35,17.82-.12,7.81.3,15.61,1,23.4,1.57,1.53.12,1.91-.86,2.29-1.77a2.63,2.63,0,0,0-.16-2.12,134.1,134.1,0,0,0-15.63-19.62,1.86,1.86,0,0,0-2.73-.39,13.23,13.23,0,0,1-17.94-3.84,1.75,1.75,0,0,0-2.4-.79c-4.71,1.74-9.46,3.35-14.17,5.11C203.76,83.59,200.7,84.92,197.31,86.3Zm21.25,22.81c.36.53.54.85.77,1.13,6.53,8.12,13.08,16.21,19.57,24.36.86,1.09,1.45,1.16,2.41.21q8.55-8.5,17.15-17c1.18-1.15,1.65-2.27.59-3.79a6.23,6.23,0,0,1-.77-2.28,1.61,1.61,0,0,0-1.68-1.4c-3.76-.31-7.51-.79-11.27-.93-8.3-.31-16.61-.45-24.92-.63A11.32,11.32,0,0,0,218.55,109.11Zm47.6,13.34h-.26c0-.27,0-.54,0-.81,0-.92.08-1.74-1.08-2.22s-1.78.23-2.42,1-1.09,1.35-1.71,1.95c-5.58,5.48-11.16,11-16.8,16.4-.85.81-1,1.37-.25,2.27s1.55,2.07,2.29,3.14c3.06,4.44,6.13,8.89,9.15,13.36a1.86,1.86,0,0,0,2.4.93,14,14,0,0,1,3.67-.47,1.56,1.56,0,0,0,1.76-1.45c.89-5.8,2-11.58,2.57-17.41C266,133.57,265.95,128,266.15,122.45ZM208,104.69c-.85-1-1.37-1.74-2-2.37-4-4.22-8.09-8.4-12.08-12.64a2.12,2.12,0,0,0-3-.54c-8.06,4.25-16.13,8.5-24.25,12.64a5.56,5.56,0,0,0-3.48,4.76,47.85,47.85,0,0,1-.93,4.81A286.43,286.43,0,0,1,208,104.69ZM186.53,67.26l0,.28a25.73,25.73,0,0,0-3.56,0,2.55,2.55,0,0,0-1.67,1.05c-.47.82-1,1.72.11,2.71,3.86,3.54,7.62,7.2,11.47,10.75a2,2,0,0,0,1.67.32q12.74-4.74,25.42-9.63c.45-.17.75-.75,1.12-1.13a8.78,8.78,0,0,0-1.29-.94,4,4,0,0,0-1.26-.26c-3.47-.45-6.94-1-10.42-1.32C200.92,68.45,193.72,67.88,186.53,67.26Zm-20.21,7.67-.36-.18c-.69.66-1.43,1.27-2.05,2a170.76,170.76,0,0,0-22.22,33.18,5.87,5.87,0,0,0-.25,2,6.15,6.15,0,0,0,2-.48q7.65-5,15.2-10.2a4,4,0,0,0,1.5-2.1c1.78-6.72,3.46-13.48,5.17-20.22C165.61,77.6,166,76.27,166.32,74.94Zm-.85,22,23.45-12.19c-3.77-3.52-7.3-6.85-10.89-10.12a2,2,0,0,0-1.55-.1,30.36,30.36,0,0,1-3.85,1.09,2,2,0,0,0-2.13,1.72c-1.15,4.55-2.38,9.08-3.57,13.62C166.46,92.78,166,94.65,165.47,96.92Zm-15,50.3a5.81,5.81,0,0,0-.75-1.41c-3.19-3.59-6.38-7.18-9.66-10.68a2.16,2.16,0,0,0-1.9-.36,1.79,1.79,0,0,0-.72,1.58c1.1,5.16,2.13,10.34,3.52,15.42,1.15,4.2,2.73,8.29,4.2,12.39.19.52.91.85,1.38,1.27a6,6,0,0,0,.9-1.51c.36-1.46.58-3,.84-4.44C149,155.49,149.7,151.52,150.46,147.22Zm5.61-29.56c-3.1.86-5.72,1.63-8.36,2.3A1.71,1.71,0,0,0,146.2,122a12.87,12.87,0,0,1-2.52,8.35,1.9,1.9,0,0,0,0,1.78c2.22,2.65,4.54,5.2,6.85,7.77a6,6,0,0,0,1.1.71Zm2.2-10-.51-.35-11.34,7.64c.63.17.79.28.92.25,3-.79,6-1.59,9-2.43a1.28,1.28,0,0,0,.81-.67C157.59,110.62,157.91,109.13,158.27,107.65Z"/><path d="M229.63,214.87H174.95c1.14-6.54,2.25-13,3.37-19.39.78-4.46,1.63-8.92,2.34-13.39a14.2,14.2,0,0,1,6.48-9.84c8.35-5.67,21.56-5.75,30-.22a15.21,15.21,0,0,1,7,10.8C225.83,193.47,227.75,204.09,229.63,214.87Z"/><path d="M219.66,146.66a17.36,17.36,0,1,1-17.18-17.45A17.32,17.32,0,0,1,219.66,146.66Z"/></g><path class="cls-4" d="M224.18,145.47l-2.76-3.67,5.8-4.51c.94-.73,1.81-1.55,2.8-2.2,1.2-.79,1.21-1.52.34-2.61-4.6-5.73-9.09-11.55-13.72-17.25-2.82-3.48-5.79-6.85-8.77-10.2a2.67,2.67,0,0,0-1.93-.81c-7.68.66-15.39,1.12-23,2.22-8.47,1.22-16.85,3.07-25.28,4.6a2,2,0,0,0-1.83,1.89c-1.66,8.68-3.32,17.37-5.06,26a2.2,2.2,0,0,0,1,2.34q7.6,6.44,15.23,12.84c.29.24.58.46,1.08.86l-2.72,4L149.59,146c-.31,1.49-.62,2.86-.87,4.24-.54,3-1,6.05-1.58,9.08a2.11,2.11,0,0,0,1,2.55,10.09,10.09,0,0,1-4.94,18.67,9.74,9.74,0,0,1-9.36-5.55,9.52,9.52,0,0,1,1.2-10.89,3,3,0,0,0,.58-3.71,137.56,137.56,0,0,1-7.81-28c-.19-1.06-.49-1.64-1.78-1.81a13.4,13.4,0,0,1-.8-26.42,13.86,13.86,0,0,1,4.83,0,1.83,1.83,0,0,0,2.27-1.15,181.74,181.74,0,0,1,14.35-23.3c3.17-4.24,6.55-8.32,9.93-12.39a2.55,2.55,0,0,0,.56-3A10.06,10.06,0,0,1,167,50.54a9.54,9.54,0,0,1,8.6,5.69A2.72,2.72,0,0,0,178.4,58c8.08.35,16.16.73,24.23,1.33,4.13.3,8.24,1,12.33,1.68a1.9,1.9,0,0,0,2.47-1.27,12.79,12.79,0,0,1,12.08-7.57,13.27,13.27,0,0,1,12.27,18.46,2.77,2.77,0,0,0,.69,3.63,125.41,125.41,0,0,1,16,19.91,1.94,1.94,0,0,0,2.38,1,10.07,10.07,0,0,1,6,19.18,1.89,1.89,0,0,0-1.38,2.19c.61,8.22-.14,16.4-1.08,24.55a105.56,105.56,0,0,1-1.93,10.81,2.79,2.79,0,0,0,1.33,3.45,13.3,13.3,0,0,1,2.53,19.55,13.4,13.4,0,0,1-23.61-9.33,12.47,12.47,0,0,1,3.31-8.08,1.66,1.66,0,0,0,.17-2.5q-5.54-7.89-11-15.86c-.73-1.07-1.29-1.29-2.41-.37C230.09,141,227.22,143.13,224.18,145.47ZM192.31,81.3c.53.67.79,1.06,1.11,1.4,4.93,5.23,9.9,10.43,14.78,15.7,1,1,2,1,3.21,1,5.94-.1,11.89-.35,17.82-.12,7.81.3,15.61,1,23.4,1.57,1.53.12,1.91-.86,2.29-1.77a2.63,2.63,0,0,0-.16-2.12,134.1,134.1,0,0,0-15.63-19.62,1.86,1.86,0,0,0-2.73-.39,13.23,13.23,0,0,1-17.94-3.84,1.75,1.75,0,0,0-2.4-.79c-4.71,1.74-9.46,3.35-14.17,5.11C198.76,78.59,195.7,79.92,192.31,81.3Zm21.25,22.81c.36.53.54.85.77,1.13,6.53,8.12,13.08,16.21,19.57,24.36.86,1.09,1.45,1.16,2.41.21q8.55-8.5,17.15-17c1.18-1.15,1.65-2.27.59-3.79a6.23,6.23,0,0,1-.77-2.28,1.61,1.61,0,0,0-1.68-1.4c-3.76-.31-7.51-.79-11.27-.93-8.3-.31-16.61-.45-24.92-.63A11.32,11.32,0,0,0,213.55,104.11Zm47.6,13.34h-.26c0-.27,0-.54,0-.81,0-.92.08-1.74-1.08-2.22s-1.78.23-2.42,1-1.09,1.35-1.71,1.95c-5.58,5.48-11.16,11-16.8,16.4-.85.81-1,1.37-.25,2.27s1.55,2.07,2.29,3.14c3.06,4.44,6.13,8.89,9.15,13.36a1.86,1.86,0,0,0,2.4.93,14,14,0,0,1,3.67-.47,1.56,1.56,0,0,0,1.76-1.45c.89-5.8,2-11.58,2.57-17.41C261,128.57,260.95,123,261.15,117.45ZM203,99.69c-.85-1-1.37-1.74-2-2.37-4-4.22-8.09-8.4-12.08-12.64a2.12,2.12,0,0,0-3-.54c-8.06,4.25-16.13,8.5-24.25,12.64a5.56,5.56,0,0,0-3.48,4.76,47.85,47.85,0,0,1-.93,4.81A286.43,286.43,0,0,1,203,99.69ZM181.53,62.26l0,.28a25.73,25.73,0,0,0-3.56,0,2.55,2.55,0,0,0-1.67,1.05c-.47.82-1,1.72.11,2.71,3.86,3.54,7.62,7.2,11.47,10.75a2,2,0,0,0,1.67.32q12.74-4.74,25.42-9.63c.45-.17.75-.75,1.12-1.13a8.78,8.78,0,0,0-1.29-.94,4,4,0,0,0-1.26-.26c-3.47-.45-6.94-1-10.42-1.32C195.92,63.45,188.72,62.88,181.53,62.26Zm-20.21,7.67-.36-.18c-.69.66-1.43,1.27-2.05,2a170.76,170.76,0,0,0-22.22,33.18,5.87,5.87,0,0,0-.25,2,6.15,6.15,0,0,0,2-.48q7.65-5,15.2-10.2a4,4,0,0,0,1.5-2.1c1.78-6.72,3.46-13.48,5.17-20.22C160.61,72.6,161,71.27,161.32,69.94Zm-.85,22,23.45-12.19c-3.77-3.52-7.3-6.85-10.89-10.12a2,2,0,0,0-1.55-.1,30.36,30.36,0,0,1-3.85,1.09,2,2,0,0,0-2.13,1.72c-1.15,4.55-2.38,9.08-3.57,13.62C161.46,87.78,161,89.65,160.47,91.92Zm-15,50.3a5.81,5.81,0,0,0-.75-1.41c-3.19-3.59-6.38-7.18-9.66-10.68a2.16,2.16,0,0,0-1.9-.36,1.79,1.79,0,0,0-.72,1.58c1.1,5.16,2.13,10.34,3.52,15.42,1.15,4.2,2.73,8.29,4.2,12.39.19.52.91.85,1.38,1.27a6,6,0,0,0,.9-1.51c.36-1.46.58-3,.84-4.44C144,150.49,144.7,146.52,145.46,142.22Zm5.61-29.56c-3.1.86-5.72,1.63-8.36,2.3A1.71,1.71,0,0,0,141.2,117a12.87,12.87,0,0,1-2.52,8.35,1.9,1.9,0,0,0,0,1.78c2.22,2.65,4.54,5.2,6.85,7.77a6,6,0,0,0,1.1.71Zm2.2-10-.51-.35-11.34,7.64c.63.17.79.28.92.25,3-.79,6-1.59,9-2.43a1.28,1.28,0,0,0,.81-.67C152.59,105.62,152.91,104.13,153.27,102.65Z"/><path class="cls-4" d="M224.63,209.87H169.95c1.14-6.54,2.25-13,3.37-19.39.78-4.46,1.63-8.92,2.34-13.39a14.2,14.2,0,0,1,6.48-9.84c8.35-5.67,21.56-5.75,30-.22a15.21,15.21,0,0,1,7,10.8C220.83,188.47,222.75,199.09,224.63,209.87Z"/><path class="cls-4" d="M214.66,141.66a17.36,17.36,0,1,1-17.18-17.45A17.32,17.32,0,0,1,214.66,141.66Z"/></g></g></svg>