<svg xmlns="http://www.w3.org/2000/svg" viewBox="0 0 400 400"><defs><style>.cls-1{isolation:isolate;}.cls-2{fill:#33b599;}.cls-3{opacity:0.6;mix-blend-mode:soft-light;}.cls-4{fill:#f6f6f6;}</style></defs><title>Artboard 5</title><g class="cls-1"><g id="Layer_5" data-name="Layer 5"><rect class="cls-2" x="0.77" width="400" height="400"/><g class="cls-3"><path d="M231,56.6c4.32,16.94-3,32.89-18.81,41.21-.12-.23-.26-.46-.36-.7-3.57-8.81-3.33-17.41,1.64-25.65a34.75,34.75,0,0,1,11.12-11C226.61,59.09,228.77,57.91,231,56.6Z"/><path d="M188.83,85c1.26,1.23,2.53,2.34,3.66,3.57A25.66,25.66,0,0,1,199,101a23.09,23.09,0,0,1-2.2,14.92,39.8,39.8,0,0,1-5.84,8.65c-.44.51-.75.36-1.17,0a21.17,21.17,0,0,1-8.87-18,34.27,34.27,0,0,1,4.16-15.16c1-1.9,2.08-3.72,3.14-5.57C188.37,85.61,188.55,85.4,188.83,85Z"/><path d="M266.2,63.08A18.55,18.55,0,0,1,264,73.64c-2.64,4.89-6.88,7.93-11.89,10-5.71,2.36-11.74,3.17-17.86,3.46A1.38,1.38,0,0,1,234,87c.34-1.37.63-2.77,1-4.13a32.23,32.23,0,0,1,7-12.79,22.83,22.83,0,0,1,15-7.45A32.48,32.48,0,0,1,266.2,63.08Z"/><path d="M225.73,145.23c-1.34,1.53-2.59,3.08-4,4.51a42.16,42.16,0,0,1-11.14,8.54,21.48,21.48,0,0,1-25.34-2.86,34.1,34.1,0,0,1,16.14-11.64C209.79,141,218.71,142.21,225.73,145.23Z"/><path d="M232,88.79l1.73,2.4c-21.61,15.68-38.82,35.05-50.31,59.22a148,148,0,0,0-14.25,76.18l-3,.46a8.42,8.42,0,0,0,.06-1.19,132.32,132.32,0,0,1,.54-28.36,152.21,152.21,0,0,1,37.45-83.72A171.84,171.84,0,0,1,231.4,89.17C231.56,89.06,231.72,89,232,88.79Z"/><path d="M210.93,174.34c-.87,1.41-1.63,2.79-2.54,4.06-6.07,8.48-15.44,11.85-25.52,9.21a42.44,42.44,0,0,1-9.12-3.6,26.58,26.58,0,0,1,12.94-11.67C195,168.94,203,170.69,210.93,174.34Z"/><path d="M165.27,114.83a40,40,0,0,1,7.56,7.44c7.4,9.75,6.4,20.84,1.4,29.36a1.67,1.67,0,0,1-.22.21c-6-3.86-11.09-8.54-13.07-15.71C158.81,128.38,161,121.46,165.27,114.83Z"/><path d="M241.06,124c-2.71,1.59-5.39,3.25-8.15,4.75a53.3,53.3,0,0,1-15.08,5.72,21.41,21.41,0,0,1-11.4-.39,13.57,13.57,0,0,1-5.71-3.83c.69-.77,1.36-1.56,2.09-2.31a34.55,34.55,0,0,1,12.55-8.48A24.69,24.69,0,0,1,236,120.71c1.74.88,3.38,2,5.06,2.94Z"/><path d="M151.54,146.91c1.89,1.36,3.76,2.55,5.46,4a26.33,26.33,0,0,1,8.09,10.86,23.41,23.41,0,0,1,.39,15.47c-.37,1.26-.86,2.49-1.3,3.75C153.07,175.39,145.15,163.24,151.54,146.91Z"/><path d="M223.22,106.14A27.27,27.27,0,0,1,238,96.83c7.59-1.75,14.57.16,21.39,3.86-.87.88-1.65,1.72-2.5,2.49-4.44,4-9.46,6.91-15.47,7.81a23.82,23.82,0,0,1-15.28-3c-.82-.45-1.61-1-2.41-1.46C223.62,106.48,223.48,106.34,223.22,106.14Z"/></g><path class="cls-4" d="M226,51.6c4.32,16.94-3,32.89-18.81,41.21-.12-.23-.26-.46-.36-.7-3.57-8.81-3.33-17.41,1.64-25.65a34.75,34.75,0,0,1,11.12-11C221.61,54.09,223.77,52.91,226,51.6Z"/><path class="cls-4" d="M183.83,80c1.26,1.23,2.53,2.34,3.66,3.57A25.66,25.66,0,0,1,194,96a23.09,23.09,0,0,1-2.2,14.92,39.8,39.8,0,0,1-5.84,8.65c-.44.51-.75.36-1.17,0a21.17,21.17,0,0,1-8.87-18,34.27,34.27,0,0,1,4.16-15.16c1-1.9,2.08-3.72,3.14-5.57C183.37,80.61,183.55,80.4,183.83,80Z"/><path class="cls-4" d="M261.2,58.08A18.55,18.55,0,0,1,259,68.64c-2.64,4.89-6.88,7.93-11.89,10-5.71,2.36-11.74,3.17-17.86,3.46A1.38,1.38,0,0,1,229,82c.34-1.37.63-2.77,1-4.13a32.23,32.23,0,0,1,7-12.79,22.83,22.83,0,0,1,15-7.45A32.48,32.48,0,0,1,261.2,58.08Z"/><path class="cls-4" d="M220.73,140.23c-1.34,1.53-2.59,3.08-4,4.51a42.16,42.16,0,0,1-11.14,8.54,21.48,21.48,0,0,1-25.34-2.86,34.1,34.1,0,0,1,16.14-11.64C204.79,136,213.71,137.21,220.73,140.23Z"/><path class="cls-4" d="M227,83.79l1.73,2.4c-21.61,15.68-38.82,35.05-50.31,59.22a148,148,0,0,0-14.25,76.18l-3,.46a8.42,8.42,0,0,0,.06-1.19,132.32,132.32,0,0,1,.54-28.36,152.21,152.21,0,0,1,37.45-83.72A171.84,171.84,0,0,1,226.4,84.17C226.56,84.06,226.72,84,227,83.79Z"/><path class="cls-4" d="M205.93,169.34c-.87,1.41-1.63,2.79-2.54,4.06-6.07,8.48-15.44,11.85-25.52,9.21a42.44,42.44,0,0,1-9.12-3.6,26.58,26.58,0,0,1,12.94-11.67C190,163.94,198,165.69,205.93,169.34Z"/><path class="cls-4" d="M160.27,109.83a40,40,0,0,1,7.56,7.44c7.4,9.75,6.4,20.84,1.4,29.36a1.67,1.67,0,0,1-.22.21c-6-3.86-11.09-8.54-13.07-15.71C153.81,123.38,156,116.46,160.27,109.83Z"/><path class="cls-4" d="M236.06,119c-2.71,1.59-5.39,3.25-8.15,4.75a53.3,53.3,0,0,1-15.08,5.72,21.41,21.41,0,0,1-11.4-.39,13.57,13.57,0,0,1-5.71-3.83c.69-.77,1.36-1.56,2.09-2.31a34.55,34.55,0,0,1,12.55-8.48A24.69,24.69,0,0,1,231,115.71c1.74.88,3.38,2,5.06,2.94Z"/><path class="cls-4" d="M146.54,141.91c1.89,1.36,3.76,2.55,5.46,4a26.33,26.33,0,0,1,8.09,10.86,23.41,23.41,0,0,1,.39,15.47c-.37,1.26-.86,2.49-1.3,3.75C148.07,170.39,140.15,158.24,146.54,141.91Z"/><path class="cls-4" d="M218.22,101.14A27.27,27.27,0,0,1,233,91.83c7.59-1.75,14.57.16,21.39,3.86-.87.88-1.65,1.72-2.5,2.49-4.44,4-9.46,6.91-15.47,7.81a23.82,23.82,0,0,1-15.28-3c-.82-.45-1.61-1-2.41-1.46C218.62,101.48,218.48,101.34,218.22,101.14Z"/></g></g></svg>