<svg xmlns="http://www.w3.org/2000/svg" viewBox="0 0 400 400"><defs><style>.cls-1{isolation:isolate;}.cls-2{fill:#33b599;}.cls-3{opacity:0.6;mix-blend-mode:soft-light;}.cls-4{fill:#fff;}</style></defs><title>Artboard 5</title><g class="cls-1"><g id="Layer_5" data-name="Layer 5"><rect class="cls-2" x="0.39" width="400" height="400"/><g class="cls-3"><path d="M137.85,119.77l9.06-16.28-8.08-4.72a14,14,0,0,1,2-.4C149,98.2,157.08,98,165.19,98a3.82,3.82,0,0,1,2.9,1.33c4.45,7.74,8.73,15.58,12.76,23.83l-8.14-4.62c-.46.64-.92,1.19-1.28,1.8-4.3,7.41-8.73,14.75-12.79,22.29-1.64,3-2.49,6.51-3.82,10.11l-17-30.12Z"/><path d="M225.77,53.13c2.84.88,4.61,2.87,6,5.43,2.23,4.07,4.68,8,7.14,12.21l8-4.62.35.34-6.72,12.11c-1.36,2.44-3,4.76-4,7.34-1.67,4.38-4.47,5.69-9.11,5.39-7.24-.45-14.52-.12-21.79-.12l-.24-.94,7.81-4.59c-2.1-3.68-4.11-7.23-6.13-10.76-2.13-3.72-4.39-7.37-6.38-11.15a27.7,27.7,0,0,0-9.06-10.63Z"/><path d="M265,121.45a40.82,40.82,0,0,1-1.64,4.41,13.57,13.57,0,0,1-11.89,8c-10.31.66-10.31.66-15.47-8.28q-5.3-9.19-10.57-18.39a8.79,8.79,0,0,1-.34-.91L251,91.44l14,26.09Z"/><path d="M220.89,127.79v9c.47.29.62.48.77.47,10.35,0,20.69.05,31-.17,2.2,0,4.38-1.17,6.93-1.9-.83,1.47-1.58,2.8-2.34,4.13-4.34,7.6-8.74,15.16-13,22.8-1.87,3.36-4.49,5-8.38,4.87-4.84-.14-9.68,0-14.83,0v9l-.54.17a19.53,19.53,0,0,1-1.16-1.57c-4.12-6.87-8.28-13.71-12.29-20.64a3.8,3.8,0,0,1-.24-3.17c4.27-7.42,8.71-14.75,13.11-22.1C220.07,128.42,220.32,128.29,220.89,127.79Z"/><path d="M197.49,137.07v29.85h-7c-5.69,0-11.37.05-17.06,0-10.67-.12-17.19-9.59-13.31-19.54A78.34,78.34,0,0,1,165,138a2.06,2.06,0,0,1,1.51-.88c9.32-.05,18.64,0,28,0Z"/><path d="M158.73,82.53c4.59-7.79,8.74-15.61,13.64-22.92,4.69-7,15.54-7.15,21.15-.54,2.56,3,4.4,6.65,6.49,10a2,2,0,0,1,0,1.74c-5.07,8.87-10.18,17.71-15.39,26.73Z"/></g><path class="cls-4" d="M132.85,114.77l9.06-16.28-8.08-4.72a14,14,0,0,1,2-.4C144,93.2,152.08,93,160.19,93a3.82,3.82,0,0,1,2.9,1.33c4.45,7.74,8.73,15.58,12.76,23.83l-8.14-4.62c-.46.64-.92,1.19-1.28,1.8-4.3,7.41-8.73,14.75-12.79,22.29-1.64,3-2.49,6.51-3.82,10.11l-17-30.12Z"/><path class="cls-4" d="M220.77,48.13c2.84.88,4.61,2.87,6,5.43,2.23,4.07,4.68,8,7.14,12.21l8-4.62.35.34-6.72,12.11c-1.36,2.44-3,4.76-4,7.34-1.67,4.38-4.47,5.69-9.11,5.39-7.24-.45-14.52-.12-21.79-.12l-.24-.94,7.81-4.59c-2.1-3.68-4.11-7.23-6.13-10.76-2.13-3.72-4.39-7.37-6.38-11.15a27.7,27.7,0,0,0-9.06-10.63Z"/><path class="cls-4" d="M260,116.45a40.82,40.82,0,0,1-1.64,4.41,13.57,13.57,0,0,1-11.89,8c-10.31.66-10.31.66-15.47-8.28q-5.3-9.19-10.57-18.39a8.79,8.79,0,0,1-.34-.91L246,86.44l14,26.09Z"/><path class="cls-4" d="M215.89,122.79v9c.47.29.62.48.77.47,10.35,0,20.69.05,31-.17,2.2,0,4.38-1.17,6.93-1.9-.83,1.47-1.58,2.8-2.34,4.13-4.34,7.6-8.74,15.16-13,22.8-1.87,3.36-4.49,5-8.38,4.87-4.84-.14-9.68,0-14.83,0v9l-.54.17a19.53,19.53,0,0,1-1.16-1.57c-4.12-6.87-8.28-13.71-12.29-20.64a3.8,3.8,0,0,1-.24-3.17c4.27-7.42,8.71-14.75,13.11-22.1C215.07,123.42,215.32,123.29,215.89,122.79Z"/><path class="cls-4" d="M192.49,132.07v29.85h-7c-5.69,0-11.37.05-17.06,0-10.67-.12-17.19-9.59-13.31-19.54A78.34,78.34,0,0,1,160,133a2.06,2.06,0,0,1,1.51-.88c9.32-.05,18.64,0,28,0Z"/><path class="cls-4" d="M153.73,77.53c4.59-7.79,8.74-15.61,13.64-22.92,4.69-7,15.54-7.15,21.15-.54,2.56,3,4.4,6.65,6.49,10a2,2,0,0,1,0,1.74c-5.07,8.87-10.18,17.71-15.39,26.73Z"/></g></g></svg>