<svg xmlns="http://www.w3.org/2000/svg" viewBox="0 0 758.42 743"><defs><style>.cls-1,.cls-18,.cls-3,.cls-8{fill:#3fc380;}.cls-1{stroke:#3fc380;stroke-width:20px;opacity:0.11;}.cls-1,.cls-12,.cls-13,.cls-17,.cls-4{stroke-miterlimit:10;}.cls-13,.cls-2{fill:#231f20;}.cls-12,.cls-4{stroke:#231f20;}.cls-18,.cls-5{font-size:27.73px;}.cls-11,.cls-12,.cls-5,.cls-6{fill:#fff;}.cls-5,.cls-6,.cls-8{font-family:Roboto-Light, Roboto, Sans-Serif;}.cls-6{font-size:23.77px;}.cls-7{letter-spacing:-0.01em;}.cls-8{font-size:14px;}.cls-9{letter-spacing:0.01em;}.cls-10{letter-spacing:-0.01em;}.cls-12{stroke-width:5px;}.cls-13,.cls-17{stroke:#fff;stroke-width:2px;}.cls-14{letter-spacing:-0.01em;}.cls-15{letter-spacing:-0.08em;}.cls-16{letter-spacing:-0.01em;}.cls-18{font-family:Roboto-Bold, Roboto;font-weight:700;}</style></defs><title>Artboard 1</title><g id="Layer_5" data-name="Layer 5"><ellipse class="cls-1" cx="382.09" cy="374.5" rx="224.33" ry="201.73"/></g><g id="Layer_1" data-name="Layer 1"><circle class="cls-2" cx="306.31" cy="278.93" r="8.78"/><rect class="cls-2" x="292.53" y="292.03" width="17.6" height="36.87" rx="5.71" ry="5.71" transform="translate(43.88 -37.26) rotate(7.63)"/><rect class="cls-2" x="280.74" y="288.86" width="6.88" height="30.16" rx="3.44" ry="3.44" transform="translate(-44.94 558.54) rotate(-84.65)"/><rect class="cls-2" x="287.16" y="330.87" width="6.88" height="21.86" rx="3.44" ry="3.44" transform="translate(-16.9 15.12) rotate(-2.9)"/><rect class="cls-2" x="292.52" y="308.95" width="6.88" height="30.16" rx="3.44" ry="3.44" transform="translate(393.5 751.91) rotate(-150.43)"/><rect class="cls-2" x="302.79" y="331.4" width="6.88" height="22.28" rx="3.44" ry="3.44" transform="translate(-122.45 177.19) rotate(-27.11)"/><rect class="cls-2" x="300.29" y="308.87" width="6.88" height="30.16" rx="3.44" ry="3.44" transform="translate(575.94 674.81) rotate(-174.65)"/><polyline class="cls-2" points="169.1 289.32 202.49 298.44 202.49 352.83 169.1 344.22"/><polyline class="cls-2" points="202.98 298.44 256.83 291.33 256.83 342.06 202.98 352.83"/><path class="cls-3" d="M228.39,314.24a.64.64,0,0,1,.16-.05c1.61-.32,3.21-.66,4.82-1a1.76,1.76,0,0,1,1.66.39,4.25,4.25,0,0,1,.43.57c.2.3.4.6.59.91.07.12.14.12.25,0s.49-.33.74-.49.25-.05.25.12a1,1,0,0,1-.08.39c-.5,1.1-1,2.19-1.52,3.28a.22.22,0,0,1-.21.17l-3.63.43a.41.41,0,0,1-.22,0c-.13-.07-.1-.25.06-.36l.64-.45c-.26-.41-.49-.82-.75-1.21-.42-.62-.85-1.25-1.3-1.84a2.28,2.28,0,0,0-1.72-.88Z"/><path class="cls-3" d="M223.91,322.17l-.74-.29c-.12,0-.29-.05-.26-.25s.21-.22.36-.26l3.51-.79a.24.24,0,0,1,.31.11c.6.89,1.21,1.76,1.82,2.65a.94.94,0,0,1,.15.28.24.24,0,0,1,0,.19.27.27,0,0,1-.21.05l-.75-.28-.7,1.41-1,2.07a2.67,2.67,0,0,0-.23,2,.54.54,0,0,1,0,.11c-.05,0-.09-.07-.11-.11-.93-1.24-1.84-2.49-2.78-3.72a1.38,1.38,0,0,1-.12-1.61l.68-1.35C223.83,322.34,223.86,322.26,223.91,322.17Z"/><path class="cls-3" d="M234.68,324.17l0,0c1.32-.29,2.65-.56,4-.87a2.83,2.83,0,0,0,1.55-1.06l.17-.19c0,.1,0,.15-.06.2-.72,1.66-1.43,3.33-2.14,5a1.55,1.55,0,0,1-1.13,1c-.51.12-1,.21-1.54.32l-.25.05c0,.31,0,.61.07.9a.28.28,0,0,1-.12.31.23.23,0,0,1-.32-.06c-.25-.28-.5-.56-.74-.85l-1.48-1.74a.22.22,0,0,1,0-.27c.51-1.12,1-2.24,1.52-3.36,0,0,0-.1.06-.12s.14-.13.2-.13.12.07.15.13a.42.42,0,0,1,0,.2C234.65,323.8,234.66,324,234.68,324.17Z"/><path class="cls-3" d="M234.28,320.1l3.48-2.84.63.73c.58.68,1.17,1.36,1.75,2.05a1.07,1.07,0,0,1,.06,1.36,2.85,2.85,0,0,1-2,1.47l-1.41.27a.24.24,0,0,1-.22-.06l-2.3-2.91Z"/><path class="cls-3" d="M229.76,329.66l-1.86.37a.84.84,0,0,1-1.1-.55,2.88,2.88,0,0,1,.11-2.33c.2-.44.43-.86.66-1.29a.45.45,0,0,1,.21-.15c1.23-.25,2.47-.49,3.7-.75.13,0,.17,0,.18.15.1,1.31.2,2.61.31,3.92,0,.16-.05.2-.19.23Z"/><path class="cls-3" d="M228.86,320.73l-3.72-1.64c.11-.22.21-.45.32-.67.45-.9.89-1.81,1.34-2.72a1.55,1.55,0,0,1,1.87-.88,2.53,2.53,0,0,1,1.21.9,13.21,13.21,0,0,1,.81,1.15.28.28,0,0,1,0,.24l-1.8,3.55Z"/><polygon points="168.93 288.11 229.07 280.56 189.89 252.36 133.39 258.98 168.93 288.11"/><polygon class="cls-4" points="230.73 280.62 254.08 289.22 256.62 290.16 230.73 280.62"/><polygon class="cls-4" points="202.22 284.56 225.58 293.16 228.12 294.1 202.22 284.56"/><circle class="cls-3" cx="273.76" cy="239.37" r="2.39"/><circle class="cls-3" cx="287.11" cy="248.49" r="2.39"/><circle class="cls-3" cx="298.9" cy="260.51" r="2.39"/><rect class="cls-3" x="216" y="216.28" width="48.8" height="32.92" rx="12" ry="12"/><text class="cls-5" transform="translate(233.85 243.34)">?</text><rect class="cls-3" x="275.62" y="284.04" width="10.47" height="14.27" transform="matrix(1, 0.09, -0.09, 1, 28.38, -24.92)"/><rect class="cls-3" x="136.38" y="124.73" width="199.73" height="32.44"/><text class="cls-6" transform="translate(147.02 147.76)">Rec<tspan class="cls-7" x="40.84" y="0">y</tspan><tspan x="52.6" y="0">cling Center</tspan></text><text class="cls-8" transform="translate(198.07 176.5)">On-site Help</text></g><g id="Layer_2" data-name="Layer 2"><rect class="cls-3" x="423.69" y="124.73" width="199.73" height="32.44"/><text class="cls-6" transform="translate(486.51 147.76)">Libra<tspan class="cls-9" x="53.68" y="0">r</tspan><tspan x="62.17" y="0">y</tspan></text><text class="cls-8" transform="translate(467.46 176.5)"><tspan class="cls-10">E</tspan><tspan x="8.03" y="0">ducational Kiosk</tspan></text><polygon class="cls-11" points="509.13 250.35 510.66 355.08 510.65 355.09 509.12 250.35 509.13 250.35"/><path class="cls-2" d="M506.63,250.35,508,341.94l.19,13.14,1.84-2.41h0l3.16,2.41-1.34-91.6-.19-13.14-1.83,2.41h0c3.14-.72,1.81-5.54-1.33-4.82h0a2.53,2.53,0,0,0-1.84,2.41L508,341.94l.19,13.15a2.54,2.54,0,0,0,3.17,2.41h0a2.51,2.51,0,0,0,1.84-2.41l-1.34-91.59-.19-13.14C511.58,247.13,506.58,247.12,506.63,250.35Z"/><path class="cls-12" d="M530.29,313.61l-39.59,9.05c-4.26,1-7.81-2.14-7.88-6.93l-1-66.05c-.07-4.79,3.37-9.5,7.63-10.48l39.59-9c4.27-1,7.81,2.15,7.88,6.94l1,66C538,307.92,534.56,312.64,530.29,313.61Z"/><path class="cls-3" d="M506.49,262.3l.23-.09c2.25-.51,4.5-1,6.74-1.53a2,2,0,0,1,2.22.63,5.57,5.57,0,0,1,.52.93c.24.49.47,1,.69,1.48.08.19.17.19.35,0,.35-.27.71-.54,1.07-.79s.36-.09.33.19a1.83,1.83,0,0,1-.16.64c-.83,1.77-1.68,3.53-2.51,5.3-.08.17-.15.26-.32.28l-5,.69a.47.47,0,0,1-.29,0c-.18-.1-.11-.4.12-.58s.61-.47.94-.72c-.3-.68-.57-1.34-.87-2-.52-1-1-2.09-1.6-3.08a2.75,2.75,0,0,0-2.19-1.35Z"/><path class="cls-3" d="M499.31,275.14c-.34-.16-.67-.3-1-.46-.16-.08-.4-.09-.33-.41s.32-.36.53-.42c1.64-.43,3.28-.84,4.93-1.28a.34.34,0,0,1,.4.18c.71,1.44,1.44,2.87,2.16,4.3a2.38,2.38,0,0,1,.17.47.44.44,0,0,1-.08.3.31.31,0,0,1-.28.08c-.33-.14-.65-.3-1-.46l-1.16,2.29c-.45.9-.9,1.8-1.36,2.7a8.65,8.65,0,0,0-.91,4,.67.67,0,0,1,0,.17c-.12-.15-.17-.16-.19-.35a6.79,6.79,0,0,0-2.07-4.53c-1.49-1.23-2-2.42-1.16-4,.38-.73.74-1.45,1.11-2.18Z"/><path class="cls-3" d="M513.82,278.42l.07,0c1.89-.47,3.78-.91,5.66-1.41a4.08,4.08,0,0,0,2.13-1.64c.08-.11.14-.18.3-.37a1.43,1.43,0,0,1-.26.57,17.77,17.77,0,0,0-3.09,6.71c-.32,1.52-1,2.43-2,2.7-.72.19-1.44.34-2.16.51l-.35.08c0,.51,0,1,0,1.47a.55.55,0,0,1-.2.5.27.27,0,0,1-.43-.1c-.32-.45-.62-.91-.92-1.38-.6-.95-1.2-1.9-1.81-2.84a.45.45,0,0,1,0-.42l2.52-5.45a.63.63,0,0,1,.1-.2c.09-.09.2-.2.29-.21s.15.12.18.22a.83.83,0,0,1,0,.32C513.83,277.82,513.83,278.12,513.82,278.42Z"/><path class="cls-3" d="M513.81,271.82l5.15-4.59h0l2.92,4.58a2,2,0,0,1-.07,2,4.59,4.59,0,0,1-2.94,2.49c-.68.13-1.35.31-2,.45a.21.21,0,0,1-.24-.11q-1.39-2.36-2.77-4.73S513.83,271.88,513.81,271.82Z"/><path class="cls-3" d="M506.36,287.31l-2.61.6a1.15,1.15,0,0,1-1.42-.89,5.47,5.47,0,0,1,.44-3.79c.34-.7.7-1.38,1.07-2.07a.66.66,0,0,1,.32-.26l5.17-1.2c.19-.05.23,0,.23.23l-.09,6.37c0,.25-.09.32-.28.36Z"/><path class="cls-3" d="M506.29,272.82l-4.89-2.66h0c.91-1.83,1.82-3.65,2.72-5.48a2.33,2.33,0,0,1,2.57-1.47,3.09,3.09,0,0,1,1.67,1.5c.35.59.65,1.23,1,1.87a.5.5,0,0,1,0,.41c-1,1.91-1.94,3.82-2.91,5.73C506.36,272.74,506.33,272.76,506.29,272.82Z"/><path class="cls-2" d="M503.18,309.78l-9.93,2.27a1.48,1.48,0,0,1-1.79-1.58l-.07-4.77a2.44,2.44,0,0,1,1.73-2.38l9.93-2.27a1.48,1.48,0,0,1,1.79,1.58l.07,4.76A2.45,2.45,0,0,1,503.18,309.78Z"/><path class="cls-2" d="M526.55,304.44l-9.93,2.27a1.48,1.48,0,0,1-1.79-1.58l-.07-4.77a2.46,2.46,0,0,1,1.73-2.39l9.93-2.26a1.47,1.47,0,0,1,1.79,1.58l.07,4.76A2.46,2.46,0,0,1,526.55,304.44Z"/><path class="cls-4" d="M532.36,354.18l-43.28,9.9a1.85,1.85,0,0,1-2.24-2v-.41a3.05,3.05,0,0,1,2.16-3l43.28-9.9a1.85,1.85,0,0,1,2.24,2v.41A3.05,3.05,0,0,1,532.36,354.18Z"/><circle class="cls-2" cx="556.93" cy="284.85" r="9.36"/><rect class="cls-13" x="537.94" y="292.42" width="7.34" height="32.16" rx="3.44" ry="3.44" transform="translate(59.66 703.76) rotate(-69.02)"/><rect class="cls-2" x="547.19" y="299.22" width="18.76" height="39.31" rx="5.71" ry="5.71" transform="translate(-4.09 7.25) rotate(-0.74)"/><rect class="cls-2" x="545.31" y="342.34" width="7.34" height="23.3" rx="3.44" ry="3.44" transform="translate(-11.43 18.39) rotate(-1.9)"/><rect class="cls-2" x="549.59" y="318.49" width="7.34" height="32.16" rx="3.44" ry="3.44" transform="translate(938.05 854.14) rotate(-157.69)"/><rect class="cls-2" x="560.91" y="341.51" width="7.34" height="23.76" rx="3.44" ry="3.44" transform="translate(-70.12 151.42) rotate(-14.39)"/><rect class="cls-2" x="556.96" y="316.59" width="7.34" height="32.16" rx="3.44" ry="3.44" transform="translate(1157.67 594.44) rotate(172.99)"/></g><g id="Layer_3" data-name="Layer 3"><rect class="cls-3" x="140.54" y="426.49" width="199.73" height="32.44"/><text class="cls-6" transform="translate(203.71 449.52)">School</text><text class="cls-8" transform="translate(176.7 478.26)">Rec<tspan class="cls-14" x="24.05" y="0">y</tspan><tspan x="30.97" y="0">cling </tspan><tspan class="cls-10" x="64.65" y="0">E</tspan><tspan x="72.68" y="0">ducation</tspan></text><polygon class="cls-11" points="253.82 568.95 211.26 607.91 211.26 607.91 253.82 568.95 253.82 568.95"/><path class="cls-2" d="M252.05,567.18l-42.56,39a2.5,2.5,0,0,0,0,3.53h0a2.55,2.55,0,0,0,3.53,0l42.56-39a2.5,2.5,0,0,0,0-3.53h0c-2.37-2.17-5.91,1.36-3.53,3.53h0v-3.53L209.5,606.14H213v3.53l42.56-39C258,568.54,254.42,565,252.05,567.18Z"/><rect class="cls-11" x="235.6" y="497.3" width="0.01" height="110.94"/><path class="cls-2" d="M233.11,497.3V608.24l2.5-2.5h0l2.5,2.5V497.3l-2.5,2.5h0c3.21,0,3.22-5,0-5h0a2.54,2.54,0,0,0-2.5,2.5V608.24a2.53,2.53,0,0,0,2.5,2.5h0a2.54,2.54,0,0,0,2.5-2.5V497.3C238.11,494.08,233.11,494.08,233.11,497.3Z"/><polygon class="cls-11" points="260.19 607.56 216.9 569.29 216.89 569.3 260.18 607.57 260.19 607.56"/><path class="cls-2" d="M262,605.79l-43.3-38.27a2.55,2.55,0,0,0-3.53,0h0a2.51,2.51,0,0,0,0,3.53l43.3,38.28a2.56,2.56,0,0,0,3.53,0h0c2.34-2.22-1.2-5.75-3.54-3.54H262l-43.29-38.27v3.53h-3.53l43.29,38.27C260.83,611.45,264.38,607.93,262,605.79Z"/><rect class="cls-12" x="182.34" y="510.12" width="108.71" height="72.95" rx="8.23" ry="8.23"/><path class="cls-3" d="M232.25,529.68l.31,0c3,0,5.95,0,8.93,0A3.43,3.43,0,0,1,244.4,531a8.18,8.18,0,0,1,.66,1.24c.31.64.61,1.27.89,1.92.11.25.23.27.46.16.47-.23,1-.45,1.43-.65.31-.12.47,0,.44.31a1.71,1.71,0,0,1-.24.71c-1.13,1.86-2.28,3.71-3.41,5.56a.43.43,0,0,1-.42.25l-6.66-.55a.72.72,0,0,1-.39-.12c-.23-.17-.14-.5.17-.66l1.25-.59c-.38-.88-.72-1.73-1.11-2.55-.66-1.36-1.31-2.73-2.05-4a4.72,4.72,0,0,0-2.86-2.17Z"/><path class="cls-3" d="M222.53,542.84c-.44-.27-.87-.53-1.28-.8-.21-.14-.52-.22-.43-.57s.42-.35.7-.35c2.18-.06,4.36-.11,6.53-.18a.55.55,0,0,1,.53.32c.92,1.88,1.85,3.75,2.77,5.63a2.51,2.51,0,0,1,.21.6.43.43,0,0,1-.1.34.42.42,0,0,1-.38,0c-.43-.24-.85-.52-1.3-.8l-1.57,2.38c-.61.94-1.22,1.88-1.84,2.81a8,8,0,0,0-1.28,4.42,1.35,1.35,0,0,1,0,.21c-.15-.21-.21-.23-.23-.47a9.43,9.43,0,0,0-2.66-5.88c-1.94-1.85-2.51-3.36-1.44-5l1.5-2.27C222.34,543.14,222.43,543,222.53,542.84Z"/><path class="cls-3" d="M241.62,550.59l.08.06c2.51,0,5,0,7.51-.14a4.2,4.2,0,0,0,2.83-1.35,4.9,4.9,0,0,1,.41-.35,1.26,1.26,0,0,1-.36.59,15.83,15.83,0,0,0-4.2,7.06c-.45,1.71-1.36,2.59-2.73,2.63-.95,0-1.91,0-2.86,0h-.46c0,.59,0,1.15-.05,1.71,0,.23,0,.44-.27.54a.45.45,0,0,1-.57-.23c-.4-.62-.79-1.24-1.18-1.87-.78-1.28-1.55-2.56-2.33-3.83a.45.45,0,0,1,0-.5q1.73-2.85,3.43-5.72c0-.07.07-.17.13-.21a.68.68,0,0,1,.4-.16c.09,0,.19.17.23.29a1,1,0,0,1,0,.39C241.65,549.89,241.63,550.25,241.62,550.59Z"/><path class="cls-3" d="M241.73,542.84l6.89-4h0c1.25,2.06,2.52,4.11,3.76,6.17a2.08,2.08,0,0,1-.12,2.35,4.69,4.69,0,0,1-3.94,2.14c-.89,0-1.78,0-2.67,0a.41.41,0,0,1-.33-.2c-1.2-2.09-2.38-4.2-3.56-6.31C241.76,543,241.76,542.91,241.73,542.84Z"/><path class="cls-3" d="M231.6,559h-3.45a1.9,1.9,0,0,1-1.86-1.43,5.41,5.41,0,0,1,.65-4.34c.46-.73,1-1.44,1.46-2.14a.57.57,0,0,1,.42-.22l6.84,0c.26,0,.32.1.31.34q-.14,3.72-.24,7.46c0,.3-.13.35-.38.35Z"/><path class="cls-3" d="M231.79,542l-6.41-4.44h0l3.69-5.72a2.7,2.7,0,0,1,3.42-1,5.22,5.22,0,0,1,2.17,2.22c.46.79.84,1.62,1.23,2.45a.54.54,0,0,1,0,.48q-2,3-3.95,6Z"/><rect class="cls-11" x="170.39" y="583.09" width="131.07" height="0.01"/><path class="cls-2" d="M301.46,580.6H170.39l2.5,2.5h0l-2.5,2.5H301.46l-2.5-2.5h0c0,3.22,5,3.22,5,0h0a2.53,2.53,0,0,0-2.5-2.5H170.39a2.53,2.53,0,0,0-2.5,2.5h0a2.54,2.54,0,0,0,2.5,2.5H301.46C304.68,585.6,304.69,580.6,301.46,580.6Z"/><rect class="cls-2" x="198.72" y="571.73" width="21.13" height="9.01" rx="2.22" ry="2.22"/><circle class="cls-13" cx="294.61" cy="581.55" r="9.36"/><rect class="cls-2" x="284.83" y="593.93" width="18.76" height="31.76" rx="5.71" ry="5.71" transform="translate(-7.89 3.87) rotate(-0.74)"/><rect class="cls-2" x="281.94" y="589.54" width="7.34" height="32.16" rx="3.44" ry="3.44" transform="translate(-382.13 655.48) rotate(-69.02)"/><circle class="cls-13" cx="178.61" cy="581.55" r="9.36"/><rect class="cls-2" x="169.63" y="593.93" width="18.76" height="31.76" rx="5.71" ry="5.71" transform="translate(350.1 1221.9) rotate(-179.26)"/><rect class="cls-2" x="183.95" y="589.54" width="7.34" height="32.16" rx="3.44" ry="3.44" transform="translate(-310.7 997.62) rotate(-110.98)"/></g><g id="Layer_4" data-name="Layer 4"><rect class="cls-3" x="423.69" y="426.49" width="199.73" height="32.44"/><text class="cls-6" transform="translate(482.23 449.52)">Remote</text><text class="cls-8" transform="translate(461.06 478.26)">Online &amp; Phone <tspan class="cls-15" x="99.1" y="0">F</tspan><tspan class="cls-16" x="106.08" y="0">A</tspan><tspan x="115.26" y="0">Q</tspan></text><rect class="cls-12" x="461.6" y="521.5" width="97.62" height="65.51" rx="8.23" ry="8.23"/><path class="cls-3" d="M506.63,539.76l.27,0c2.68,0,5.35,0,8,0a3.07,3.07,0,0,1,2.62,1.2,6.9,6.9,0,0,1,.59,1.11c.28.57.55,1.14.8,1.72.1.23.2.25.41.14.42-.2.85-.4,1.29-.58.27-.11.42,0,.39.28a1.79,1.79,0,0,1-.21.64c-1,1.67-2,3.33-3.07,5a.34.34,0,0,1-.37.22l-6-.49a.69.69,0,0,1-.35-.11c-.2-.15-.12-.44.16-.58s.73-.36,1.12-.54c-.34-.79-.64-1.55-1-2.29-.59-1.22-1.18-2.45-1.83-3.63a4.21,4.21,0,0,0-2.58-2Z"/><path class="cls-3" d="M497.9,551.59c-.4-.25-.78-.48-1.16-.73-.18-.12-.46-.19-.37-.5s.37-.32.62-.32l5.87-.16a.48.48,0,0,1,.47.29c.82,1.69,1.66,3.37,2.48,5.05a2.06,2.06,0,0,1,.2.54.38.38,0,0,1-.09.3.39.39,0,0,1-.35,0c-.38-.22-.76-.47-1.16-.72-.48.73-1,1.43-1.41,2.14L501.35,560a7.11,7.11,0,0,0-1.15,4v.19c-.14-.19-.19-.21-.21-.42a8.45,8.45,0,0,0-2.39-5.29c-1.74-1.66-2.26-3-1.29-4.45.45-.68.9-1.36,1.34-2Z"/><path class="cls-3" d="M515,558.55l.08.05c2.24,0,4.49-.05,6.74-.13a3.73,3.73,0,0,0,2.54-1.21c.1-.1.18-.16.37-.32a1.25,1.25,0,0,1-.32.54,14.14,14.14,0,0,0-3.78,6.34c-.4,1.53-1.22,2.32-2.45,2.36-.85,0-1.71,0-2.57,0h-.41c0,.54,0,1,0,1.54,0,.2,0,.39-.24.48a.4.4,0,0,1-.51-.2c-.36-.56-.71-1.12-1.06-1.68-.7-1.15-1.39-2.3-2.1-3.44a.43.43,0,0,1,0-.45l3.08-5.13c0-.07.06-.16.12-.19s.24-.17.35-.15.17.16.21.27a1,1,0,0,1,0,.35C515.07,557.92,515.05,558.24,515,558.55Z"/><path class="cls-3" d="M515.14,551.58l6.19-3.6h0c1.12,1.85,2.27,3.69,3.38,5.55a1.87,1.87,0,0,1-.11,2.11,4.18,4.18,0,0,1-3.53,1.91c-.8,0-1.61,0-2.41,0a.32.32,0,0,1-.29-.17q-1.61-2.82-3.2-5.66Z"/><path class="cls-3" d="M506.05,566.13h-3.11a1.71,1.71,0,0,1-1.67-1.29,4.91,4.91,0,0,1,.59-3.89c.41-.66.86-1.29,1.31-1.92a.49.49,0,0,1,.37-.2l6.15,0c.23,0,.28.08.28.3-.08,2.23-.16,4.46-.22,6.7,0,.27-.11.31-.34.31Z"/><path class="cls-3" d="M506.21,550.83l-5.75-4h0l3.31-5.13a2.42,2.42,0,0,1,3.07-.93,4.62,4.62,0,0,1,2,2c.41.71.75,1.46,1.1,2.2a.47.47,0,0,1,0,.43c-1.18,1.79-2.36,3.56-3.55,5.34Z"/><rect class="cls-4" x="453.84" y="591.41" width="113.15" height="10.18" rx="3.77" ry="3.77"/><rect class="cls-11" x="503.45" y="590.81" width="13.92" height="4.04" rx="1.41" ry="1.41"/><rect class="cls-17" x="547.2" y="559.84" width="43.11" height="64.93" rx="7.82" ry="7.82" transform="translate(77.55 -65.74) rotate(7.1)"/><rect class="cls-12" x="552.31" y="563.97" width="33.31" height="53.26" rx="3.47" ry="3.47" transform="translate(77.34 -65.78) rotate(7.1)"/><text class="cls-18" transform="translate(560.76 598.12) rotate(7.84)">?</text></g></svg>
