<svg xmlns="http://www.w3.org/2000/svg" xmlns:xlink="http://www.w3.org/1999/xlink" viewBox="2706.663 16220.868 507.259 198.563">
  <defs>
    <style>
      .cls-1 {
        fill: #51a6df;
      }

      .cls-1, .cls-3, .cls-4, .cls-5, .cls-6, .cls-8 {
        fill-rule: evenodd;
      }

      .cls-2 {
        fill: #fff;
      }

      .cls-3 {
        fill: rgba(0,0,0,0);
      }

      .cls-3, .cls-4 {
        stroke: #aaa;
        stroke-width: 0.5px;
      }

      .cls-4 {
        fill: none;
        stroke-linejoin: round;
        stroke-miterlimit: 10;
      }

      .cls-5 {
        fill: rgba(81,166,223,0.8);
      }

      .cls-6 {
        fill: rgba(81,166,223,0.6);
      }

      .cls-7 {
        fill: #0a231e;
      }

      .cls-8 {
        fill: #aaa;
      }

      .cls-9 {
        fill: #888;
      }

      .cls-10 {
        filter: url(#Path_122);
      }

      .cls-11 {
        filter: url(#Path_102);
      }

      .cls-12 {
        filter: url(#Path_98);
      }

      .cls-13 {
        filter: url(#Path_100);
      }

      .cls-14 {
        filter: url(#Path_96);
      }
    </style>
    <filter id="Path_96" x="2892" y="16220.868" width="108.33" height="33.176" filterUnits="userSpaceOnUse">
      <feOffset dy="1" input="SourceAlpha"/>
      <feGaussianBlur stdDeviation="1" result="blur"/>
      <feFlood flood-opacity="0.161"/>
      <feComposite operator="in" in2="blur"/>
      <feComposite in="SourceGraphic"/>
    </filter>
    <filter id="Path_100" x="2766" y="16282" width="100.463" height="33.177" filterUnits="userSpaceOnUse">
      <feOffset dy="1" input="SourceAlpha"/>
      <feGaussianBlur stdDeviation="1" result="blur-2"/>
      <feFlood flood-opacity="0.161"/>
      <feComposite operator="in" in2="blur-2"/>
      <feComposite in="SourceGraphic"/>
    </filter>
    <filter id="Path_98" x="3031" y="16281.999" width="100.463" height="33.177" filterUnits="userSpaceOnUse">
      <feOffset dy="1" input="SourceAlpha"/>
      <feGaussianBlur stdDeviation="1" result="blur-3"/>
      <feFlood flood-opacity="0.161"/>
      <feComposite operator="in" in2="blur-3"/>
      <feComposite in="SourceGraphic"/>
    </filter>
    <filter id="Path_102" x="2778.271" y="16340.525" width="75.94" height="33.176" filterUnits="userSpaceOnUse">
      <feOffset dy="1" input="SourceAlpha"/>
      <feGaussianBlur stdDeviation="1" result="blur-4"/>
      <feFlood flood-opacity="0.161"/>
      <feComposite operator="in" in2="blur-4"/>
      <feComposite in="SourceGraphic"/>
    </filter>
    <filter id="Path_122" x="2943.787" y="16340.524" width="70.044" height="33.176" filterUnits="userSpaceOnUse">
      <feOffset dy="1" input="SourceAlpha"/>
      <feGaussianBlur stdDeviation="1" result="blur-5"/>
      <feFlood flood-opacity="0.161"/>
      <feComposite operator="in" in2="blur-5"/>
      <feComposite in="SourceGraphic"/>
    </filter>
  </defs>
  <g id="iuos_tree-02" transform="translate(2648 16066)">
    <g id="Group_128" data-name="Group 128" transform="translate(-40.346)">
      <g class="cls-14" transform="matrix(1, 0, 0, 1, -2607.65, -16066)">
        <path id="Path_96-2" data-name="Path 96" class="cls-1" d="M449.587,170.456h0a13.588,13.588,0,0,1,13.588-13.588h75.154a13.588,13.588,0,0,1,13.588,13.588h0a13.588,13.588,0,0,1-13.588,13.588H463.175a13.588,13.588,0,0,1-13.588-13.588Z" transform="translate(2445.41 16066)"/>
      </g>
      <path id="Path_97" data-name="Path 97" class="cls-2" d="M481.5,181.4l-1.1-4.287-1.088,4.287h-1.408l-1.792-6.243h1.49l1.1,4.515,1.188-4.515h1.033l1.179,4.515,1.088-4.515h1.5l-1.782,6.243Zm6.5,0v-.466a1.775,1.775,0,0,1-1.426.576,1.607,1.607,0,0,1-1.115-.411,1.41,1.41,0,0,1-.457-1.088,1.356,1.356,0,0,1,.43-1.051,1.625,1.625,0,0,1,1.143-.4,1.752,1.752,0,0,1,1.426.548v-.6a.644.644,0,0,0-.274-.548,1.116,1.116,0,0,0-.713-.21,1.867,1.867,0,0,0-1.316.53l-.457-.8a2.935,2.935,0,0,1,1.974-.713,2.168,2.168,0,0,1,1.472.448,1.581,1.581,0,0,1,.512,1.271V181.4Zm-.951-.695a1.107,1.107,0,0,0,.951-.393v-.558a1.107,1.107,0,0,0-.951-.393.985.985,0,0,0-.6.183.577.577,0,0,0-.247.5.559.559,0,0,0,.247.484A1.022,1.022,0,0,0,487.048,180.709Zm4.954.8a3.506,3.506,0,0,1-1.133-.183,2.476,2.476,0,0,1-.887-.521l.512-.832a2.347,2.347,0,0,0,.722.439,2.232,2.232,0,0,0,.841.183q.759,0,.759-.484a.3.3,0,0,0-.2-.283,2.489,2.489,0,0,0-.494-.155l-.649-.137q-1.344-.292-1.344-1.344a1.224,1.224,0,0,1,.521-1.024,2.121,2.121,0,0,1,1.334-.4,2.8,2.8,0,0,1,1.819.622l-.475.814a1.623,1.623,0,0,0-.558-.375,1.923,1.923,0,0,0-.777-.155.881.881,0,0,0-.521.137.376.376,0,0,0-.192.32.266.266,0,0,0,.192.247,3.029,3.029,0,0,0,.494.146q.3.064.649.146a2.364,2.364,0,0,1,.649.238,1.345,1.345,0,0,1,.494.43,1.185,1.185,0,0,1,.2.731,1.252,1.252,0,0,1-.539,1.051A2.325,2.325,0,0,1,492,181.513Zm4.346,0q-1.28,0-1.28-1.234v-2.358h-.75v-1.042h.75v-1.234h1.2v1.234h.923v1.042h-.923v2.038a.592.592,0,0,0,.11.366.365.365,0,0,0,.3.137.54.54,0,0,0,.411-.137l.256.9A1.452,1.452,0,0,1,496.348,181.513Zm3.776,0a2.4,2.4,0,0,1-1.746-.658,2.5,2.5,0,0,1,0-3.4,2.237,2.237,0,0,1,1.673-.686,2.1,2.1,0,0,1,1.627.695,2.533,2.533,0,0,1,.64,1.8v.256h-3.364a1.2,1.2,0,0,0,.384.74,1.3,1.3,0,0,0,.914.311,1.967,1.967,0,0,0,.631-.119,1.605,1.605,0,0,0,.576-.329l.53.768a2.336,2.336,0,0,1-.841.466A3.39,3.39,0,0,1,500.124,181.513Zm1.042-2.8a1,1,0,0,0-.338-.722,1.131,1.131,0,0,0-.777-.274,1.077,1.077,0,0,0-.768.283,1.106,1.106,0,0,0-.347.713ZM505.6,181.4v-6.243h4.415v1.17h-3.089v1.316h3.025v1.17h-3.025v1.417h3.089v1.17Zm8.528,0v-.576a1.722,1.722,0,0,1-1.389.686,1.837,1.837,0,0,1-1.453-.64,2.981,2.981,0,0,1,0-3.446,1.814,1.814,0,0,1,1.453-.658,1.682,1.682,0,0,1,1.389.695v-2.3h1.207V181.4h-1.207Zm-1.024-.941a1.261,1.261,0,0,0,.585-.146,1.073,1.073,0,0,0,.439-.375v-1.6a1.1,1.1,0,0,0-.439-.366,1.26,1.26,0,0,0-.585-.146,1.043,1.043,0,0,0-.823.366,1.391,1.391,0,0,0-.32.951,1.468,1.468,0,0,0,.3.951A1.047,1.047,0,0,0,513.107,180.462Zm6.454.941v-.567a2.028,2.028,0,0,1-1.59.676,1.462,1.462,0,0,1-1.106-.375,1.5,1.5,0,0,1-.347-1.042v-3.217h1.188v2.742a.739.739,0,0,0,.832.841,1.273,1.273,0,0,0,1.024-.521v-3.062h1.188V181.4Zm4.478.11a2.373,2.373,0,1,1,0-4.744,2.178,2.178,0,0,1,1.124.256,1.965,1.965,0,0,1,.658.558l-.768.731a1.087,1.087,0,0,0-.96-.484,1.169,1.169,0,0,0-.887.366,1.312,1.312,0,0,0-.338.941,1.357,1.357,0,0,0,.338.96,1.169,1.169,0,0,0,.887.366,1.11,1.11,0,0,0,.96-.494l.768.722a2,2,0,0,1-.658.576A2.244,2.244,0,0,1,524.039,181.513Zm5.274-.11v-.466a1.775,1.775,0,0,1-1.426.576,1.607,1.607,0,0,1-1.115-.411,1.41,1.41,0,0,1-.457-1.088,1.356,1.356,0,0,1,.43-1.051,1.625,1.625,0,0,1,1.143-.4,1.752,1.752,0,0,1,1.426.548v-.6a.644.644,0,0,0-.274-.548,1.116,1.116,0,0,0-.713-.21,1.867,1.867,0,0,0-1.316.53l-.457-.8a2.935,2.935,0,0,1,1.974-.713,2.168,2.168,0,0,1,1.472.448,1.581,1.581,0,0,1,.512,1.271V181.4Zm-.951-.695a1.107,1.107,0,0,0,.951-.393v-.558a1.107,1.107,0,0,0-.951-.393.985.985,0,0,0-.6.183.577.577,0,0,0-.247.5.559.559,0,0,0,.247.484A1.022,1.022,0,0,0,528.362,180.709Zm4.836.8q-1.28,0-1.28-1.234v-2.358h-.75v-1.042h.75v-1.234h1.2v1.234h.923v1.042h-.923v2.038a.592.592,0,0,0,.11.366.365.365,0,0,0,.3.137.54.54,0,0,0,.411-.137l.256.9A1.452,1.452,0,0,1,533.2,181.513Zm2.24-5.119a.7.7,0,0,1-.713-.713.656.656,0,0,1,.21-.494.7.7,0,0,1,.5-.2.682.682,0,0,1,.5.2.656.656,0,0,1,.21.494.7.7,0,0,1-.21.512A.682.682,0,0,1,535.438,176.395Zm-.585,5.009v-4.524h1.188V181.4Zm4.461.11a2.285,2.285,0,0,1-2.386-2.376,2.391,2.391,0,1,1,4.1,1.709A2.326,2.326,0,0,1,539.314,181.513Zm0-1.051a1.053,1.053,0,0,0,.832-.366,1.4,1.4,0,0,0,.329-.96,1.362,1.362,0,0,0-.329-.932,1.042,1.042,0,0,0-.832-.375,1.061,1.061,0,0,0-.823.366,1.333,1.333,0,0,0-.329.941,1.394,1.394,0,0,0,.329.969A1.073,1.073,0,0,0,539.314,180.462Zm6.323.941v-2.733a.739.739,0,0,0-.832-.841,1.2,1.2,0,0,0-1.024.53V181.4h-1.188v-4.524h1.188v.594a1.975,1.975,0,0,1,.612-.484,2,2,0,0,1,.969-.219,1.422,1.422,0,0,1,1.106.393,1.484,1.484,0,0,1,.357,1.051v3.19Z" transform="translate(-173.251 -7.52)"/>
    </g>
    <path id="Path_113" data-name="Path 113" class="cls-3" d="M373.518,237.13v-16.9H503.8V203.321" transform="translate(-205.286 -19.279)"/>
    <path id="Path_112" data-name="Path 112" class="cls-4" d="M537.052,203.324v16.9H672.72v16.906" transform="translate(-238.541 -19.28)"/>
    <g id="Group_129" data-name="Group 129" transform="translate(-74.616 0.149)">
      <g class="cls-13" transform="matrix(1, 0, 0, 1, -2573.38, -16066.15)">
        <path id="Path_100-2" data-name="Path 100" class="cls-5" d="M292.778,274.7h0a13.588,13.588,0,0,1,13.588-13.588h67.287A13.588,13.588,0,0,1,387.241,274.7h0a13.588,13.588,0,0,1-13.588,13.588H306.366A13.588,13.588,0,0,1,292.778,274.7Z" transform="translate(2476.22 16022.88)"/>
      </g>
      <path id="Path_101" data-name="Path 101" class="cls-2" d="M345.124,285.652l-.384-1.06h-2.678l-.393,1.06h-1.517l2.413-6.243h1.664l2.413,6.243Zm-1.728-4.918-.969,2.687h1.947Zm5.9,5.027a2.373,2.373,0,1,1,0-4.744,2.178,2.178,0,0,1,1.124.256,1.965,1.965,0,0,1,.658.558l-.768.731a1.087,1.087,0,0,0-.96-.484,1.169,1.169,0,0,0-.887.366,1.311,1.311,0,0,0-.338.941,1.357,1.357,0,0,0,.338.96,1.169,1.169,0,0,0,.887.366,1.11,1.11,0,0,0,.96-.494l.768.722a2,2,0,0,1-.658.576A2.243,2.243,0,0,1,349.3,285.761Zm4.076,0q-1.28,0-1.28-1.234v-2.358h-.75v-1.042h.75v-1.234h1.2v1.234h.923v1.042h-.923v2.038a.592.592,0,0,0,.11.366.365.365,0,0,0,.3.137.54.54,0,0,0,.411-.137l.256.9A1.452,1.452,0,0,1,353.373,285.761Zm2.24-5.119a.7.7,0,0,1-.713-.713.656.656,0,0,1,.21-.494.7.7,0,0,1,.5-.2.682.682,0,0,1,.5.2.656.656,0,0,1,.21.494.7.7,0,0,1-.21.512A.682.682,0,0,1,355.613,280.643Zm-.585,5.009v-4.524h1.188v4.524Zm3.538,0-1.819-4.524h1.271l1.179,3.144,1.179-3.144h1.28l-1.81,4.524Zm4.217-5.009a.7.7,0,0,1-.713-.713.656.656,0,0,1,.21-.494.7.7,0,0,1,.5-.2.682.682,0,0,1,.5.2.656.656,0,0,1,.21.494.7.7,0,0,1-.21.512A.682.682,0,0,1,362.782,280.643Zm-.585,5.009v-4.524h1.188v4.524Zm3.876.11q-1.28,0-1.28-1.234v-2.358h-.749v-1.042h.749v-1.234h1.2v1.234h.923v1.042h-.923v2.038a.592.592,0,0,0,.11.366.365.365,0,0,0,.3.137.54.54,0,0,0,.411-.137l.256.9A1.452,1.452,0,0,1,366.074,285.761Zm2.24-5.119a.7.7,0,0,1-.713-.713.656.656,0,0,1,.21-.494.7.7,0,0,1,.5-.2.682.682,0,0,1,.5.2.656.656,0,0,1,.21.494.7.7,0,0,1-.21.512A.682.682,0,0,1,368.314,280.643Zm-.585,5.009v-4.524h1.188v4.524Zm4.489.11a2.4,2.4,0,0,1-1.746-.658,2.5,2.5,0,0,1,0-3.4,2.238,2.238,0,0,1,1.673-.685,2.1,2.1,0,0,1,1.627.695,2.533,2.533,0,0,1,.64,1.8v.256h-3.364a1.2,1.2,0,0,0,.384.74,1.3,1.3,0,0,0,.914.311,1.967,1.967,0,0,0,.631-.119,1.6,1.6,0,0,0,.576-.329l.53.768a2.336,2.336,0,0,1-.841.466A3.389,3.389,0,0,1,372.218,285.761Zm1.042-2.8a1,1,0,0,0-.338-.722,1.131,1.131,0,0,0-.777-.274,1.077,1.077,0,0,0-.768.283,1.106,1.106,0,0,0-.347.713Zm3.64,2.8a3.507,3.507,0,0,1-1.133-.183,2.476,2.476,0,0,1-.887-.521l.512-.832a2.348,2.348,0,0,0,.722.439,2.231,2.231,0,0,0,.841.183q.759,0,.759-.484a.3.3,0,0,0-.2-.283,2.486,2.486,0,0,0-.494-.155l-.649-.137q-1.344-.293-1.344-1.344a1.224,1.224,0,0,1,.521-1.024,2.121,2.121,0,0,1,1.334-.4,2.8,2.8,0,0,1,1.819.622l-.475.813a1.624,1.624,0,0,0-.558-.375,1.923,1.923,0,0,0-.777-.155.88.88,0,0,0-.521.137.376.376,0,0,0-.192.32.266.266,0,0,0,.192.247,3.033,3.033,0,0,0,.494.146q.3.064.649.146a2.364,2.364,0,0,1,.649.238,1.345,1.345,0,0,1,.494.43,1.185,1.185,0,0,1,.2.731,1.252,1.252,0,0,1-.539,1.051A2.325,2.325,0,0,1,376.9,285.761Z" transform="translate(-116.823 -50.785)"/>
    </g>
    <g id="Group_130" data-name="Group 130" transform="translate(-0.944 0.149)">
      <g class="cls-12" transform="matrix(1, 0, 0, 1, -2647.06, -16066.15)">
        <path id="Path_98-2" data-name="Path 98" class="cls-5" d="M619.846,274.7h0a13.588,13.588,0,0,1,13.588-13.588h67.287A13.588,13.588,0,0,1,714.309,274.7h0a13.588,13.588,0,0,1-13.588,13.588H633.434A13.588,13.588,0,0,1,619.846,274.7Z" transform="translate(2414.15 16022.88)"/>
      </g>
      <path id="Path_99" data-name="Path 99" class="cls-2" d="M663.04,285.651l-1.234-2.221h-.969v2.221h-1.325v-6.243h2.916a2.063,2.063,0,0,1,1.526.567,2.128,2.128,0,0,1,.174,2.678,1.643,1.643,0,0,1-.969.622l1.408,2.376H663.04Zm-.8-3.391a1.012,1.012,0,0,0,.667-.219.778.778,0,0,0,.265-.622.751.751,0,0,0-.265-.612.986.986,0,0,0-.667-.229h-1.4v1.682Zm5.388,3.5a2.4,2.4,0,0,1-1.746-.658,2.5,2.5,0,0,1,0-3.4,2.238,2.238,0,0,1,1.673-.686,2.1,2.1,0,0,1,1.627.695,2.533,2.533,0,0,1,.64,1.8v.256h-3.364a1.2,1.2,0,0,0,.384.74,1.3,1.3,0,0,0,.914.311,1.968,1.968,0,0,0,.631-.119,1.6,1.6,0,0,0,.576-.329l.53.768a2.336,2.336,0,0,1-.841.466A3.388,3.388,0,0,1,667.623,285.76Zm1.042-2.8a1,1,0,0,0-.338-.722,1.132,1.132,0,0,0-.777-.274,1.077,1.077,0,0,0-.768.283,1.106,1.106,0,0,0-.347.713Zm3.2,1.234a1.116,1.116,0,0,0,.43.366,1.3,1.3,0,0,0,.585.146,1.059,1.059,0,0,0,.841-.356,1.623,1.623,0,0,0,0-1.91,1.046,1.046,0,0,0-.841-.366,1.237,1.237,0,0,0-.585.155,1.116,1.116,0,0,0-.43.366Zm-1.188,1.453v-6.243h1.188v2.3a1.682,1.682,0,0,1,1.389-.695,1.788,1.788,0,0,1,1.444.658,2.941,2.941,0,0,1,0,3.446,1.809,1.809,0,0,1-1.444.64,1.722,1.722,0,0,1-1.389-.686v.576h-1.188Zm5.485,0v-4.524h1.188v.622a2,2,0,0,1,.622-.512,1.648,1.648,0,0,1,.813-.219v1.161l-.329-.027a1.494,1.494,0,0,0-.64.155,1.114,1.114,0,0,0-.466.356v2.989Zm6.075,0v-.466a1.775,1.775,0,0,1-1.426.576,1.607,1.607,0,0,1-1.115-.411,1.41,1.41,0,0,1-.457-1.088,1.355,1.355,0,0,1,.43-1.051,1.625,1.625,0,0,1,1.143-.4,1.752,1.752,0,0,1,1.426.548v-.6a.644.644,0,0,0-.274-.548,1.116,1.116,0,0,0-.713-.21,1.868,1.868,0,0,0-1.316.53l-.457-.8a2.935,2.935,0,0,1,1.974-.713,2.168,2.168,0,0,1,1.472.448,1.581,1.581,0,0,1,.512,1.271v2.916Zm-.951-.695a1.107,1.107,0,0,0,.951-.393v-.558a1.107,1.107,0,0,0-.951-.393.985.985,0,0,0-.6.183.577.577,0,0,0-.247.5.559.559,0,0,0,.247.484A1.022,1.022,0,0,0,681.288,284.956Zm6.371.695v-2.733a.739.739,0,0,0-.832-.841,1.2,1.2,0,0,0-1.024.53v3.044h-1.188v-4.524H685.8v.594a1.975,1.975,0,0,1,.612-.484,2,2,0,0,1,.969-.219,1.422,1.422,0,0,1,1.106.393,1.484,1.484,0,0,1,.357,1.051v3.19Zm5.474,0v-.576a1.722,1.722,0,0,1-1.389.686,1.836,1.836,0,0,1-1.453-.64,2.98,2.98,0,0,1,0-3.446,1.814,1.814,0,0,1,1.453-.658,1.682,1.682,0,0,1,1.389.695v-2.3h1.206v6.243h-1.206Zm-1.024-.941a1.261,1.261,0,0,0,.585-.146,1.074,1.074,0,0,0,.439-.375v-1.6a1.1,1.1,0,0,0-.439-.366,1.261,1.261,0,0,0-.585-.146,1.043,1.043,0,0,0-.823.366,1.391,1.391,0,0,0-.32.951,1.468,1.468,0,0,0,.3.951A1.046,1.046,0,0,0,692.109,284.709Zm3.995-4.067a.7.7,0,0,1-.713-.713.657.657,0,0,1,.21-.494.7.7,0,0,1,.5-.2.682.682,0,0,1,.5.2.657.657,0,0,1,.21.494.7.7,0,0,1-.21.512A.682.682,0,0,1,696.1,280.642Zm-.585,5.009v-4.524h1.188v4.524Zm5.412,0v-2.733a.739.739,0,0,0-.832-.841,1.2,1.2,0,0,0-1.024.53v3.044h-1.188v-4.524h1.188v.594a1.975,1.975,0,0,1,.612-.484,2,2,0,0,1,.969-.219,1.422,1.422,0,0,1,1.106.393,1.485,1.485,0,0,1,.357,1.051v3.19Zm4.222,1.837a3.314,3.314,0,0,1-1.051-.155,2.51,2.51,0,0,1-.9-.521l.539-.859a1.8,1.8,0,0,0,1.408.558,1.282,1.282,0,0,0,.914-.3,1.066,1.066,0,0,0,.329-.841v-.457a1.716,1.716,0,0,1-1.389.713,1.843,1.843,0,0,1-1.453-.622,2.878,2.878,0,0,1,0-3.355,1.814,1.814,0,0,1,1.453-.631,1.682,1.682,0,0,1,1.389.695v-.585H707.6v4.214a2,2,0,0,1-.64,1.59A2.669,2.669,0,0,1,705.153,287.488Zm.228-2.925a1.26,1.26,0,0,0,.585-.146,1.231,1.231,0,0,0,.43-.366v-1.462a1.116,1.116,0,0,0-.43-.366,1.26,1.26,0,0,0-.585-.146,1.1,1.1,0,0,0-.823.329,1.256,1.256,0,0,0-.32.914,1.269,1.269,0,0,0,.32.923A1.114,1.114,0,0,0,705.381,284.563Z" transform="translate(-249.364 -50.784)"/>
    </g>
    <g id="Group_142" data-name="Group 142">
      <g id="Group_140" data-name="Group 140">
        <g class="cls-11" transform="matrix(1, 0, 0, 1, -2648, -16066)">
          <path id="Path_102-2" data-name="Path 102" class="cls-6" d="M186.2,375.006h0a13.588,13.588,0,0,1,13.588-13.588h42.764a13.588,13.588,0,0,1,13.588,13.588h0a13.588,13.588,0,0,1-13.588,13.588H199.79A13.588,13.588,0,0,1,186.2,375.006Z" transform="translate(2595.07 15981.11)"/>
        </g>
        <path id="Path_103" data-name="Path 103" class="cls-7" d="M207.461,377.737l-1.289-2.011h-1.015v2.011h-.631v-5.073h2.038a1.575,1.575,0,0,1,1.152.43,1.45,1.45,0,0,1,.439,1.1,1.41,1.41,0,0,1-1.316,1.481l1.371,2.066Zm-.969-2.568a1,1,0,0,0,.722-.265.948.948,0,0,0,.283-.713.907.907,0,0,0-.283-.695,1,1,0,0,0-.722-.265h-1.335v1.938Zm4.411,2.66a1.8,1.8,0,0,1-1.353-.539,1.916,1.916,0,0,1-.521-1.389,1.952,1.952,0,0,1,.512-1.371,1.7,1.7,0,0,1,1.3-.558,1.624,1.624,0,0,1,1.28.548,2.074,2.074,0,0,1,.484,1.426v.137h-2.971a1.309,1.309,0,0,0,.4.923,1.328,1.328,0,0,0,.923.347,1.559,1.559,0,0,0,1.133-.457l.274.366A1.979,1.979,0,0,1,210.9,377.828Zm1.143-2.157a1.215,1.215,0,0,0-.338-.868,1.155,1.155,0,0,0-.877-.356,1.141,1.141,0,0,0-.85.356,1.249,1.249,0,0,0-.347.868Zm3.21,2.157a1.73,1.73,0,0,1-1.325-.548,2.117,2.117,0,0,1,0-2.76,1.73,1.73,0,0,1,1.325-.548,1.606,1.606,0,0,1,1.344.64l-.384.347a1.1,1.1,0,0,0-.932-.475,1.189,1.189,0,0,0-.923.393,1.7,1.7,0,0,0,0,2.057,1.2,1.2,0,0,0,.923.384,1.112,1.112,0,0,0,.932-.475l.384.347A1.606,1.606,0,0,1,215.257,377.828Zm2.123.832a.748.748,0,0,0,.311.055.58.58,0,0,0,.32-.082.621.621,0,0,0,.229-.3l.247-.558-1.545-3.711h.622l1.225,3.016L220,374.062h.622l-1.837,4.424a1.114,1.114,0,0,1-1.079.74,1.591,1.591,0,0,1-.42-.055Zm5.557-.832a1.73,1.73,0,0,1-1.325-.548,2.117,2.117,0,0,1,0-2.76,1.73,1.73,0,0,1,1.325-.548,1.606,1.606,0,0,1,1.344.64l-.384.347a1.1,1.1,0,0,0-.932-.475,1.189,1.189,0,0,0-.923.393,1.7,1.7,0,0,0,0,2.057,1.2,1.2,0,0,0,.923.384,1.112,1.112,0,0,0,.932-.475l.384.347A1.606,1.606,0,0,1,222.937,377.828Zm2.232-.091v-5.073h.576v5.073Zm3.418.091a1.8,1.8,0,0,1-1.353-.539,1.916,1.916,0,0,1-.521-1.389,1.952,1.952,0,0,1,.512-1.371,1.7,1.7,0,0,1,1.3-.558,1.624,1.624,0,0,1,1.28.548,2.074,2.074,0,0,1,.484,1.426v.137h-2.971a1.31,1.31,0,0,0,.4.923,1.328,1.328,0,0,0,.923.347,1.559,1.559,0,0,0,1.133-.457l.274.366A1.979,1.979,0,0,1,228.587,377.828Zm1.143-2.157a1.215,1.215,0,0,0-.338-.868,1.155,1.155,0,0,0-.877-.356,1.141,1.141,0,0,0-.85.356,1.249,1.249,0,0,0-.347.868Zm6.017,2.066v-2.5q0-.759-.676-.759a1.032,1.032,0,0,0-.558.174,1.319,1.319,0,0,0-.411.384v2.7h-.567v-2.5q0-.759-.686-.759a1.018,1.018,0,0,0-.548.174,1.416,1.416,0,0,0-.411.393v2.687h-.576v-3.674h.576v.53a1.259,1.259,0,0,1,.484-.42,1.425,1.425,0,0,1,.7-.2.988.988,0,0,1,.658.2.914.914,0,0,1,.329.484,1.491,1.491,0,0,1,.539-.484,1.376,1.376,0,0,1,.695-.2q1.024,0,1.024,1.115v2.651Zm4.17,0v-.42a1.567,1.567,0,0,1-1.216.512,1.287,1.287,0,0,1-.923-.347,1.167,1.167,0,0,1-.366-.868,1.144,1.144,0,0,1,.356-.868,1.319,1.319,0,0,1,.932-.338,1.525,1.525,0,0,1,1.216.494v-.658a.68.68,0,0,0-.265-.576,1.072,1.072,0,0,0-.667-.2,1.485,1.485,0,0,0-1.124.512l-.265-.393a1.939,1.939,0,0,1,1.462-.612,1.52,1.52,0,0,1,1.051.329,1.153,1.153,0,0,1,.375.914v2.523Zm-1.015-.32a1.181,1.181,0,0,0,1.015-.457v-.695a1.191,1.191,0,0,0-1.015-.448.951.951,0,0,0-.658.228.734.734,0,0,0-.247.576.751.751,0,0,0,.247.576A.975.975,0,0,0,238.9,377.417Zm5.306.32v-2.4a.815.815,0,0,0-.229-.667.9.9,0,0,0-.594-.183,1.28,1.28,0,0,0-.631.174,1.18,1.18,0,0,0-.457.393v2.687h-.576v-3.674h.576v.53a1.9,1.9,0,0,1,.576-.448,1.614,1.614,0,0,1,.731-.174,1.042,1.042,0,0,1,1.17,1.188v2.578Zm2.093-4.2a.382.382,0,0,1-.265-.11.372.372,0,0,1-.11-.274.361.361,0,0,1,.11-.265.367.367,0,0,1,.265-.119.358.358,0,0,1,.274.119.348.348,0,0,1,.119.265.358.358,0,0,1-.119.274A.372.372,0,0,1,246.3,373.541Zm-.283,4.2v-3.674h.576v3.674Zm4.058,0v-.42a1.567,1.567,0,0,1-1.216.512,1.287,1.287,0,0,1-.923-.347,1.167,1.167,0,0,1-.366-.868,1.144,1.144,0,0,1,.356-.868,1.319,1.319,0,0,1,.932-.338,1.525,1.525,0,0,1,1.216.494v-.658a.68.68,0,0,0-.265-.576,1.072,1.072,0,0,0-.667-.2,1.485,1.485,0,0,0-1.124.512l-.265-.393a1.939,1.939,0,0,1,1.462-.612,1.52,1.52,0,0,1,1.051.329,1.153,1.153,0,0,1,.375.914v2.523Zm-1.015-.32a1.181,1.181,0,0,0,1.015-.457v-.695a1.191,1.191,0,0,0-1.015-.448.951.951,0,0,0-.658.228.734.734,0,0,0-.247.576.751.751,0,0,0,.247.576A.976.976,0,0,0,249.06,377.417Zm2.253.475,1.8-5.384h.448l-1.8,5.384Z" transform="translate(-60.536 -89.495)"/>
        <path id="Path_104" data-name="Path 104" class="cls-7" d="M216.458,393.88a2.533,2.533,0,0,1-2.614-2.623,2.515,2.515,0,0,1,.75-1.883,2.548,2.548,0,0,1,1.865-.74,2.237,2.237,0,0,1,1.919,1.005l-.53.292a1.733,1.733,0,0,0-.594-.53,1.568,1.568,0,0,0-.8-.21,1.848,1.848,0,0,0-1.408.594,2.261,2.261,0,0,0,0,2.952,1.876,1.876,0,0,0,1.408.576,1.624,1.624,0,0,0,.8-.2,1.733,1.733,0,0,0,.594-.53l.539.293A2.29,2.29,0,0,1,216.458,393.88Zm5.325-.091v-2.422a.893.893,0,0,0-.192-.622.819.819,0,0,0-.631-.21,1.215,1.215,0,0,0-.6.165,1.489,1.489,0,0,0-.484.4v2.687H219.3v-5.073h.576v1.929a1.87,1.87,0,0,1,.585-.448,1.652,1.652,0,0,1,.731-.174,1.034,1.034,0,0,1,1.17,1.17v2.6Zm4.121,0v-.42a1.567,1.567,0,0,1-1.216.512,1.287,1.287,0,0,1-.923-.347,1.167,1.167,0,0,1-.366-.868,1.144,1.144,0,0,1,.356-.868,1.319,1.319,0,0,1,.932-.338,1.525,1.525,0,0,1,1.216.494v-.658a.68.68,0,0,0-.265-.576,1.073,1.073,0,0,0-.667-.2,1.485,1.485,0,0,0-1.124.512l-.265-.393a1.939,1.939,0,0,1,1.462-.612,1.52,1.52,0,0,1,1.051.329,1.153,1.153,0,0,1,.375.914v2.523Zm-1.015-.32a1.181,1.181,0,0,0,1.015-.457v-.695a1.191,1.191,0,0,0-1.015-.448.951.951,0,0,0-.658.229.734.734,0,0,0-.247.576.751.751,0,0,0,.247.576A.975.975,0,0,0,224.89,393.468Zm2.82.32v-5.073h.576v5.073Zm1.754,0v-5.073h.576v5.073Zm3.418.091a1.8,1.8,0,0,1-1.353-.539,1.916,1.916,0,0,1-.521-1.389,1.952,1.952,0,0,1,.512-1.371,1.7,1.7,0,0,1,1.3-.558,1.624,1.624,0,0,1,1.28.548,2.074,2.074,0,0,1,.484,1.426v.137h-2.971a1.309,1.309,0,0,0,.4.923,1.328,1.328,0,0,0,.923.347,1.559,1.559,0,0,0,1.133-.457l.274.366A1.979,1.979,0,0,1,232.882,393.88Zm1.143-2.157a1.215,1.215,0,0,0-.338-.868,1.155,1.155,0,0,0-.877-.356,1.141,1.141,0,0,0-.85.356,1.249,1.249,0,0,0-.347.868Zm4.07,2.066v-2.4a.816.816,0,0,0-.229-.667.9.9,0,0,0-.594-.183,1.28,1.28,0,0,0-.631.174,1.18,1.18,0,0,0-.457.393v2.687h-.576v-3.674h.576v.53a1.9,1.9,0,0,1,.576-.448,1.614,1.614,0,0,1,.731-.174,1.042,1.042,0,0,1,1.17,1.188v2.578Zm3.291,1.49a2.548,2.548,0,0,1-.823-.119,1.677,1.677,0,0,1-.658-.43l.283-.42a1.263,1.263,0,0,0,.512.384,1.949,1.949,0,0,0,.686.11,1.217,1.217,0,0,0,.868-.293,1.051,1.051,0,0,0,.311-.8v-.53a1.67,1.67,0,0,1-.53.475,1.394,1.394,0,0,1-.7.183,1.5,1.5,0,0,1-1.2-.521,2.094,2.094,0,0,1-.439-1.38,2.051,2.051,0,0,1,.448-1.4,1.518,1.518,0,0,1,1.188-.512,1.464,1.464,0,0,1,1.234.649v-.558h.567v3.565a1.516,1.516,0,0,1-.457,1.188A1.86,1.86,0,0,1,241.385,395.278Zm.082-1.947a1.266,1.266,0,0,0,.612-.165,1.355,1.355,0,0,0,.484-.439v-1.6a1.281,1.281,0,0,0-.484-.43,1.3,1.3,0,0,0-.612-.165,1.051,1.051,0,0,0-.859.393,1.734,1.734,0,0,0,.009,2.02A1.068,1.068,0,0,0,241.467,393.331Zm4.576.548a1.8,1.8,0,0,1-1.353-.539,1.916,1.916,0,0,1-.521-1.389,1.952,1.952,0,0,1,.512-1.371,1.7,1.7,0,0,1,1.3-.558,1.624,1.624,0,0,1,1.28.548,2.074,2.074,0,0,1,.484,1.426v.137h-2.971a1.309,1.309,0,0,0,.4.923,1.328,1.328,0,0,0,.923.347,1.559,1.559,0,0,0,1.133-.457l.274.366A1.979,1.979,0,0,1,246.043,393.88Zm1.143-2.157a1.215,1.215,0,0,0-.338-.868,1.155,1.155,0,0,0-.877-.356,1.141,1.141,0,0,0-.85.356,1.249,1.249,0,0,0-.347.868Zm2.753,2.157a1.96,1.96,0,0,1-1.49-.576l.3-.411a1.555,1.555,0,0,0,.5.366,1.627,1.627,0,0,0,.7.155,1.03,1.03,0,0,0,.649-.174.571.571,0,0,0,.219-.457.418.418,0,0,0-.238-.375,3.415,3.415,0,0,0-.9-.3,1.865,1.865,0,0,1-.85-.356.828.828,0,0,1-.292-.667.919.919,0,0,1,.375-.759,1.542,1.542,0,0,1,1-.3,1.844,1.844,0,0,1,1.362.53l-.265.4a1.2,1.2,0,0,0-.457-.329,1.45,1.45,0,0,0-.64-.137.947.947,0,0,0-.6.174.5.5,0,0,0-.21.4.406.406,0,0,0,.238.356,3.987,3.987,0,0,0,.9.265,1.8,1.8,0,0,1,.841.393.876.876,0,0,1,.292.695.956.956,0,0,1-.4.8A1.667,1.667,0,0,1,249.939,393.88Z" transform="translate(-64.403 -96.187)"/>
      </g>
      <g id="Group_141" data-name="Group 141">
        <path id="Path_105" data-name="Path 105" class="cls-8" d="M58.663,375h0a13.588,13.588,0,0,1,13.588-13.588h42.764A13.588,13.588,0,0,1,128.6,375h0a13.588,13.588,0,0,1-13.588,13.588H72.251A13.588,13.588,0,0,1,58.663,375Z" transform="translate(0 -84.89)"/>
        <path id="Path_106" data-name="Path 106" class="cls-2" d="M90.17,385.841l-1.115-4.095-1.115,4.095h-.686l-1.444-5.073H86.5L87.629,385l1.17-4.232h.521L90.48,385l1.124-4.232H92.3l-1.444,5.073H90.17Zm4.59.091a1.723,1.723,0,0,1-1.307-.539A1.956,1.956,0,0,1,92.941,384a1.916,1.916,0,0,1,.512-1.389,1.854,1.854,0,0,1,2.614,0A1.916,1.916,0,0,1,96.579,384a1.956,1.956,0,0,1-.512,1.389A1.723,1.723,0,0,1,94.76,385.932Zm0-.512a1.094,1.094,0,0,0,.868-.393A1.51,1.51,0,0,0,95.975,384a1.475,1.475,0,0,0-.347-1.015,1.083,1.083,0,0,0-.868-.4,1.121,1.121,0,0,0-.877.393A1.489,1.489,0,0,0,93.535,384a1.514,1.514,0,0,0,.338,1.024A1.13,1.13,0,0,0,94.76,385.421Zm2.851.42v-3.674h.576v.594a1.508,1.508,0,0,1,1.225-.667v.585l-.229-.027a1.148,1.148,0,0,0-.576.192,1.06,1.06,0,0,0-.42.393v2.6Zm5.077,0-1.325-1.654-.6.6v1.051h-.576v-5.073h.576v3.354l1.929-1.956h.722l-1.627,1.664,1.636,2.011h-.731Zm2.673.091a1.96,1.96,0,0,1-1.49-.576l.3-.411a1.555,1.555,0,0,0,.5.366,1.627,1.627,0,0,0,.7.155,1.031,1.031,0,0,0,.649-.174.571.571,0,0,0,.219-.457.418.418,0,0,0-.238-.375,3.417,3.417,0,0,0-.9-.3,1.865,1.865,0,0,1-.85-.356.828.828,0,0,1-.292-.667.919.919,0,0,1,.375-.759,1.542,1.542,0,0,1,1-.3,1.844,1.844,0,0,1,1.362.53l-.265.4a1.2,1.2,0,0,0-.457-.329,1.45,1.45,0,0,0-.64-.137.947.947,0,0,0-.6.174.5.5,0,0,0-.21.4.406.406,0,0,0,.238.356,3.989,3.989,0,0,0,.9.265,1.8,1.8,0,0,1,.841.393.876.876,0,0,1,.292.695.956.956,0,0,1-.4.8,1.667,1.667,0,0,1-1.042.3Zm4.942-.091v-2.422a.893.893,0,0,0-.192-.622.819.819,0,0,0-.631-.21,1.215,1.215,0,0,0-.6.165,1.49,1.49,0,0,0-.484.4v2.687h-.576v-5.073h.576V382.7a1.87,1.87,0,0,1,.585-.448,1.652,1.652,0,0,1,.731-.174,1.034,1.034,0,0,1,1.17,1.17v2.6H110.3Zm3.426.091a1.723,1.723,0,0,1-1.307-.539A1.956,1.956,0,0,1,111.91,384a1.916,1.916,0,0,1,.512-1.389,1.854,1.854,0,0,1,2.614,0,1.916,1.916,0,0,1,.512,1.389,1.956,1.956,0,0,1-.512,1.389A1.723,1.723,0,0,1,113.729,385.932Zm0-.512a1.094,1.094,0,0,0,.868-.393,1.51,1.51,0,0,0,.347-1.024,1.475,1.475,0,0,0-.347-1.015,1.083,1.083,0,0,0-.868-.4,1.121,1.121,0,0,0-.877.393A1.489,1.489,0,0,0,112.5,384a1.514,1.514,0,0,0,.338,1.024A1.13,1.13,0,0,0,113.729,385.421Zm4.661.512a1.434,1.434,0,0,1-1.234-.649v1.956h-.576v-5.073h.576v.548a1.41,1.41,0,0,1,.521-.457,1.444,1.444,0,0,1,.713-.183,1.489,1.489,0,0,1,1.188.521,2.065,2.065,0,0,1,.448,1.408,2.108,2.108,0,0,1-.448,1.408A1.472,1.472,0,0,1,118.39,385.932Zm-.137-.512a1.051,1.051,0,0,0,.85-.384,1.792,1.792,0,0,0,.009-2.057,1.051,1.051,0,0,0-.859-.393,1.279,1.279,0,0,0-.649.174,1.134,1.134,0,0,0-.448.411v1.654a1.2,1.2,0,0,0,.448.42A1.279,1.279,0,0,0,118.253,385.421Zm3.957.512a1.96,1.96,0,0,1-1.49-.576l.3-.411a1.555,1.555,0,0,0,.5.366,1.627,1.627,0,0,0,.7.155,1.031,1.031,0,0,0,.649-.174.571.571,0,0,0,.219-.457.418.418,0,0,0-.238-.375,3.417,3.417,0,0,0-.9-.3,1.865,1.865,0,0,1-.85-.356.828.828,0,0,1-.292-.667.919.919,0,0,1,.375-.759,1.542,1.542,0,0,1,1-.3,1.844,1.844,0,0,1,1.362.53l-.265.4a1.2,1.2,0,0,0-.457-.329,1.45,1.45,0,0,0-.64-.137.947.947,0,0,0-.6.174.5.5,0,0,0-.21.4.406.406,0,0,0,.238.356,3.99,3.99,0,0,0,.9.265,1.8,1.8,0,0,1,.841.393.876.876,0,0,1,.292.695.956.956,0,0,1-.4.8A1.667,1.667,0,0,1,122.21,385.932Z" transform="translate(-11.266 -92.923)"/>
      </g>
      <path id="Path_116" data-name="Path 116" class="cls-4" d="M193.1,307.573v15.748h-74.67v15.74" transform="translate(-24.805 -62.546)"/>
      <path id="Path_118" data-name="Path 118" class="cls-4" d="M245.985,339.065V323.316h0V307.559" transform="translate(-77.744 -62.54)"/>
      <g id="Group_139" data-name="Group 139">
        <path id="Path_119" data-name="Path 119" class="cls-8" d="M313.738,375.016h0a13.588,13.588,0,0,1,13.588-13.588H370.09a13.588,13.588,0,0,1,13.588,13.588h0A13.588,13.588,0,0,1,370.09,388.6H327.326a13.588,13.588,0,0,1-13.588-13.588Z" transform="translate(-105.861 -84.896)"/>
        <path id="Path_120" data-name="Path 120" class="cls-2" d="M355.959,377.9a2.486,2.486,0,0,1-1.947-.8l.366-.484a2.04,2.04,0,0,0,.731.539,2.157,2.157,0,0,0,.868.183,1.426,1.426,0,0,0,.868-.238.757.757,0,0,0,.329-.631q0-.6-.941-.859a7.916,7.916,0,0,1-1.435-.475,1.327,1.327,0,0,1-.466-.43,1.172,1.172,0,0,1-.165-.631,1.238,1.238,0,0,1,.484-1.005,1.932,1.932,0,0,1,1.261-.4,2.363,2.363,0,0,1,1.8.7l-.384.466a1.867,1.867,0,0,0-1.462-.612,1.181,1.181,0,0,0-.75.229.686.686,0,0,0-.293.576.556.556,0,0,0,.238.457,2.067,2.067,0,0,0,.713.3,6.426,6.426,0,0,1,1.389.484,1.344,1.344,0,0,1,.484.475,1.222,1.222,0,0,1,.174.667,1.32,1.32,0,0,1-.512,1.1A2.139,2.139,0,0,1,355.959,377.9Zm4.523,0a1.73,1.73,0,0,1-1.325-.548,2.117,2.117,0,0,1,0-2.76,1.731,1.731,0,0,1,1.325-.548,1.606,1.606,0,0,1,1.344.64l-.384.347a1.1,1.1,0,0,0-.932-.475,1.189,1.189,0,0,0-.923.393,1.7,1.7,0,0,0,0,2.057,1.2,1.2,0,0,0,.923.384,1.112,1.112,0,0,0,.932-.475l.384.347A1.606,1.606,0,0,1,360.482,377.9Zm4.719-.091v-2.422a.893.893,0,0,0-.192-.622.819.819,0,0,0-.631-.21,1.216,1.216,0,0,0-.6.165,1.49,1.49,0,0,0-.484.4V377.8h-.576v-5.073h.576v1.929a1.871,1.871,0,0,1,.585-.448,1.652,1.652,0,0,1,.731-.174,1.034,1.034,0,0,1,1.17,1.17v2.6Zm3.426.091a1.723,1.723,0,0,1-1.307-.539,1.956,1.956,0,0,1-.512-1.389,1.916,1.916,0,0,1,.512-1.389,1.854,1.854,0,0,1,2.614,0,1.916,1.916,0,0,1,.512,1.389,1.956,1.956,0,0,1-.512,1.389A1.723,1.723,0,0,1,368.627,377.9Zm0-.512a1.093,1.093,0,0,0,.868-.393,1.51,1.51,0,0,0,.347-1.024,1.475,1.475,0,0,0-.347-1.015,1.083,1.083,0,0,0-.868-.4,1.121,1.121,0,0,0-.877.393,1.489,1.489,0,0,0-.347,1.024,1.514,1.514,0,0,0,.338,1.024A1.13,1.13,0,0,0,368.627,377.384Zm4.46.512a1.723,1.723,0,0,1-1.307-.539,1.956,1.956,0,0,1-.512-1.389,1.916,1.916,0,0,1,.512-1.389,1.854,1.854,0,0,1,2.614,0,1.916,1.916,0,0,1,.512,1.389,1.956,1.956,0,0,1-.512,1.389A1.723,1.723,0,0,1,373.086,377.9Zm0-.512a1.094,1.094,0,0,0,.868-.393,1.51,1.51,0,0,0,.347-1.024,1.475,1.475,0,0,0-.347-1.015,1.083,1.083,0,0,0-.868-.4,1.121,1.121,0,0,0-.877.393,1.489,1.489,0,0,0-.347,1.024,1.514,1.514,0,0,0,.338,1.024A1.13,1.13,0,0,0,373.086,377.384Zm2.851.42v-5.073h.576V377.8Z" transform="translate(-122.575 -89.557)"/>
        <path id="Path_121" data-name="Path 121" class="cls-2" d="M340,393.948a1.434,1.434,0,0,1-1.234-.649v1.956h-.576v-5.073h.576v.548a1.41,1.41,0,0,1,.521-.457,1.444,1.444,0,0,1,.713-.183,1.489,1.489,0,0,1,1.188.521,2.065,2.065,0,0,1,.448,1.408,2.108,2.108,0,0,1-.448,1.408A1.472,1.472,0,0,1,340,393.948Zm-.137-.512a1.051,1.051,0,0,0,.85-.384,1.792,1.792,0,0,0,.009-2.057,1.051,1.051,0,0,0-.859-.393,1.279,1.279,0,0,0-.649.174,1.134,1.134,0,0,0-.448.411v1.654a1.2,1.2,0,0,0,.448.42A1.279,1.279,0,0,0,339.867,393.436Zm5.09.42v-.42a1.567,1.567,0,0,1-1.216.512,1.287,1.287,0,0,1-.923-.347,1.167,1.167,0,0,1-.366-.868,1.144,1.144,0,0,1,.356-.868,1.319,1.319,0,0,1,.932-.338,1.525,1.525,0,0,1,1.216.494v-.658a.68.68,0,0,0-.265-.576,1.073,1.073,0,0,0-.667-.2,1.485,1.485,0,0,0-1.124.512l-.265-.393a1.939,1.939,0,0,1,1.462-.612,1.52,1.52,0,0,1,1.051.329,1.152,1.152,0,0,1,.375.914v2.523Zm-1.015-.32a1.181,1.181,0,0,0,1.015-.457v-.695a1.191,1.191,0,0,0-1.015-.448.951.951,0,0,0-.658.229.734.734,0,0,0-.247.576.751.751,0,0,0,.247.576A.976.976,0,0,0,343.943,393.537Zm2.82.32v-3.674h.576v.594a1.508,1.508,0,0,1,1.225-.667v.585l-.228-.027a1.147,1.147,0,0,0-.576.192,1.06,1.06,0,0,0-.42.393v2.6Zm3.505.091q-.813,0-.813-.859v-2.4h-.612v-.5h.612v-1.005h.567v1.005h.75v.5h-.75v2.285a.6.6,0,0,0,.091.338.325.325,0,0,0,.283.128.519.519,0,0,0,.384-.146l.174.42A.928.928,0,0,1,350.268,393.948Zm3.846-.091v-2.4a.816.816,0,0,0-.228-.667.9.9,0,0,0-.594-.183,1.28,1.28,0,0,0-.631.174,1.181,1.181,0,0,0-.457.393v2.687h-.576v-3.674h.576v.53a1.9,1.9,0,0,1,.576-.448,1.614,1.614,0,0,1,.731-.174,1.042,1.042,0,0,1,1.17,1.188v2.578Zm3.473.091a1.8,1.8,0,0,1-1.353-.539,1.917,1.917,0,0,1-.521-1.389,1.952,1.952,0,0,1,.512-1.371,1.7,1.7,0,0,1,1.3-.558,1.624,1.624,0,0,1,1.28.548,2.074,2.074,0,0,1,.484,1.426v.137h-2.971a1.31,1.31,0,0,0,.4.923,1.328,1.328,0,0,0,.923.347,1.559,1.559,0,0,0,1.133-.457l.274.366A1.979,1.979,0,0,1,357.587,393.948Zm1.143-2.157a1.215,1.215,0,0,0-.338-.868,1.155,1.155,0,0,0-.878-.357,1.141,1.141,0,0,0-.85.357,1.249,1.249,0,0,0-.347.868Zm1.583,2.066v-3.674h.576v.594a1.508,1.508,0,0,1,1.225-.667v.585l-.229-.027a1.148,1.148,0,0,0-.576.192,1.06,1.06,0,0,0-.42.393v2.6Zm3.743.091a1.96,1.96,0,0,1-1.49-.576l.3-.411a1.555,1.555,0,0,0,.5.366,1.627,1.627,0,0,0,.7.155,1.031,1.031,0,0,0,.649-.174.571.571,0,0,0,.219-.457.418.418,0,0,0-.238-.375,3.416,3.416,0,0,0-.9-.3,1.865,1.865,0,0,1-.85-.356.828.828,0,0,1-.292-.667.919.919,0,0,1,.375-.759,1.542,1.542,0,0,1,1-.3,1.844,1.844,0,0,1,1.362.53l-.265.4a1.2,1.2,0,0,0-.457-.329,1.45,1.45,0,0,0-.64-.137.948.948,0,0,0-.6.174.5.5,0,0,0-.21.4.406.406,0,0,0,.238.356,3.99,3.99,0,0,0,.9.265,1.8,1.8,0,0,1,.841.393.876.876,0,0,1,.292.695.956.956,0,0,1-.4.8A1.667,1.667,0,0,1,364.056,393.948Zm4.942-.091v-2.422a.893.893,0,0,0-.192-.622.819.819,0,0,0-.631-.21,1.215,1.215,0,0,0-.6.165,1.489,1.489,0,0,0-.484.4v2.687h-.576v-5.073h.576v1.929a1.87,1.87,0,0,1,.585-.448,1.652,1.652,0,0,1,.731-.174,1.034,1.034,0,0,1,1.17,1.17v2.6Zm2.1-4.2a.382.382,0,0,1-.265-.11.372.372,0,0,1-.11-.274.361.361,0,0,1,.11-.265.367.367,0,0,1,.265-.119.358.358,0,0,1,.274.119.348.348,0,0,1,.119.265.358.358,0,0,1-.119.274A.372.372,0,0,1,371.1,389.661Zm-.283,4.2v-3.674h.576v3.674Zm3.564.091a1.434,1.434,0,0,1-1.234-.649v1.956h-.576v-5.073h.576v.548a1.41,1.41,0,0,1,.521-.457,1.444,1.444,0,0,1,.713-.183,1.489,1.489,0,0,1,1.188.521,2.065,2.065,0,0,1,.448,1.408,2.108,2.108,0,0,1-.448,1.408A1.473,1.473,0,0,1,374.38,393.948Zm-.137-.512a1.051,1.051,0,0,0,.85-.384A1.792,1.792,0,0,0,375.1,391a1.051,1.051,0,0,0-.859-.393,1.279,1.279,0,0,0-.649.174,1.134,1.134,0,0,0-.448.411v1.654a1.2,1.2,0,0,0,.448.42A1.279,1.279,0,0,0,374.242,393.436Zm3.957.512a1.96,1.96,0,0,1-1.49-.576l.3-.411a1.555,1.555,0,0,0,.5.366,1.627,1.627,0,0,0,.7.155,1.031,1.031,0,0,0,.649-.174.571.571,0,0,0,.219-.457.418.418,0,0,0-.238-.375,3.417,3.417,0,0,0-.9-.3,1.865,1.865,0,0,1-.85-.356.828.828,0,0,1-.292-.667.918.918,0,0,1,.375-.759,1.542,1.542,0,0,1,1-.3,1.844,1.844,0,0,1,1.362.53l-.265.4a1.2,1.2,0,0,0-.457-.329,1.45,1.45,0,0,0-.64-.137.948.948,0,0,0-.6.174.5.5,0,0,0-.21.4.406.406,0,0,0,.238.356,3.991,3.991,0,0,0,.9.265,1.8,1.8,0,0,1,.841.393.876.876,0,0,1,.292.695.956.956,0,0,1-.4.8A1.667,1.667,0,0,1,378.2,393.948Z" transform="translate(-116.011 -96.25)"/>
      </g>
      <path id="Path_127" data-name="Path 127" class="cls-4" d="M394.881,339.076V323.324H320.271V308.278" transform="translate(-152.034 -62.544)"/>
      <g id="Group_133" data-name="Group 133">
        <path id="Path_144" data-name="Path 144" class="cls-4" d="M245.981,407.874v9.12" transform="translate(-77.741 -104.172)"/>
        <path id="Path_145" data-name="Path 145" class="cls-8" d="M242.678,423.465l1.932,5.309,1.932-5.309Z" transform="translate(-76.37 -110.643)"/>
        <g id="Group_131" data-name="Group 131" transform="translate(0 -5)">
          <path id="Path_147" data-name="Path 147" class="cls-9" d="M184.273,455.273v-2.623h-2.952v2.623H180V449.03h1.325v2.45h2.952v-2.45h1.335v6.243Zm4.63.11a2.285,2.285,0,0,1-2.386-2.376,2.391,2.391,0,1,1,4.1,1.709A2.326,2.326,0,0,1,188.9,455.382Zm0-1.051a1.053,1.053,0,0,0,.832-.366,1.4,1.4,0,0,0,.329-.96,1.362,1.362,0,0,0-.329-.932,1.042,1.042,0,0,0-.832-.375,1.061,1.061,0,0,0-.823.366,1.333,1.333,0,0,0-.329.941,1.394,1.394,0,0,0,.329.969A1.073,1.073,0,0,0,188.9,454.331Zm7.246.941-.96-3.08-.951,3.08h-1.271l-1.38-4.524h1.234l.841,3.044,1-3.044h1.06l.987,3.044.841-3.044h1.234l-1.371,4.524Zm11.23,0v-2.852q0-.722-.676-.722a.96.96,0,0,0-.567.174,1.437,1.437,0,0,0-.366.347v3.053h-1.2v-2.852q0-.722-.676-.722a.945.945,0,0,0-.558.174,1.515,1.515,0,0,0-.375.356v3.044h-1.188v-4.524h1.188v.594a1.415,1.415,0,0,1,.585-.475,1.9,1.9,0,0,1,.887-.229,1.184,1.184,0,0,1,1.261.823,1.666,1.666,0,0,1,.64-.585,1.859,1.859,0,0,1,.914-.238,1.192,1.192,0,0,1,1.325,1.371v3.263Zm2.956-5.009a.7.7,0,0,1-.713-.713.657.657,0,0,1,.21-.494.7.7,0,0,1,.5-.2.682.682,0,0,1,.5.2.657.657,0,0,1,.21.494.7.7,0,0,1-.21.512A.682.682,0,0,1,210.336,450.264Zm-.585,5.009v-4.524h1.188v4.524Zm4.214,1.837a3.315,3.315,0,0,1-1.051-.155,2.51,2.51,0,0,1-.9-.521l.539-.859a1.8,1.8,0,0,0,1.408.558,1.282,1.282,0,0,0,.914-.3,1.066,1.066,0,0,0,.329-.841v-.457a1.716,1.716,0,0,1-1.389.713,1.843,1.843,0,0,1-1.453-.622,2.878,2.878,0,0,1,0-3.354,1.814,1.814,0,0,1,1.453-.631,1.682,1.682,0,0,1,1.389.695v-.585h1.207v4.214a2,2,0,0,1-.64,1.59A2.669,2.669,0,0,1,213.965,457.11Zm.228-2.925a1.261,1.261,0,0,0,.585-.146,1.23,1.23,0,0,0,.43-.366v-1.462a1.116,1.116,0,0,0-.43-.366,1.26,1.26,0,0,0-.585-.146,1.1,1.1,0,0,0-.823.329,1.256,1.256,0,0,0-.32.914,1.269,1.269,0,0,0,.32.923A1.113,1.113,0,0,0,214.194,454.185Zm6.453,1.088v-2.751a.735.735,0,0,0-.841-.823,1.249,1.249,0,0,0-1.024.53v3.044h-1.188V449.03h1.188v2.313a1.976,1.976,0,0,1,.612-.484,2.051,2.051,0,0,1,.978-.219,1.3,1.3,0,0,1,1.462,1.426v3.208Zm3.884.11q-1.28,0-1.28-1.234V451.79h-.75v-1.042h.75v-1.234h1.2v1.234h.923v1.042h-.923v2.038a.592.592,0,0,0,.11.366.365.365,0,0,0,.3.137.54.54,0,0,0,.411-.137l.256.9A1.453,1.453,0,0,1,224.531,455.382Zm8.018-.11-.96-3.08-.951,3.08h-1.27l-1.38-4.524h1.234l.841,3.044,1-3.044h1.06l.987,3.044.841-3.044h1.234l-1.371,4.524Zm5.351.11a2.4,2.4,0,0,1-1.746-.658,2.5,2.5,0,0,1,0-3.4,2.237,2.237,0,0,1,1.673-.686,2.1,2.1,0,0,1,1.627.695,2.533,2.533,0,0,1,.64,1.8v.256h-3.364a1.2,1.2,0,0,0,.384.74,1.3,1.3,0,0,0,.914.311,1.967,1.967,0,0,0,.631-.119,1.6,1.6,0,0,0,.576-.329l.53.768a2.337,2.337,0,0,1-.841.466A3.39,3.39,0,0,1,237.9,455.382Zm1.042-2.8a1,1,0,0,0-.338-.722,1.131,1.131,0,0,0-.777-.274,1.077,1.077,0,0,0-.768.283,1.106,1.106,0,0,0-.347.713Zm7.453,2.687v-.567a2.028,2.028,0,0,1-1.59.676,1.462,1.462,0,0,1-1.106-.375,1.5,1.5,0,0,1-.347-1.042v-3.217h1.188v2.742a.739.739,0,0,0,.832.841,1.273,1.273,0,0,0,1.024-.521v-3.062h1.188v4.524Zm4,.11a3.506,3.506,0,0,1-1.133-.183,2.476,2.476,0,0,1-.887-.521l.512-.832a2.347,2.347,0,0,0,.722.439,2.232,2.232,0,0,0,.841.183q.759,0,.759-.484a.3.3,0,0,0-.2-.283,2.492,2.492,0,0,0-.494-.155l-.649-.137q-1.344-.293-1.344-1.344a1.225,1.225,0,0,1,.521-1.024,2.121,2.121,0,0,1,1.335-.4,2.8,2.8,0,0,1,1.819.622l-.475.814a1.624,1.624,0,0,0-.558-.375,1.922,1.922,0,0,0-.777-.155.881.881,0,0,0-.521.137.376.376,0,0,0-.192.32.266.266,0,0,0,.192.247,3.03,3.03,0,0,0,.494.146q.3.064.649.146a2.365,2.365,0,0,1,.649.238,1.344,1.344,0,0,1,.494.43,1.185,1.185,0,0,1,.2.731,1.252,1.252,0,0,1-.539,1.051A2.326,2.326,0,0,1,250.4,455.382Zm4.958,0a2.4,2.4,0,0,1-1.746-.658,2.5,2.5,0,0,1,0-3.4,2.237,2.237,0,0,1,1.673-.686,2.1,2.1,0,0,1,1.627.695,2.533,2.533,0,0,1,.64,1.8v.256h-3.364a1.2,1.2,0,0,0,.384.74,1.3,1.3,0,0,0,.914.311,1.967,1.967,0,0,0,.631-.119,1.6,1.6,0,0,0,.576-.329l.53.768a2.337,2.337,0,0,1-.841.466A3.389,3.389,0,0,1,255.356,455.382Zm1.042-2.8a1,1,0,0,0-.338-.722,1.131,1.131,0,0,0-.777-.274,1.077,1.077,0,0,0-.768.283,1.106,1.106,0,0,0-.347.713Z" transform="translate(-50.355 -121.181)"/>
          <path id="Path_148" data-name="Path 148" class="cls-9" d="M184,474.382a3.506,3.506,0,0,1-1.133-.183,2.476,2.476,0,0,1-.887-.521l.512-.832a2.347,2.347,0,0,0,.722.439,2.232,2.232,0,0,0,.841.183q.759,0,.759-.484a.3.3,0,0,0-.2-.283,2.49,2.49,0,0,0-.494-.155l-.649-.137q-1.344-.293-1.344-1.344a1.224,1.224,0,0,1,.521-1.024,2.121,2.121,0,0,1,1.334-.4,2.8,2.8,0,0,1,1.819.622l-.475.813a1.625,1.625,0,0,0-.558-.375,1.923,1.923,0,0,0-.777-.155.881.881,0,0,0-.521.137.376.376,0,0,0-.192.32.266.266,0,0,0,.192.247,3.031,3.031,0,0,0,.494.146q.3.064.649.146a2.365,2.365,0,0,1,.649.238,1.344,1.344,0,0,1,.494.43,1.185,1.185,0,0,1,.2.731,1.252,1.252,0,0,1-.539,1.051A2.325,2.325,0,0,1,184,474.382Zm4.931,0a2.285,2.285,0,0,1-2.386-2.376,2.391,2.391,0,1,1,4.1,1.709A2.326,2.326,0,0,1,188.932,474.382Zm0-1.051a1.053,1.053,0,0,0,.832-.366,1.4,1.4,0,0,0,.329-.96,1.362,1.362,0,0,0-.329-.932,1.042,1.042,0,0,0-.832-.375,1.061,1.061,0,0,0-.823.366,1.333,1.333,0,0,0-.329.941,1.393,1.393,0,0,0,.329.969A1.073,1.073,0,0,0,188.932,473.331Zm5.382,1.051a2.373,2.373,0,1,1,0-4.744,2.178,2.178,0,0,1,1.124.256,1.965,1.965,0,0,1,.658.558l-.768.731a1.087,1.087,0,0,0-.96-.484,1.169,1.169,0,0,0-.887.366,1.311,1.311,0,0,0-.338.941,1.357,1.357,0,0,0,.338.96,1.169,1.169,0,0,0,.887.366,1.11,1.11,0,0,0,.96-.494l.768.722a2,2,0,0,1-.658.576A2.244,2.244,0,0,1,194.313,474.382Zm3.153-5.119a.7.7,0,0,1-.713-.713.656.656,0,0,1,.21-.494.7.7,0,0,1,.5-.2.682.682,0,0,1,.5.2.656.656,0,0,1,.21.494.7.7,0,0,1-.21.512A.682.682,0,0,1,197.466,469.263Zm-.585,5.009v-4.524h1.188v4.524Zm5.074,0v-.466a1.775,1.775,0,0,1-1.426.576,1.607,1.607,0,0,1-1.115-.411,1.41,1.41,0,0,1-.457-1.088,1.355,1.355,0,0,1,.43-1.051,1.625,1.625,0,0,1,1.143-.4,1.752,1.752,0,0,1,1.426.548v-.6a.644.644,0,0,0-.274-.548,1.116,1.116,0,0,0-.713-.21,1.868,1.868,0,0,0-1.316.53l-.457-.8a2.935,2.935,0,0,1,1.974-.713,2.168,2.168,0,0,1,1.472.448,1.581,1.581,0,0,1,.512,1.271v2.916Zm-.951-.695a1.107,1.107,0,0,0,.951-.393v-.558a1.107,1.107,0,0,0-.951-.393.985.985,0,0,0-.6.183.577.577,0,0,0-.247.5.559.559,0,0,0,.247.484A1.022,1.022,0,0,0,201,473.578Zm3.327.695v-6.243h1.188v6.243Zm7.47,0v-.466a1.775,1.775,0,0,1-1.426.576,1.607,1.607,0,0,1-1.115-.411,1.41,1.41,0,0,1-.457-1.088,1.355,1.355,0,0,1,.43-1.051,1.625,1.625,0,0,1,1.143-.4,1.752,1.752,0,0,1,1.426.548v-.6a.644.644,0,0,0-.274-.548,1.116,1.116,0,0,0-.713-.21,1.867,1.867,0,0,0-1.316.53l-.457-.8a2.935,2.935,0,0,1,1.974-.713,2.168,2.168,0,0,1,1.472.448,1.581,1.581,0,0,1,.512,1.271v2.916Zm-.951-.695a1.107,1.107,0,0,0,.951-.393v-.558a1.107,1.107,0,0,0-.951-.393.985.985,0,0,0-.6.183.577.577,0,0,0-.247.5.559.559,0,0,0,.247.484A1.022,1.022,0,0,0,210.851,473.578Zm5.43.8a2.373,2.373,0,1,1,0-4.744,2.178,2.178,0,0,1,1.124.256,1.965,1.965,0,0,1,.658.558l-.768.731a1.087,1.087,0,0,0-.96-.484,1.169,1.169,0,0,0-.887.366,1.311,1.311,0,0,0-.338.941,1.357,1.357,0,0,0,.338.96,1.169,1.169,0,0,0,.887.366,1.11,1.11,0,0,0,.96-.494l.768.722a2,2,0,0,1-.658.576A2.244,2.244,0,0,1,216.28,474.382Zm4.076,0q-1.28,0-1.28-1.234V470.79h-.75v-1.042h.75v-1.234h1.2v1.234h.923v1.042h-.923v2.038a.592.592,0,0,0,.11.366.365.365,0,0,0,.3.137.54.54,0,0,0,.411-.137l.256.9A1.452,1.452,0,0,1,220.357,474.382Zm2.24-5.119a.7.7,0,0,1-.713-.713.656.656,0,0,1,.21-.494.7.7,0,0,1,.5-.2.682.682,0,0,1,.5.2.656.656,0,0,1,.21.494.7.7,0,0,1-.21.512A.682.682,0,0,1,222.6,469.263Zm-.585,5.009v-4.524H223.2v4.524Zm3.538,0-1.819-4.524H225l1.179,3.144,1.179-3.144h1.28l-1.81,4.524Zm4.217-5.009a.7.7,0,0,1-.713-.713.656.656,0,0,1,.21-.494.7.7,0,0,1,.5-.2.682.682,0,0,1,.5.2.656.656,0,0,1,.21.494.7.7,0,0,1-.21.512A.682.682,0,0,1,229.767,469.263Zm-.585,5.009v-4.524h1.188v4.524Zm3.876.11q-1.28,0-1.28-1.234V470.79h-.75v-1.042h.75v-1.234h1.2v1.234h.923v1.042h-.923v2.038a.592.592,0,0,0,.11.366.365.365,0,0,0,.3.137.54.54,0,0,0,.411-.137l.256.9A1.452,1.452,0,0,1,233.058,474.382Zm2.24-5.119a.7.7,0,0,1-.713-.713.656.656,0,0,1,.21-.494.7.7,0,0,1,.5-.2.682.682,0,0,1,.5.2.657.657,0,0,1,.21.494.7.7,0,0,1-.21.512A.682.682,0,0,1,235.3,469.263Zm-.585,5.009v-4.524H235.9v4.524Zm4.489.11a2.4,2.4,0,0,1-1.746-.658,2.5,2.5,0,0,1,0-3.4,2.237,2.237,0,0,1,1.673-.686,2.1,2.1,0,0,1,1.627.695,2.533,2.533,0,0,1,.64,1.8v.256h-3.364a1.2,1.2,0,0,0,.384.74,1.3,1.3,0,0,0,.914.311,1.968,1.968,0,0,0,.631-.119,1.6,1.6,0,0,0,.576-.329l.53.768a2.335,2.335,0,0,1-.841.466A3.388,3.388,0,0,1,239.2,474.382Zm1.042-2.8a1,1,0,0,0-.338-.722,1.131,1.131,0,0,0-.777-.274,1.077,1.077,0,0,0-.768.283,1.106,1.106,0,0,0-.347.713Zm3.64,2.8a3.506,3.506,0,0,1-1.133-.183,2.476,2.476,0,0,1-.887-.521l.512-.832a2.348,2.348,0,0,0,.722.439,2.232,2.232,0,0,0,.841.183q.759,0,.759-.484a.3.3,0,0,0-.2-.283,2.49,2.49,0,0,0-.494-.155l-.649-.137q-1.344-.293-1.344-1.344a1.224,1.224,0,0,1,.521-1.024,2.121,2.121,0,0,1,1.334-.4,2.8,2.8,0,0,1,1.819.622l-.475.813a1.624,1.624,0,0,0-.558-.375,1.923,1.923,0,0,0-.777-.155.881.881,0,0,0-.521.137.376.376,0,0,0-.192.32.266.266,0,0,0,.192.247,3.03,3.03,0,0,0,.494.146q.3.064.649.146a2.365,2.365,0,0,1,.649.238,1.344,1.344,0,0,1,.494.43,1.185,1.185,0,0,1,.2.731,1.252,1.252,0,0,1-.539,1.051A2.325,2.325,0,0,1,243.884,474.382Zm6.742,0q-1.28,0-1.28-1.234V470.79h-.75v-1.042h.75v-1.234h1.2v1.234h.923v1.042h-.923v2.038a.592.592,0,0,0,.11.366.365.365,0,0,0,.3.137.54.54,0,0,0,.411-.137l.256.9A1.452,1.452,0,0,1,250.626,474.382Zm3.749,0a2.285,2.285,0,0,1-2.386-2.376,2.391,2.391,0,1,1,4.1,1.709A2.326,2.326,0,0,1,254.375,474.382Zm0-1.051a1.053,1.053,0,0,0,.832-.366,1.4,1.4,0,0,0,.329-.96,1.362,1.362,0,0,0-.329-.932,1.042,1.042,0,0,0-.832-.375,1.061,1.061,0,0,0-.823.366,1.333,1.333,0,0,0-.329.941,1.394,1.394,0,0,0,.329.969A1.073,1.073,0,0,0,254.375,473.331Z" transform="translate(-51.179 -129.066)"/>
          <path id="Path_149" data-name="Path 149" class="cls-9" d="M163.846,493.44a2.4,2.4,0,0,1-1.746-.658,2.5,2.5,0,0,1,0-3.4,2.238,2.238,0,0,1,1.673-.686,2.1,2.1,0,0,1,1.627.695,2.533,2.533,0,0,1,.64,1.8v.256h-3.364a1.2,1.2,0,0,0,.384.74,1.3,1.3,0,0,0,.914.311,1.967,1.967,0,0,0,.631-.119,1.6,1.6,0,0,0,.576-.329l.53.768a2.336,2.336,0,0,1-.841.466A3.388,3.388,0,0,1,163.846,493.44Zm1.042-2.8a1,1,0,0,0-.338-.722,1.131,1.131,0,0,0-.777-.274,1.077,1.077,0,0,0-.768.283,1.106,1.106,0,0,0-.347.713Zm5.057,2.687V490.6a.739.739,0,0,0-.832-.841,1.2,1.2,0,0,0-1.024.53v3.044H166.9v-4.524h1.188v.594a1.975,1.975,0,0,1,.612-.484,2,2,0,0,1,.969-.219,1.422,1.422,0,0,1,1.106.393,1.484,1.484,0,0,1,.356,1.051v3.19Zm4.222,1.837a3.314,3.314,0,0,1-1.051-.155,2.509,2.509,0,0,1-.9-.521l.539-.859a1.8,1.8,0,0,0,1.408.558,1.282,1.282,0,0,0,.914-.3,1.066,1.066,0,0,0,.329-.841v-.457a1.716,1.716,0,0,1-1.389.713,1.843,1.843,0,0,1-1.453-.622,2.878,2.878,0,0,1,0-3.354,1.814,1.814,0,0,1,1.453-.631,1.682,1.682,0,0,1,1.389.695v-.585h1.207v4.214a2,2,0,0,1-.64,1.59A2.669,2.669,0,0,1,174.167,495.168Zm.229-2.925a1.261,1.261,0,0,0,.585-.146,1.23,1.23,0,0,0,.43-.366v-1.462a1.116,1.116,0,0,0-.43-.366,1.261,1.261,0,0,0-.585-.146,1.1,1.1,0,0,0-.823.329,1.256,1.256,0,0,0-.32.914,1.269,1.269,0,0,0,.32.923A1.113,1.113,0,0,0,174.4,492.243Zm6.106,1.088v-.466a1.775,1.775,0,0,1-1.426.576,1.607,1.607,0,0,1-1.115-.411,1.41,1.41,0,0,1-.457-1.088,1.356,1.356,0,0,1,.43-1.051,1.625,1.625,0,0,1,1.143-.4,1.752,1.752,0,0,1,1.426.548v-.6a.644.644,0,0,0-.274-.548,1.116,1.116,0,0,0-.713-.21,1.867,1.867,0,0,0-1.316.53l-.457-.8a2.935,2.935,0,0,1,1.974-.713,2.168,2.168,0,0,1,1.472.448,1.581,1.581,0,0,1,.512,1.271v2.916Zm-.951-.695a1.107,1.107,0,0,0,.951-.393v-.558a1.107,1.107,0,0,0-.951-.393.985.985,0,0,0-.6.183.577.577,0,0,0-.247.5.559.559,0,0,0,.247.484A1.022,1.022,0,0,0,179.551,492.636Zm5.174,2.532a3.314,3.314,0,0,1-1.051-.155,2.509,2.509,0,0,1-.9-.521l.539-.859a1.8,1.8,0,0,0,1.408.558,1.282,1.282,0,0,0,.914-.3,1.066,1.066,0,0,0,.329-.841v-.457a1.716,1.716,0,0,1-1.389.713,1.843,1.843,0,0,1-1.453-.622,2.878,2.878,0,0,1,0-3.354,1.814,1.814,0,0,1,1.453-.631,1.682,1.682,0,0,1,1.389.695v-.585h1.207v4.214a2,2,0,0,1-.64,1.59A2.669,2.669,0,0,1,184.725,495.168Zm.229-2.925a1.261,1.261,0,0,0,.585-.146,1.23,1.23,0,0,0,.43-.366v-1.462a1.116,1.116,0,0,0-.43-.366,1.261,1.261,0,0,0-.585-.146,1.1,1.1,0,0,0-.823.329,1.256,1.256,0,0,0-.32.914,1.269,1.269,0,0,0,.32.923A1.114,1.114,0,0,0,184.953,492.243Zm5.521,1.2a2.4,2.4,0,0,1-1.746-.658,2.5,2.5,0,0,1,0-3.4,2.238,2.238,0,0,1,1.673-.686,2.1,2.1,0,0,1,1.627.695,2.533,2.533,0,0,1,.64,1.8v.256H189.3a1.2,1.2,0,0,0,.384.74,1.3,1.3,0,0,0,.914.311,1.967,1.967,0,0,0,.631-.119,1.6,1.6,0,0,0,.576-.329l.53.768a2.336,2.336,0,0,1-.841.466A3.388,3.388,0,0,1,190.474,493.44Zm1.042-2.8a1,1,0,0,0-.338-.722,1.131,1.131,0,0,0-.777-.274,1.077,1.077,0,0,0-.768.283,1.106,1.106,0,0,0-.347.713Zm5.918,2.8q-1.28,0-1.28-1.234v-2.358h-.75v-1.042h.75v-1.234h1.2v1.234h.923v1.042h-.923v2.038a.592.592,0,0,0,.11.366.365.365,0,0,0,.3.137.54.54,0,0,0,.411-.137l.256.9A1.452,1.452,0,0,1,197.434,493.44Zm4.708-.11v-2.751a.735.735,0,0,0-.841-.823,1.249,1.249,0,0,0-1.024.53v3.044h-1.188v-6.243h1.188V489.4a1.975,1.975,0,0,1,.612-.484,2.051,2.051,0,0,1,.978-.219,1.3,1.3,0,0,1,1.462,1.426v3.208h-1.188Zm4.5.11a2.4,2.4,0,0,1-1.746-.658,2.5,2.5,0,0,1,0-3.4,2.238,2.238,0,0,1,1.673-.686,2.1,2.1,0,0,1,1.627.695,2.533,2.533,0,0,1,.64,1.8v.256h-3.364a1.2,1.2,0,0,0,.384.74,1.3,1.3,0,0,0,.914.311,1.967,1.967,0,0,0,.631-.119,1.6,1.6,0,0,0,.576-.329l.53.768a2.336,2.336,0,0,1-.841.466A3.388,3.388,0,0,1,206.639,493.44Zm1.042-2.8a1,1,0,0,0-.338-.722,1.131,1.131,0,0,0-.777-.274,1.077,1.077,0,0,0-.768.283,1.106,1.106,0,0,0-.347.713Zm4.437,2.687v-6.243h1.325v6.243Zm5.38.11a2.964,2.964,0,0,1-2.075-.676,2.486,2.486,0,0,1-.74-1.919v-3.757h1.344v3.7a1.549,1.549,0,0,0,.366,1.069,1.439,1.439,0,0,0,1.106.4,1.409,1.409,0,0,0,1.1-.4,1.55,1.55,0,0,0,.366-1.069v-3.7h1.353v3.748a2.5,2.5,0,0,1-.731,1.919A2.933,2.933,0,0,1,217.5,493.44Zm8.516,0a2.373,2.373,0,1,1,0-4.744,2.178,2.178,0,0,1,1.124.256,1.965,1.965,0,0,1,.658.558l-.768.731a1.087,1.087,0,0,0-.96-.484,1.17,1.17,0,0,0-.887.366,1.312,1.312,0,0,0-.338.941,1.357,1.357,0,0,0,.338.96,1.17,1.17,0,0,0,.887.366,1.11,1.11,0,0,0,.96-.494l.768.722a2,2,0,0,1-.658.576A2.244,2.244,0,0,1,226.014,493.44Zm5.274-.11v-.466a1.775,1.775,0,0,1-1.426.576,1.607,1.607,0,0,1-1.115-.411,1.41,1.41,0,0,1-.457-1.088,1.356,1.356,0,0,1,.43-1.051,1.625,1.625,0,0,1,1.143-.4,1.752,1.752,0,0,1,1.426.548v-.6a.644.644,0,0,0-.274-.548,1.116,1.116,0,0,0-.713-.21,1.867,1.867,0,0,0-1.316.53l-.457-.8a2.935,2.935,0,0,1,1.974-.713,2.168,2.168,0,0,1,1.472.448,1.581,1.581,0,0,1,.512,1.271v2.916Zm-.951-.695a1.107,1.107,0,0,0,.951-.393v-.558a1.107,1.107,0,0,0-.951-.393.985.985,0,0,0-.6.183.577.577,0,0,0-.247.5.559.559,0,0,0,.247.484A1.022,1.022,0,0,0,230.337,492.636Zm8.93.695v-2.852q0-.722-.676-.722a.96.96,0,0,0-.567.174,1.437,1.437,0,0,0-.366.347v3.053h-1.2v-2.852q0-.722-.676-.722a.946.946,0,0,0-.558.174,1.513,1.513,0,0,0-.375.356v3.044h-1.188v-4.524h1.188v.594a1.415,1.415,0,0,1,.585-.475,1.9,1.9,0,0,1,.887-.229,1.184,1.184,0,0,1,1.261.823,1.666,1.666,0,0,1,.64-.585,1.859,1.859,0,0,1,.914-.238,1.192,1.192,0,0,1,1.325,1.371v3.263Zm4.949.11a1.658,1.658,0,0,1-1.389-.686v2.294h-1.188v-6.243h1.188v.576a1.689,1.689,0,0,1,1.389-.686,1.821,1.821,0,0,1,1.444.631,2.531,2.531,0,0,1,.558,1.737,2.6,2.6,0,0,1-.548,1.737,1.819,1.819,0,0,1-1.453.64Zm-.375-1.051a1.026,1.026,0,0,0,.823-.366,1.4,1.4,0,0,0,.32-.96,1.356,1.356,0,0,0-.32-.941,1.026,1.026,0,0,0-.823-.366,1.237,1.237,0,0,0-.585.155,1.152,1.152,0,0,0-.43.356v1.6a1.189,1.189,0,0,0,.43.375A1.3,1.3,0,0,0,243.841,492.389Zm6.3.941v-.567a2.028,2.028,0,0,1-1.59.676,1.462,1.462,0,0,1-1.106-.375,1.5,1.5,0,0,1-.347-1.042v-3.217h1.188v2.742a.739.739,0,0,0,.832.841,1.273,1.273,0,0,0,1.024-.521v-3.062h1.188v4.524Zm4,.11a3.506,3.506,0,0,1-1.133-.183,2.476,2.476,0,0,1-.887-.521l.512-.832a2.347,2.347,0,0,0,.722.439,2.232,2.232,0,0,0,.841.183q.759,0,.759-.484a.3.3,0,0,0-.2-.283,2.489,2.489,0,0,0-.494-.155l-.649-.137q-1.344-.292-1.344-1.344a1.224,1.224,0,0,1,.521-1.024,2.121,2.121,0,0,1,1.334-.4,2.8,2.8,0,0,1,1.819.622l-.475.813a1.624,1.624,0,0,0-.558-.375,1.923,1.923,0,0,0-.777-.155.881.881,0,0,0-.521.137.376.376,0,0,0-.192.32.266.266,0,0,0,.192.247,3.032,3.032,0,0,0,.494.146q.3.064.649.146a2.365,2.365,0,0,1,.649.238,1.345,1.345,0,0,1,.494.43,1.185,1.185,0,0,1,.2.731,1.252,1.252,0,0,1-.539,1.051A2.325,2.325,0,0,1,254.142,493.44Zm3.907-2.02a1.172,1.172,0,0,1-.311-.823,1.345,1.345,0,0,1,.686-1.124,3.158,3.158,0,0,0,.53-.43.493.493,0,0,0,.155-.338.476.476,0,0,0-.174-.366.772.772,0,0,0-.558-.165,1.445,1.445,0,0,0-1.152.576l-.759-.85a2.451,2.451,0,0,1,.9-.667,2.8,2.8,0,0,1,1.143-.238,2.227,2.227,0,0,1,1.417.411,1.276,1.276,0,0,1,.53,1.069,1.617,1.617,0,0,1-.777,1.334,4.065,4.065,0,0,0-.631.53.563.563,0,0,0-.155.384.487.487,0,0,0,.174.393Zm.448,2.011a.765.765,0,0,1-.759-.759.781.781,0,0,1,.759-.759.708.708,0,0,1,.53.229.727.727,0,0,1,.229.53.738.738,0,0,1-.229.539A.722.722,0,0,1,258.5,493.431Z" transform="translate(-42.651 -137.01)"/>
        </g>
      </g>
    </g>
    <g id="Group_143" data-name="Group 143">
      <g id="Group_136" data-name="Group 136">
        <path id="Path_107" data-name="Path 107" class="cls-8" d="M700.591,375h0a13.588,13.588,0,0,1,13.588-13.588h36.868A13.588,13.588,0,0,1,764.635,375h0a13.588,13.588,0,0,1-13.588,13.588H714.179A13.588,13.588,0,0,1,700.591,375Z" transform="translate(-266.412 -84.891)"/>
        <path id="Path_108" data-name="Path 108" class="cls-2" d="M720.546,385.883a2.486,2.486,0,0,1-1.947-.8l.366-.484a2.04,2.04,0,0,0,.731.539,2.157,2.157,0,0,0,.868.183,1.425,1.425,0,0,0,.868-.238.757.757,0,0,0,.329-.631q0-.6-.941-.859a7.913,7.913,0,0,1-1.435-.475,1.326,1.326,0,0,1-.466-.43,1.171,1.171,0,0,1-.165-.631,1.238,1.238,0,0,1,.484-1.005,1.932,1.932,0,0,1,1.261-.4,2.363,2.363,0,0,1,1.8.7l-.384.466a1.867,1.867,0,0,0-1.462-.612,1.181,1.181,0,0,0-.75.229.686.686,0,0,0-.292.576.556.556,0,0,0,.238.457,2.066,2.066,0,0,0,.713.3,6.427,6.427,0,0,1,1.389.484,1.343,1.343,0,0,1,.484.475,1.222,1.222,0,0,1,.174.667,1.32,1.32,0,0,1-.512,1.1A2.139,2.139,0,0,1,720.546,385.883Zm4.5,0a1.723,1.723,0,0,1-1.307-.539,1.956,1.956,0,0,1-.512-1.389,1.916,1.916,0,0,1,.512-1.389,1.854,1.854,0,0,1,2.614,0,1.916,1.916,0,0,1,.512,1.389,1.956,1.956,0,0,1-.512,1.389A1.723,1.723,0,0,1,725.051,385.883Zm0-.512a1.093,1.093,0,0,0,.868-.393,1.51,1.51,0,0,0,.347-1.024,1.475,1.475,0,0,0-.347-1.015,1.083,1.083,0,0,0-.868-.4,1.12,1.12,0,0,0-.877.393,1.489,1.489,0,0,0-.347,1.024,1.514,1.514,0,0,0,.338,1.024A1.13,1.13,0,0,0,725.051,385.371Zm4.478.512a1.731,1.731,0,0,1-1.325-.548,2.117,2.117,0,0,1,0-2.76,1.731,1.731,0,0,1,1.325-.548,1.606,1.606,0,0,1,1.344.64l-.384.347a1.1,1.1,0,0,0-.932-.475,1.189,1.189,0,0,0-.923.393,1.7,1.7,0,0,0,0,2.057,1.2,1.2,0,0,0,.923.384,1.112,1.112,0,0,0,.932-.475l.384.347A1.606,1.606,0,0,1,729.529,385.883Zm2.516-4.287a.381.381,0,0,1-.265-.11.372.372,0,0,1-.11-.274.361.361,0,0,1,.11-.265.367.367,0,0,1,.265-.119.358.358,0,0,1,.274.119.348.348,0,0,1,.119.265.358.358,0,0,1-.119.274A.372.372,0,0,1,732.044,381.6Zm-.283,4.2v-3.674h.576v3.674Zm4.058,0v-.42a1.567,1.567,0,0,1-1.216.512,1.287,1.287,0,0,1-.923-.347,1.167,1.167,0,0,1-.366-.868,1.144,1.144,0,0,1,.357-.868,1.319,1.319,0,0,1,.932-.338,1.525,1.525,0,0,1,1.216.494V383.3a.68.68,0,0,0-.265-.576,1.073,1.073,0,0,0-.667-.2,1.485,1.485,0,0,0-1.124.512l-.265-.393a1.939,1.939,0,0,1,1.462-.612,1.52,1.52,0,0,1,1.051.329,1.153,1.153,0,0,1,.375.914v2.523Zm-1.015-.32a1.181,1.181,0,0,0,1.015-.457v-.695a1.191,1.191,0,0,0-1.015-.448.951.951,0,0,0-.658.229.733.733,0,0,0-.247.576.751.751,0,0,0,.247.576A.975.975,0,0,0,734.8,385.472Zm2.82.32v-5.073h.576v5.073Zm8.126,0v-4.177l-1.727,4.177h-.256l-1.718-4.177v4.177h-.631v-5.073h.9l1.572,3.821,1.581-3.821h.9v5.073Zm3.611.091a1.8,1.8,0,0,1-1.353-.539,1.916,1.916,0,0,1-.521-1.389,1.953,1.953,0,0,1,.512-1.371,1.7,1.7,0,0,1,1.3-.558,1.624,1.624,0,0,1,1.28.548,2.074,2.074,0,0,1,.484,1.426v.137H748.09a1.309,1.309,0,0,0,.4.923,1.328,1.328,0,0,0,.923.347,1.559,1.559,0,0,0,1.133-.457l.274.366A1.979,1.979,0,0,1,749.361,385.883Zm1.143-2.157a1.215,1.215,0,0,0-.338-.868,1.155,1.155,0,0,0-.877-.357,1.141,1.141,0,0,0-.85.357,1.249,1.249,0,0,0-.347.868Zm4.252,2.066v-.548a1.671,1.671,0,0,1-.539.466,1.451,1.451,0,0,1-.7.174,1.489,1.489,0,0,1-1.188-.521,2.108,2.108,0,0,1-.448-1.408,2.072,2.072,0,0,1,.448-1.4,1.5,1.5,0,0,1,1.188-.53,1.433,1.433,0,0,1,.695.174,1.7,1.7,0,0,1,.548.475v-1.956h.567v5.073Zm-1.106-.42a1.316,1.316,0,0,0,.64-.164,1.192,1.192,0,0,0,.466-.411v-1.664a1.389,1.389,0,0,0-1.106-.594,1.067,1.067,0,0,0-.859.393,1.548,1.548,0,0,0-.32,1.024,1.585,1.585,0,0,0,.32,1.033A1.061,1.061,0,0,0,753.65,385.371Zm3.2-3.775a.382.382,0,0,1-.265-.11.372.372,0,0,1-.11-.274.361.361,0,0,1,.11-.265.367.367,0,0,1,.265-.119.358.358,0,0,1,.274.119.348.348,0,0,1,.119.265.358.358,0,0,1-.119.274A.372.372,0,0,1,756.853,381.6Zm-.283,4.2v-3.674h.576v3.674Zm4.058,0v-.42a1.567,1.567,0,0,1-1.216.512,1.287,1.287,0,0,1-.923-.347,1.167,1.167,0,0,1-.366-.868,1.144,1.144,0,0,1,.356-.868,1.319,1.319,0,0,1,.932-.338,1.525,1.525,0,0,1,1.216.494V383.3a.68.68,0,0,0-.265-.576,1.073,1.073,0,0,0-.667-.2,1.485,1.485,0,0,0-1.124.512l-.265-.393a1.939,1.939,0,0,1,1.462-.612,1.52,1.52,0,0,1,1.051.329,1.153,1.153,0,0,1,.375.914v2.523Zm-1.015-.32a1.181,1.181,0,0,0,1.015-.457v-.695a1.191,1.191,0,0,0-1.015-.448.951.951,0,0,0-.658.229.733.733,0,0,0-.247.576.751.751,0,0,0,.247.576A.975.975,0,0,0,759.613,385.472Z" transform="translate(-273.886 -92.872)"/>
      </g>
      <g id="Group_137" data-name="Group 137">
        <path id="Path_109" data-name="Path 109" class="cls-8" d="M584.866,375h0a13.588,13.588,0,0,1,13.588-13.588h36.868A13.588,13.588,0,0,1,648.91,375h0a13.588,13.588,0,0,1-13.588,13.588H598.454A13.588,13.588,0,0,1,584.866,375Z" transform="translate(-218.384 -84.89)"/>
        <path id="Path_110" data-name="Path 110" class="cls-2" d="M621.889,385.841v-5.073h2.038a1.538,1.538,0,0,1,1.152.439,1.579,1.579,0,0,1-.009,2.194,1.564,1.564,0,0,1-1.143.43H622.52v2.011Zm1.965-2.578a1,1,0,0,0,.722-.265.918.918,0,0,0,.283-.7.907.907,0,0,0-.283-.695,1,1,0,0,0-.722-.265H622.52v1.929Zm4.193,2.669a1.723,1.723,0,0,1-1.307-.539,1.956,1.956,0,0,1-.512-1.389,1.916,1.916,0,0,1,.512-1.389,1.854,1.854,0,0,1,2.614,0,1.916,1.916,0,0,1,.512,1.389,1.956,1.956,0,0,1-.512,1.389A1.723,1.723,0,0,1,628.047,385.932Zm0-.512a1.094,1.094,0,0,0,.868-.393,1.51,1.51,0,0,0,.347-1.024,1.475,1.475,0,0,0-.347-1.015,1.083,1.083,0,0,0-.868-.4,1.121,1.121,0,0,0-.877.393,1.489,1.489,0,0,0-.347,1.024,1.514,1.514,0,0,0,.338,1.024A1.13,1.13,0,0,0,628.047,385.421Zm4.021.512a1.96,1.96,0,0,1-1.49-.576l.3-.411a1.555,1.555,0,0,0,.5.366,1.627,1.627,0,0,0,.7.155,1.03,1.03,0,0,0,.649-.174.571.571,0,0,0,.219-.457.418.418,0,0,0-.238-.375,3.416,3.416,0,0,0-.9-.3,1.865,1.865,0,0,1-.85-.356.828.828,0,0,1-.292-.667.919.919,0,0,1,.375-.759,1.542,1.542,0,0,1,1-.3,1.844,1.844,0,0,1,1.362.53l-.265.4a1.2,1.2,0,0,0-.457-.329,1.45,1.45,0,0,0-.64-.137.948.948,0,0,0-.6.174.5.5,0,0,0-.21.4.406.406,0,0,0,.238.356,3.989,3.989,0,0,0,.9.265,1.8,1.8,0,0,1,.841.393.876.876,0,0,1,.292.695.956.956,0,0,1-.4.8A1.667,1.667,0,0,1,632.068,385.932Zm3.388,0q-.813,0-.813-.859v-2.4h-.612v-.5h.612v-1.005h.567v1.005h.75v.5h-.75v2.285a.6.6,0,0,0,.091.338.324.324,0,0,0,.283.128.519.519,0,0,0,.384-.146l.174.42A.928.928,0,0,1,635.456,385.932Zm3.023,0a1.8,1.8,0,0,1-1.353-.539,1.916,1.916,0,0,1-.521-1.389,1.952,1.952,0,0,1,.512-1.371,1.7,1.7,0,0,1,1.3-.558,1.624,1.624,0,0,1,1.28.548,2.074,2.074,0,0,1,.484,1.426v.137h-2.971a1.31,1.31,0,0,0,.4.923,1.328,1.328,0,0,0,.923.347,1.559,1.559,0,0,0,1.133-.457l.274.366A1.979,1.979,0,0,1,638.479,385.932Zm1.143-2.157a1.215,1.215,0,0,0-.338-.868,1.155,1.155,0,0,0-.877-.356,1.141,1.141,0,0,0-.85.356,1.249,1.249,0,0,0-.347.868Zm1.583,2.066v-3.674h.576v.594a1.508,1.508,0,0,1,1.225-.667v.585l-.229-.027a1.147,1.147,0,0,0-.576.192,1.059,1.059,0,0,0-.421.393v2.6Z" transform="translate(-233.749 -92.923)"/>
      </g>
      <g id="Group_138" data-name="Group 138">
        <g class="cls-10" transform="matrix(1, 0, 0, 1, -2648, -16066)">
          <path id="Path_122-2" data-name="Path 122" class="cls-6" d="M469.145,375h0a13.588,13.588,0,0,1,13.588-13.588H519.6A13.588,13.588,0,0,1,533.189,375h0A13.588,13.588,0,0,1,519.6,388.591H482.733A13.588,13.588,0,0,1,469.145,375Z" transform="translate(2477.64 15981.11)"/>
        </g>
        <path id="Path_123" data-name="Path 123" class="cls-7" d="M504.655,385.844l-1.115-4.095-1.115,4.095h-.686l-1.444-5.073h.695L502.114,385l1.17-4.232h.521L504.966,385l1.124-4.232h.695l-1.444,5.073Zm4.645.091a1.8,1.8,0,0,1-1.353-.539,1.916,1.916,0,0,1-.521-1.389,1.952,1.952,0,0,1,.512-1.371,1.7,1.7,0,0,1,1.3-.558,1.624,1.624,0,0,1,1.28.548,2.074,2.074,0,0,1,.484,1.426v.137h-2.971a1.309,1.309,0,0,0,.4.923,1.328,1.328,0,0,0,.923.347,1.559,1.559,0,0,0,1.133-.457l.274.366A1.979,1.979,0,0,1,509.3,385.935Zm1.143-2.157a1.215,1.215,0,0,0-.338-.868,1.155,1.155,0,0,0-.877-.356,1.141,1.141,0,0,0-.85.356,1.249,1.249,0,0,0-.347.868Zm2.159,1.069a1.134,1.134,0,0,0,.448.411,1.334,1.334,0,0,0,.649.165,1.061,1.061,0,0,0,.859-.384,1.812,1.812,0,0,0,0-2.057,1.035,1.035,0,0,0-.859-.393,1.279,1.279,0,0,0-.649.174,1.2,1.2,0,0,0-.448.42Zm-.576,1v-5.073h.576v1.956a1.526,1.526,0,0,1,2.413-.11,2.368,2.368,0,0,1,0,2.8,1.479,1.479,0,0,1-1.179.521,1.5,1.5,0,0,1-.713-.174,1.6,1.6,0,0,1-.521-.466v.548Zm5.653.091a1.96,1.96,0,0,1-1.49-.576l.3-.411a1.555,1.555,0,0,0,.5.366,1.628,1.628,0,0,0,.7.155,1.03,1.03,0,0,0,.649-.174.571.571,0,0,0,.219-.457.418.418,0,0,0-.238-.375,3.415,3.415,0,0,0-.9-.3,1.865,1.865,0,0,1-.85-.356.828.828,0,0,1-.292-.667.919.919,0,0,1,.375-.759,1.542,1.542,0,0,1,1-.3,1.844,1.844,0,0,1,1.362.53l-.265.4a1.2,1.2,0,0,0-.457-.329,1.45,1.45,0,0,0-.64-.137.947.947,0,0,0-.6.174.5.5,0,0,0-.21.4.406.406,0,0,0,.238.356,3.988,3.988,0,0,0,.9.265,1.8,1.8,0,0,1,.841.393.876.876,0,0,1,.292.695.955.955,0,0,1-.4.8A1.667,1.667,0,0,1,517.679,385.935Zm2.739-4.287a.382.382,0,0,1-.265-.11.372.372,0,0,1-.11-.274.361.361,0,0,1,.11-.265.367.367,0,0,1,.265-.119.358.358,0,0,1,.274.119.347.347,0,0,1,.119.265.357.357,0,0,1-.119.274A.372.372,0,0,1,520.418,381.649Zm-.283,4.2V382.17h.576v3.674Zm2.687.091q-.813,0-.813-.859v-2.4H521.4v-.5h.612v-1.005h.567v1.005h.75v.5h-.75v2.285a.6.6,0,0,0,.091.338.325.325,0,0,0,.283.128.519.519,0,0,0,.384-.146l.174.42A.928.928,0,0,1,522.821,385.935Zm3.023,0a1.8,1.8,0,0,1-1.353-.539,1.916,1.916,0,0,1-.521-1.389,1.952,1.952,0,0,1,.512-1.371,1.7,1.7,0,0,1,1.3-.558,1.624,1.624,0,0,1,1.28.548,2.074,2.074,0,0,1,.484,1.426v.137h-2.971a1.309,1.309,0,0,0,.4.923,1.328,1.328,0,0,0,.923.347,1.559,1.559,0,0,0,1.133-.457l.274.366A1.979,1.979,0,0,1,525.844,385.935Zm1.143-2.157a1.215,1.215,0,0,0-.338-.868,1.155,1.155,0,0,0-.878-.356,1.141,1.141,0,0,0-.85.356,1.249,1.249,0,0,0-.347.868Z" transform="translate(-183.286 -92.924)"/>
      </g>
      <g id="Group_135" data-name="Group 135">
        <path id="Path_124" data-name="Path 124" class="cls-8" d="M816.32,375h0a13.588,13.588,0,0,1,13.588-13.588h36.868A13.588,13.588,0,0,1,880.364,375h0a13.588,13.588,0,0,1-13.588,13.588H829.908A13.588,13.588,0,0,1,816.32,375Z" transform="translate(-314.442 -84.891)"/>
        <path id="Path_125" data-name="Path 125" class="cls-2" d="M858.748,385.844v-5.073h2.258a1.458,1.458,0,0,1,1.033.356,1.182,1.182,0,0,1,.393.932,1.2,1.2,0,0,1-.247.768,1.12,1.12,0,0,1-.649.4,1.061,1.061,0,0,1,.695.42,1.283,1.283,0,0,1,.292.823,1.312,1.312,0,0,1-.393,1,1.466,1.466,0,0,1-1.069.375Zm2.148-2.87a.872.872,0,0,0,.658-.229.842.842,0,0,0,.219-.594.819.819,0,0,0-.219-.576.853.853,0,0,0-.658-.238h-1.517v1.636Zm.037,2.3a.984.984,0,0,0,.695-.229.829.829,0,0,0,.247-.64.806.806,0,0,0-.265-.631.934.934,0,0,0-.676-.247h-1.554v1.746Zm2.692.567v-5.073h.576v5.073Zm3.363.091a1.723,1.723,0,0,1-1.307-.539,1.956,1.956,0,0,1-.512-1.389,1.916,1.916,0,0,1,.512-1.389,1.854,1.854,0,0,1,2.614,0,1.916,1.916,0,0,1,.512,1.389,1.956,1.956,0,0,1-.512,1.389A1.723,1.723,0,0,1,866.988,385.935Zm0-.512a1.094,1.094,0,0,0,.868-.393,1.51,1.51,0,0,0,.347-1.024,1.475,1.475,0,0,0-.347-1.015,1.083,1.083,0,0,0-.868-.4,1.121,1.121,0,0,0-.878.393,1.489,1.489,0,0,0-.347,1.024,1.514,1.514,0,0,0,.338,1.024A1.13,1.13,0,0,0,866.988,385.424Zm4.332,1.91a2.548,2.548,0,0,1-.823-.119,1.677,1.677,0,0,1-.658-.43l.283-.42a1.263,1.263,0,0,0,.512.384,1.95,1.95,0,0,0,.686.11,1.217,1.217,0,0,0,.868-.293,1.051,1.051,0,0,0,.311-.8v-.53a1.67,1.67,0,0,1-.53.475,1.393,1.393,0,0,1-.7.183,1.5,1.5,0,0,1-1.2-.521,2.094,2.094,0,0,1-.439-1.38,2.051,2.051,0,0,1,.448-1.4,1.518,1.518,0,0,1,1.188-.512,1.464,1.464,0,0,1,1.234.649v-.558h.567v3.565a1.516,1.516,0,0,1-.457,1.188A1.86,1.86,0,0,1,871.319,387.334Zm.082-1.947a1.266,1.266,0,0,0,.612-.165,1.354,1.354,0,0,0,.484-.439v-1.6a1.281,1.281,0,0,0-.484-.43,1.3,1.3,0,0,0-.612-.165,1.051,1.051,0,0,0-.859.393,1.735,1.735,0,0,0,.009,2.02A1.068,1.068,0,0,0,871.4,385.387Z" transform="translate(-332.05 -92.924)"/>
      </g>
      <path id="Path_129" data-name="Path 129" class="cls-4" d="M800.305,339.063V323.314H700.573V307.557" transform="translate(-266.405 -62.539)"/>
      <path id="Path_131" data-name="Path 131" class="cls-4" d="M523.885,339.063V323.314H627.247V307.557" transform="translate(-193.076 -62.539)"/>
      <path id="Path_133" data-name="Path 133" class="cls-4" d="M639.606,339.073V323.325h35.67v-15.74" transform="translate(-241.102 -62.551)"/>
      <path id="Path_135" data-name="Path 135" class="cls-4" d="M732.613,339.063V323.314H700.591V307.557" transform="translate(-266.412 -62.539)"/>
      <g id="Group_134" data-name="Group 134">
        <path id="Path_137" data-name="Path 137" class="cls-4" d="M523.885,407.871v9.12" transform="translate(-193.076 -104.171)"/>
        <path id="Path_138" data-name="Path 138" class="cls-8" d="M520.581,423.462l1.932,5.309,1.932-5.309Z" transform="translate(-191.705 -110.642)"/>
        <g id="Group_132" data-name="Group 132" transform="translate(0 -3)">
          <path id="Path_140" data-name="Path 140" class="cls-9" d="M444.511,455.273v-2.623h-2.952v2.623h-1.325V449.03h1.325v2.45h2.952v-2.45h1.334v6.243Zm4.63.11a2.285,2.285,0,0,1-2.386-2.376,2.391,2.391,0,1,1,4.1,1.709A2.326,2.326,0,0,1,449.141,455.382Zm0-1.051a1.053,1.053,0,0,0,.832-.366,1.4,1.4,0,0,0,.329-.96,1.362,1.362,0,0,0-.329-.932,1.042,1.042,0,0,0-.832-.375,1.061,1.061,0,0,0-.823.366,1.333,1.333,0,0,0-.329.941,1.394,1.394,0,0,0,.329.969A1.073,1.073,0,0,0,449.141,454.331Zm7.246.941-.96-3.08-.951,3.08h-1.271l-1.38-4.524h1.234l.841,3.044,1-3.044h1.06l.987,3.044.841-3.044h1.234l-1.371,4.524Zm11.23,0v-2.852q0-.722-.676-.722a.96.96,0,0,0-.567.174,1.437,1.437,0,0,0-.366.347v3.053h-1.2v-2.852q0-.722-.676-.722a.946.946,0,0,0-.558.174,1.514,1.514,0,0,0-.375.356v3.044h-1.188v-4.524H463.2v.594a1.415,1.415,0,0,1,.585-.475,1.9,1.9,0,0,1,.887-.229,1.184,1.184,0,0,1,1.261.823,1.665,1.665,0,0,1,.64-.585,1.859,1.859,0,0,1,.914-.238,1.192,1.192,0,0,1,1.325,1.371v3.263Zm2.956-5.009a.7.7,0,0,1-.713-.713.657.657,0,0,1,.21-.494.7.7,0,0,1,.5-.2.682.682,0,0,1,.5.2.657.657,0,0,1,.21.494.7.7,0,0,1-.21.512A.682.682,0,0,1,470.574,450.264Zm-.585,5.009v-4.524h1.188v4.524Zm4.214,1.837a3.315,3.315,0,0,1-1.051-.155,2.509,2.509,0,0,1-.9-.521l.539-.859a1.8,1.8,0,0,0,1.408.558,1.282,1.282,0,0,0,.914-.3,1.066,1.066,0,0,0,.329-.841v-.457a1.716,1.716,0,0,1-1.389.713,1.843,1.843,0,0,1-1.453-.622,2.878,2.878,0,0,1,0-3.354,1.814,1.814,0,0,1,1.453-.631,1.682,1.682,0,0,1,1.389.695v-.585h1.207v4.214a2,2,0,0,1-.64,1.59A2.669,2.669,0,0,1,474.2,457.11Zm.228-2.925a1.261,1.261,0,0,0,.585-.146,1.23,1.23,0,0,0,.43-.366v-1.462a1.116,1.116,0,0,0-.43-.366,1.26,1.26,0,0,0-.585-.146,1.1,1.1,0,0,0-.823.329,1.256,1.256,0,0,0-.32.914,1.269,1.269,0,0,0,.32.923A1.114,1.114,0,0,0,474.431,454.185Zm6.453,1.088v-2.751a.735.735,0,0,0-.841-.823,1.249,1.249,0,0,0-1.024.53v3.044h-1.188V449.03h1.188v2.313a1.975,1.975,0,0,1,.612-.484,2.051,2.051,0,0,1,.978-.219,1.3,1.3,0,0,1,1.462,1.426v3.208Zm3.884.11q-1.28,0-1.28-1.234V451.79h-.75v-1.042h.75v-1.234h1.2v1.234h.923v1.042h-.923v2.038a.592.592,0,0,0,.11.366.365.365,0,0,0,.3.137.54.54,0,0,0,.411-.137l.256.9A1.452,1.452,0,0,1,484.769,455.382Zm8.018-.11-.96-3.08-.951,3.08h-1.271l-1.38-4.524h1.234l.841,3.044,1-3.044h1.06l.987,3.044.841-3.044h1.234l-1.371,4.524Zm5.351.11a2.4,2.4,0,0,1-1.746-.658,2.5,2.5,0,0,1,0-3.4,2.238,2.238,0,0,1,1.673-.686,2.1,2.1,0,0,1,1.627.695,2.533,2.533,0,0,1,.64,1.8v.256h-3.364a1.2,1.2,0,0,0,.384.74,1.3,1.3,0,0,0,.914.311,1.967,1.967,0,0,0,.631-.119,1.6,1.6,0,0,0,.576-.329l.53.768a2.337,2.337,0,0,1-.841.466A3.389,3.389,0,0,1,498.139,455.382Zm1.042-2.8a1,1,0,0,0-.338-.722,1.132,1.132,0,0,0-.777-.274,1.077,1.077,0,0,0-.768.283,1.106,1.106,0,0,0-.347.713Zm4.994-2.322a.7.7,0,0,1-.713-.713.657.657,0,0,1,.21-.494.7.7,0,0,1,.5-.2.682.682,0,0,1,.5.2.657.657,0,0,1,.21.494.7.7,0,0,1-.21.512A.682.682,0,0,1,504.175,450.264Zm-.585,5.009v-4.524h1.188v4.524Zm5.412,0V452.54a.739.739,0,0,0-.832-.841,1.2,1.2,0,0,0-1.024.53v3.044h-1.188v-4.524h1.188v.594a1.976,1.976,0,0,1,.612-.484,2,2,0,0,1,.969-.219,1.422,1.422,0,0,1,1.106.393,1.484,1.484,0,0,1,.356,1.051v3.19Zm4.478.11a2.373,2.373,0,1,1,0-4.744,2.179,2.179,0,0,1,1.124.256,1.966,1.966,0,0,1,.658.558l-.768.731a1.087,1.087,0,0,0-.96-.484,1.17,1.17,0,0,0-.887.366,1.312,1.312,0,0,0-.338.941,1.357,1.357,0,0,0,.338.96,1.17,1.17,0,0,0,.887.366,1.11,1.11,0,0,0,.96-.494l.768.722a2,2,0,0,1-.658.576A2.244,2.244,0,0,1,513.48,455.382Zm2.568-.11v-4.524h1.188v.622a2,2,0,0,1,.622-.512,1.648,1.648,0,0,1,.813-.219V451.8l-.329-.027a1.493,1.493,0,0,0-.64.155,1.113,1.113,0,0,0-.466.356v2.989Zm5.49.11a2.4,2.4,0,0,1-1.746-.658,2.5,2.5,0,0,1,0-3.4,2.238,2.238,0,0,1,1.673-.686,2.1,2.1,0,0,1,1.627.695,2.533,2.533,0,0,1,.64,1.8v.256h-3.364a1.2,1.2,0,0,0,.384.74,1.3,1.3,0,0,0,.914.311,1.967,1.967,0,0,0,.631-.119,1.6,1.6,0,0,0,.576-.329l.53.768a2.337,2.337,0,0,1-.841.466A3.389,3.389,0,0,1,521.538,455.382Zm1.042-2.8a1,1,0,0,0-.338-.722,1.132,1.132,0,0,0-.777-.274,1.077,1.077,0,0,0-.768.283,1.106,1.106,0,0,0-.347.713Zm4.719,2.687v-.466a1.775,1.775,0,0,1-1.426.576,1.607,1.607,0,0,1-1.115-.411,1.411,1.411,0,0,1-.457-1.088,1.356,1.356,0,0,1,.43-1.051,1.625,1.625,0,0,1,1.143-.4,1.752,1.752,0,0,1,1.426.548v-.6a.644.644,0,0,0-.274-.548,1.116,1.116,0,0,0-.713-.21,1.867,1.867,0,0,0-1.316.53l-.457-.8a2.935,2.935,0,0,1,1.974-.713,2.168,2.168,0,0,1,1.472.448,1.581,1.581,0,0,1,.512,1.271v2.916Zm-.951-.695a1.107,1.107,0,0,0,.951-.393v-.558a1.107,1.107,0,0,0-.951-.393.985.985,0,0,0-.6.183.576.576,0,0,0-.247.5.559.559,0,0,0,.247.484A1.022,1.022,0,0,0,526.348,454.578Zm4.954.8a3.506,3.506,0,0,1-1.133-.183,2.476,2.476,0,0,1-.887-.521l.512-.832a2.347,2.347,0,0,0,.722.439,2.232,2.232,0,0,0,.841.183q.759,0,.759-.484a.3.3,0,0,0-.2-.283,2.493,2.493,0,0,0-.494-.155l-.649-.137q-1.344-.293-1.344-1.344a1.225,1.225,0,0,1,.521-1.024,2.121,2.121,0,0,1,1.335-.4,2.8,2.8,0,0,1,1.819.622l-.475.814a1.625,1.625,0,0,0-.558-.375,1.923,1.923,0,0,0-.777-.155.881.881,0,0,0-.521.137.376.376,0,0,0-.192.32.266.266,0,0,0,.192.247,3.033,3.033,0,0,0,.494.146q.3.064.649.146a2.365,2.365,0,0,1,.649.238,1.344,1.344,0,0,1,.494.43,1.185,1.185,0,0,1,.2.731,1.252,1.252,0,0,1-.539,1.051A2.325,2.325,0,0,1,531.3,455.382Zm4.958,0a2.4,2.4,0,0,1-1.746-.658,2.5,2.5,0,0,1,0-3.4,2.237,2.237,0,0,1,1.673-.686,2.1,2.1,0,0,1,1.627.695,2.533,2.533,0,0,1,.64,1.8v.256h-3.364a1.2,1.2,0,0,0,.384.74,1.3,1.3,0,0,0,.914.311,1.967,1.967,0,0,0,.631-.119,1.6,1.6,0,0,0,.576-.329l.53.768a2.336,2.336,0,0,1-.841.466A3.389,3.389,0,0,1,536.261,455.382Zm1.042-2.8a1,1,0,0,0-.338-.722,1.132,1.132,0,0,0-.777-.274,1.077,1.077,0,0,0-.768.283,1.106,1.106,0,0,0-.347.713Z" transform="translate(-158.359 -121.181)"/>
          <path id="Path_141" data-name="Path 141" class="cls-9" d="M443.045,474.382q-1.28,0-1.28-1.234V470.79h-.75v-1.042h.75v-1.234h1.2v1.234h.923v1.042h-.923v2.038a.592.592,0,0,0,.11.366.365.365,0,0,0,.3.137.54.54,0,0,0,.411-.137l.256.9A1.452,1.452,0,0,1,443.045,474.382Zm4.708-.11v-2.751a.735.735,0,0,0-.841-.823,1.25,1.25,0,0,0-1.024.53v3.044H444.7v-6.243h1.188v2.313a1.976,1.976,0,0,1,.612-.484,2.051,2.051,0,0,1,.978-.219,1.3,1.3,0,0,1,1.462,1.426v3.208h-1.188Zm4.5.11a2.4,2.4,0,0,1-1.746-.658,2.5,2.5,0,0,1,0-3.4,2.237,2.237,0,0,1,1.673-.686,2.1,2.1,0,0,1,1.627.695,2.533,2.533,0,0,1,.64,1.8v.256H451.08a1.2,1.2,0,0,0,.384.74,1.3,1.3,0,0,0,.914.311,1.968,1.968,0,0,0,.631-.119,1.6,1.6,0,0,0,.576-.329l.53.768a2.336,2.336,0,0,1-.841.466A3.389,3.389,0,0,1,452.25,474.382Zm1.042-2.8a1,1,0,0,0-.338-.722,1.131,1.131,0,0,0-.777-.274,1.077,1.077,0,0,0-.768.283,1.106,1.106,0,0,0-.347.713Zm5.579,2.687-1.819-4.524h1.271l1.179,3.144,1.179-3.144h1.28l-1.81,4.524Zm4.217-5.009a.7.7,0,0,1-.713-.713.656.656,0,0,1,.21-.494.7.7,0,0,1,.5-.2.682.682,0,0,1,.5.2.656.656,0,0,1,.21.494.7.7,0,0,1-.21.512A.682.682,0,0,1,463.088,469.263Zm-.585,5.009v-4.524h1.188v4.524Zm3.995.11a3.506,3.506,0,0,1-1.133-.183,2.476,2.476,0,0,1-.887-.521l.512-.832a2.348,2.348,0,0,0,.722.439,2.232,2.232,0,0,0,.841.183q.759,0,.759-.484a.3.3,0,0,0-.2-.283,2.491,2.491,0,0,0-.494-.155l-.649-.137q-1.344-.293-1.344-1.344a1.225,1.225,0,0,1,.521-1.024,2.121,2.121,0,0,1,1.335-.4,2.8,2.8,0,0,1,1.819.622l-.475.813a1.625,1.625,0,0,0-.558-.375,1.923,1.923,0,0,0-.777-.155.881.881,0,0,0-.521.137.376.376,0,0,0-.192.32.266.266,0,0,0,.192.247,3.031,3.031,0,0,0,.494.146q.3.064.649.146a2.364,2.364,0,0,1,.649.238,1.344,1.344,0,0,1,.494.43,1.185,1.185,0,0,1,.2.731,1.252,1.252,0,0,1-.539,1.051A2.325,2.325,0,0,1,466.5,474.382Zm3.423-5.119a.7.7,0,0,1-.713-.713.656.656,0,0,1,.21-.494.7.7,0,0,1,.5-.2.682.682,0,0,1,.5.2.656.656,0,0,1,.21.494.7.7,0,0,1-.21.512A.682.682,0,0,1,469.921,469.263Zm-.585,5.009v-4.524h1.188v4.524Zm3.556-1.453a1.116,1.116,0,0,0,.43.366,1.3,1.3,0,0,0,.585.146,1.059,1.059,0,0,0,.841-.356,1.623,1.623,0,0,0,0-1.91,1.046,1.046,0,0,0-.841-.366,1.237,1.237,0,0,0-.585.155,1.116,1.116,0,0,0-.43.366Zm-1.188,1.453v-6.243h1.188v2.3a1.682,1.682,0,0,1,1.389-.695,1.788,1.788,0,0,1,1.444.658,2.941,2.941,0,0,1,0,3.446,1.809,1.809,0,0,1-1.444.64,1.722,1.722,0,0,1-1.389-.686v.576H471.7Zm6.07-5.009a.7.7,0,0,1-.713-.713.656.656,0,0,1,.21-.494.7.7,0,0,1,.5-.2.682.682,0,0,1,.5.2.656.656,0,0,1,.21.494.7.7,0,0,1-.21.512A.682.682,0,0,1,477.773,469.263Zm-.585,5.009v-4.524h1.188v4.524Zm2.368,0v-6.243h1.188v6.243Zm2.953-5.009a.7.7,0,0,1-.713-.713.656.656,0,0,1,.21-.494.7.7,0,0,1,.5-.2.682.682,0,0,1,.5.2.656.656,0,0,1,.21.494.7.7,0,0,1-.21.512A.682.682,0,0,1,482.509,469.263Zm-.585,5.009v-4.524h1.188v4.524h-1.188Zm3.876.11q-1.28,0-1.28-1.234V470.79h-.75v-1.042h.75v-1.234h1.2v1.234h.923v1.042h-.923v2.038a.592.592,0,0,0,.11.366.365.365,0,0,0,.3.137.54.54,0,0,0,.411-.137l.256.9A1.452,1.452,0,0,1,485.8,474.382Zm1.674.594a.837.837,0,0,0,.375.073.607.607,0,0,0,.622-.329l.174-.384-1.837-4.588h1.271l1.179,3.144,1.179-3.144h1.28l-2.121,5.265a1.539,1.539,0,0,1-.695.859,2.244,2.244,0,0,1-1.015.238,2.536,2.536,0,0,1-.594-.064Zm9.273-.594a2.285,2.285,0,0,1-2.386-2.376,2.391,2.391,0,1,1,4.1,1.709A2.326,2.326,0,0,1,496.747,474.382Zm0-1.051a1.053,1.053,0,0,0,.832-.366,1.4,1.4,0,0,0,.329-.96,1.362,1.362,0,0,0-.329-.932,1.042,1.042,0,0,0-.832-.375,1.061,1.061,0,0,0-.823.366,1.333,1.333,0,0,0-.329.941,1.394,1.394,0,0,0,.329.969A1.073,1.073,0,0,0,496.747,473.331Zm3.535.941V470.79h-.75v-1.042h.75v-.238a1.556,1.556,0,0,1,.42-1.152,1.5,1.5,0,0,1,1.106-.42,1.521,1.521,0,0,1,1.179.42l-.448.7a.668.668,0,0,0-.494-.192.558.558,0,0,0-.411.165.647.647,0,0,0-.155.475v.238h.923v1.042h-.923v3.482Zm7.321.11a2.4,2.4,0,0,1-1.746-.658,2.5,2.5,0,0,1,0-3.4,2.238,2.238,0,0,1,1.673-.686,2.1,2.1,0,0,1,1.627.695,2.533,2.533,0,0,1,.64,1.8v.256h-3.364a1.2,1.2,0,0,0,.384.74,1.3,1.3,0,0,0,.914.311,1.968,1.968,0,0,0,.631-.119,1.6,1.6,0,0,0,.576-.329l.53.768a2.336,2.336,0,0,1-.841.466A3.388,3.388,0,0,1,507.6,474.382Zm1.042-2.8a1,1,0,0,0-.338-.722,1.132,1.132,0,0,0-.777-.274,1.077,1.077,0,0,0-.768.283,1.106,1.106,0,0,0-.347.713Zm4.81,2.687-1.033-1.526-1.042,1.526h-1.316l1.6-2.322-1.508-2.2h1.334l.932,1.4.923-1.4h1.334l-1.517,2.2,1.618,2.322Zm2.505-5.009a.7.7,0,0,1-.713-.713.657.657,0,0,1,.21-.494.7.7,0,0,1,.5-.2.682.682,0,0,1,.5.2.656.656,0,0,1,.21.494.7.7,0,0,1-.21.512A.682.682,0,0,1,515.961,469.263Zm-.585,5.009v-4.524h1.188v4.524Zm3.995.11a3.506,3.506,0,0,1-1.133-.183,2.476,2.476,0,0,1-.887-.521l.512-.832a2.347,2.347,0,0,0,.722.439,2.232,2.232,0,0,0,.841.183q.759,0,.759-.484a.3.3,0,0,0-.2-.283,2.491,2.491,0,0,0-.494-.155l-.649-.137q-1.344-.293-1.344-1.344a1.224,1.224,0,0,1,.521-1.024,2.121,2.121,0,0,1,1.334-.4,2.8,2.8,0,0,1,1.819.622l-.475.813a1.625,1.625,0,0,0-.558-.375,1.923,1.923,0,0,0-.777-.155.881.881,0,0,0-.521.137.376.376,0,0,0-.192.32.266.266,0,0,0,.192.247,3.03,3.03,0,0,0,.494.146q.3.064.649.146a2.365,2.365,0,0,1,.649.238,1.344,1.344,0,0,1,.494.43,1.184,1.184,0,0,1,.2.731,1.252,1.252,0,0,1-.539,1.051A2.325,2.325,0,0,1,519.371,474.382Zm4.346,0q-1.28,0-1.28-1.234V470.79h-.75v-1.042h.75v-1.234h1.2v1.234h.923v1.042h-.923v2.038a.592.592,0,0,0,.11.366.365.365,0,0,0,.3.137.54.54,0,0,0,.411-.137l.256.9A1.452,1.452,0,0,1,523.717,474.382Zm2.24-5.119a.7.7,0,0,1-.713-.713.656.656,0,0,1,.21-.494.7.7,0,0,1,.5-.2.682.682,0,0,1,.5.2.656.656,0,0,1,.21.494.7.7,0,0,1-.21.512A.682.682,0,0,1,525.957,469.263Zm-.585,5.009v-4.524h1.188v4.524Zm5.412,0v-2.733a.739.739,0,0,0-.832-.841,1.2,1.2,0,0,0-1.024.53v3.044H527.74v-4.524h1.188v.594a1.975,1.975,0,0,1,.612-.484,2,2,0,0,1,.969-.219,1.422,1.422,0,0,1,1.106.393,1.484,1.484,0,0,1,.357,1.051v3.19Zm4.222,1.837a3.314,3.314,0,0,1-1.051-.155,2.509,2.509,0,0,1-.9-.521l.539-.859a1.8,1.8,0,0,0,1.408.558,1.282,1.282,0,0,0,.914-.3,1.066,1.066,0,0,0,.329-.841v-.457a1.716,1.716,0,0,1-1.389.713,1.843,1.843,0,0,1-1.453-.622,2.878,2.878,0,0,1,0-3.355,1.814,1.814,0,0,1,1.453-.631,1.682,1.682,0,0,1,1.389.695v-.585h1.207v4.214a2,2,0,0,1-.64,1.59A2.669,2.669,0,0,1,535.006,476.109Zm.229-2.925a1.261,1.261,0,0,0,.585-.146,1.23,1.23,0,0,0,.43-.366V471.21a1.116,1.116,0,0,0-.43-.366,1.261,1.261,0,0,0-.585-.146,1.1,1.1,0,0,0-.823.329,1.256,1.256,0,0,0-.32.914,1.269,1.269,0,0,0,.32.923A1.113,1.113,0,0,0,535.234,473.185Z" transform="translate(-158.684 -129.066)"/>
          <path id="Path_142" data-name="Path 142" class="cls-9" d="M479.889,488.263a.7.7,0,0,1-.713-.713.656.656,0,0,1,.21-.494.7.7,0,0,1,.5-.2.682.682,0,0,1,.5.2.656.656,0,0,1,.21.494.7.7,0,0,1-.21.512A.682.682,0,0,1,479.889,488.263Zm-.585,5.009v-4.524h1.188v4.524Zm5.412,0v-2.733a.739.739,0,0,0-.832-.841,1.2,1.2,0,0,0-1.024.53v3.044h-1.188v-4.524h1.188v.594a1.974,1.974,0,0,1,.612-.484,2,2,0,0,1,.969-.219,1.422,1.422,0,0,1,1.106.393,1.485,1.485,0,0,1,.356,1.051v3.19Zm2.631,0V489.79h-.75v-1.042h.75v-.238a1.556,1.556,0,0,1,.42-1.152,1.5,1.5,0,0,1,1.106-.42,1.521,1.521,0,0,1,1.179.42l-.448.7a.668.668,0,0,0-.494-.192.558.558,0,0,0-.411.165.647.647,0,0,0-.155.475v.238h.923v1.042h-.923v3.482Zm4.9.11a2.285,2.285,0,0,1-2.386-2.377,2.391,2.391,0,1,1,4.1,1.709A2.326,2.326,0,0,1,492.245,493.382Zm0-1.051a1.053,1.053,0,0,0,.832-.366,1.4,1.4,0,0,0,.329-.96,1.362,1.362,0,0,0-.329-.932,1.042,1.042,0,0,0-.832-.375,1.061,1.061,0,0,0-.823.366,1.333,1.333,0,0,0-.329.941,1.393,1.393,0,0,0,.329.969A1.073,1.073,0,0,0,492.245,492.331Zm3.279.941v-4.524h1.188v.622a2,2,0,0,1,.622-.512,1.648,1.648,0,0,1,.814-.219V489.8l-.329-.027a1.494,1.494,0,0,0-.64.155,1.113,1.113,0,0,0-.466.357v2.989Zm8.973,0V490.42q0-.722-.676-.722a.96.96,0,0,0-.567.174,1.437,1.437,0,0,0-.366.347v3.053h-1.2V490.42q0-.722-.676-.722a.946.946,0,0,0-.558.174,1.511,1.511,0,0,0-.375.356v3.044h-1.188v-4.524h1.188v.594a1.414,1.414,0,0,1,.585-.475,1.9,1.9,0,0,1,.887-.229,1.184,1.184,0,0,1,1.261.823,1.666,1.666,0,0,1,.64-.585,1.86,1.86,0,0,1,.914-.238,1.192,1.192,0,0,1,1.325,1.371v3.263Zm5.077,0v-.466a1.775,1.775,0,0,1-1.426.576,1.607,1.607,0,0,1-1.115-.411,1.41,1.41,0,0,1-.457-1.088,1.355,1.355,0,0,1,.43-1.051,1.625,1.625,0,0,1,1.143-.4,1.752,1.752,0,0,1,1.426.548v-.6a.644.644,0,0,0-.274-.548,1.116,1.116,0,0,0-.713-.21,1.868,1.868,0,0,0-1.316.53l-.457-.8a2.935,2.935,0,0,1,1.974-.713,2.168,2.168,0,0,1,1.472.448,1.581,1.581,0,0,1,.512,1.271v2.916Zm-.951-.695a1.107,1.107,0,0,0,.951-.393v-.558a1.107,1.107,0,0,0-.951-.393.985.985,0,0,0-.6.183.577.577,0,0,0-.247.5.559.559,0,0,0,.247.484A1.022,1.022,0,0,0,508.624,492.578Zm4.836.8q-1.28,0-1.28-1.234V489.79h-.75v-1.042h.75v-1.234h1.2v1.234h.923v1.042h-.923v2.038a.592.592,0,0,0,.11.366.365.365,0,0,0,.3.137.54.54,0,0,0,.411-.137l.256.9A1.452,1.452,0,0,1,513.459,493.382Zm2.24-5.119a.7.7,0,0,1-.713-.713.656.656,0,0,1,.21-.494.7.7,0,0,1,.5-.2.682.682,0,0,1,.5.2.656.656,0,0,1,.21.494.7.7,0,0,1-.21.512A.682.682,0,0,1,515.7,488.263Zm-.585,5.009v-4.524H516.3v4.524Zm4.461.11a2.285,2.285,0,0,1-2.386-2.377,2.391,2.391,0,1,1,4.1,1.709A2.326,2.326,0,0,1,519.576,493.382Zm0-1.051a1.053,1.053,0,0,0,.832-.366,1.4,1.4,0,0,0,.329-.96,1.362,1.362,0,0,0-.329-.932,1.042,1.042,0,0,0-.832-.375,1.061,1.061,0,0,0-.823.366,1.333,1.333,0,0,0-.329.941,1.393,1.393,0,0,0,.329.969A1.073,1.073,0,0,0,519.576,492.331Zm6.323.941v-2.733a.739.739,0,0,0-.832-.841,1.2,1.2,0,0,0-1.024.53v3.044h-1.188v-4.524h1.188v.594a1.975,1.975,0,0,1,.612-.484,2,2,0,0,1,.969-.219,1.422,1.422,0,0,1,1.106.393,1.484,1.484,0,0,1,.357,1.051v3.19Zm3.445-1.91a1.172,1.172,0,0,1-.311-.823,1.345,1.345,0,0,1,.686-1.124,3.159,3.159,0,0,0,.53-.43.493.493,0,0,0,.155-.338.476.476,0,0,0-.174-.366.772.772,0,0,0-.558-.164,1.445,1.445,0,0,0-1.152.576l-.759-.85a2.45,2.45,0,0,1,.9-.667,2.8,2.8,0,0,1,1.143-.238,2.227,2.227,0,0,1,1.417.411,1.276,1.276,0,0,1,.53,1.069,1.617,1.617,0,0,1-.777,1.334,4.063,4.063,0,0,0-.631.53.563.563,0,0,0-.155.384.487.487,0,0,0,.174.393Zm.448,2.011a.765.765,0,0,1-.759-.759.781.781,0,0,1,.759-.759.708.708,0,0,1,.53.229.727.727,0,0,1,.229.53.737.737,0,0,1-.229.539A.722.722,0,0,1,529.792,493.373Z" transform="translate(-174.521 -136.951)"/>
        </g>
      </g>
    </g>
  </g>
</svg>
