<svg xmlns="http://www.w3.org/2000/svg" viewBox="0 0 400 400"><defs><style>.cls-1{isolation:isolate;}.cls-2{fill:#f1c40f;}.cls-3{opacity:0.6;mix-blend-mode:soft-light;}.cls-4{fill:#f6f6f6;}</style></defs><title>Artboard 3</title><g class="cls-1"><g id="Layer_3" data-name="Layer 3"><rect class="cls-2" width="400" height="400"/><g class="cls-3"><path d="M174.19,136.21c7.5,0,15-.07,22.51,0,2.68,0,3.71-.94,3.62-3.62-.14-4-.11-8,0-12.07.06-2.31-.69-3.47-3.18-3.26-1.73.15-3.48,0-5.22,0-6.05-.08-9.68-3.35-9.8-9.4q-.28-13.86,0-27.73c.12-6.31,3.35-9.3,9.64-9.34q13.7-.09,27.41,0c6.26,0,9.64,3,9.8,9.22q.35,13.86,0,27.73c-.18,6.51-3.7,9.5-10.32,9.54-7.83,0-7.83,0-7.83,8,0,2.39.14,4.79,0,7.18-.2,2.9,1.07,3.75,3.83,3.73,14.25-.09,28.5.29,42.73-.18,7.05-.23,13.72,4.92,13,13.15-.4,4.42,0,8.91-.08,13.37,0,2.18.76,3.22,3.06,3.06a57.19,57.19,0,0,1,5.87,0c5.52.18,8.62,3.35,8.63,8.78q0,14.84,0,29.69c0,5-2.78,7.85-7.84,7.87q-15,.05-30,0c-4.71,0-7.9-2.94-7.95-7.61q-.16-15.33,0-30.67c0-4.73,3.34-7.73,8.51-8,2.17-.13,4.35-.09,6.52,0,1.75.05,2.64-.6,2.63-2.44,0-4.57,0-9.14,0-13.7,0-2.48-1.48-2.77-3.43-2.76-6.63,0-13.27,0-19.9,0-7.18,0-14.36.09-21.53,0-2.87-.06-4.21.75-4,3.87.21,4.12.09,8.26.05,12.39,0,1.92.77,2.78,2.74,2.68,1.74-.09,3.48,0,5.22,0,6.51.08,10,3.18,10.19,9.71q.35,13.69,0,27.4c-.15,6.44-3.3,9.24-9.62,9.25H191.62c-6,0-9.28-2.66-9.46-8.7q-.42-14.34,0-28.7c.16-5.69,3.87-8.84,9.57-8.95,2,0,3.92-.09,5.87,0s2.7-.85,2.68-2.73c0-4.46,0-8.92,0-13.38,0-1.9-.81-2.78-2.74-2.78-14.46,0-28.93,0-43.39.12a3.58,3.58,0,0,0-2.57,2.37c-.26,4.66-.1,9.35-.13,14,0,1.88,1,2.43,2.68,2.38,2.17-.06,4.36-.11,6.52,0,5.31.33,8.44,3.52,8.48,8.78q.11,14.68,0,29.36c0,5.28-3.1,8.16-8.41,8.17q-14.52,0-29,0c-5.48,0-8.83-3-8.95-8.54q-.29-14.35,0-28.71c.12-5.8,3.82-9,9.75-9.11,8.37-.14,8.37-.14,8.37-8.49,0-3.37,0-6.74,0-10.11a10.81,10.81,0,0,1,10.8-10.79c7.5-.08,15,0,22.51,0Z"/></g><path class="cls-4" d="M169.19,131.21c7.5,0,15-.07,22.51,0,2.68,0,3.71-.94,3.62-3.62-.14-4-.11-8,0-12.07.06-2.31-.69-3.47-3.18-3.26-1.73.15-3.48,0-5.22,0-6.05-.08-9.68-3.35-9.8-9.4q-.28-13.86,0-27.73c.12-6.31,3.35-9.3,9.64-9.34q13.7-.09,27.41,0c6.26,0,9.64,3,9.8,9.22q.35,13.86,0,27.73c-.18,6.51-3.7,9.5-10.32,9.54-7.83,0-7.83,0-7.83,8,0,2.39.14,4.79,0,7.18-.2,2.9,1.07,3.75,3.83,3.73,14.25-.09,28.5.29,42.73-.18,7.05-.23,13.72,4.92,13,13.15-.4,4.42,0,8.91-.08,13.37,0,2.18.76,3.22,3.06,3.06a57.19,57.19,0,0,1,5.87,0c5.52.18,8.62,3.35,8.63,8.78q0,14.84,0,29.69c0,5-2.78,7.85-7.84,7.87q-15,.05-30,0c-4.71,0-7.9-2.94-7.95-7.61q-.16-15.33,0-30.67c0-4.73,3.34-7.73,8.51-8,2.17-.13,4.35-.09,6.52,0,1.75.05,2.64-.6,2.63-2.44,0-4.57,0-9.14,0-13.7,0-2.48-1.48-2.77-3.43-2.76-6.63,0-13.27,0-19.9,0-7.18,0-14.36.09-21.53,0-2.87-.06-4.21.75-4,3.87.21,4.12.09,8.26.05,12.39,0,1.92.77,2.78,2.74,2.68,1.74-.09,3.48,0,5.22,0,6.51.08,10,3.18,10.19,9.71q.35,13.69,0,27.4c-.15,6.44-3.3,9.24-9.62,9.25H186.62c-6,0-9.28-2.66-9.46-8.7q-.42-14.34,0-28.7c.16-5.69,3.87-8.84,9.57-8.95,2,0,3.92-.09,5.87,0s2.7-.85,2.68-2.73c0-4.46,0-8.92,0-13.38,0-1.9-.81-2.78-2.74-2.78-14.46,0-28.93,0-43.39.12a3.58,3.58,0,0,0-2.57,2.37c-.26,4.66-.1,9.35-.13,14,0,1.88,1,2.43,2.68,2.38,2.17-.06,4.36-.11,6.52,0,5.31.33,8.44,3.52,8.48,8.78q.11,14.68,0,29.36c0,5.28-3.1,8.16-8.41,8.17q-14.52,0-29,0c-5.48,0-8.83-3-8.95-8.54q-.29-14.35,0-28.71c.12-5.8,3.82-9,9.75-9.11,8.37-.14,8.37-.14,8.37-8.49,0-3.37,0-6.74,0-10.11a10.81,10.81,0,0,1,10.8-10.79c7.5-.08,15,0,22.51,0Z"/></g></g></svg>