<svg xmlns="http://www.w3.org/2000/svg" viewBox="0 0 400 400"><defs><style>.cls-1{isolation:isolate;}.cls-2{fill:#f1c40f;}.cls-3{opacity:0.6;mix-blend-mode:soft-light;}.cls-4{fill:#f6f6f6;}</style></defs><title>Artboard 3</title><g class="cls-1"><g id="Layer_3" data-name="Layer 3"><rect class="cls-2" width="400" height="400"/><g class="cls-3"><path d="M170.82,143.6c8.27,0,16.54-.08,24.81,0,3,0,4.09-1,4-4-.16-4.43-.12-8.87,0-13.3.06-2.55-.76-3.82-3.5-3.59-1.9.16-3.83,0-5.75,0-6.67-.09-10.67-3.69-10.8-10.37q-.3-15.28,0-30.57c.14-7,3.69-10.25,10.63-10.3q15.1-.1,30.21,0c6.9,0,10.63,3.32,10.8,10.17q.39,15.27,0,30.56c-.19,7.17-4.08,10.47-11.37,10.51-8.63,0-8.63,0-8.63,8.84,0,2.64.15,5.28,0,7.91-.23,3.2,1.18,4.13,4.23,4.11,15.7-.1,31.42.32,47.11-.2,7.77-.26,15.12,5.42,14.29,14.49-.44,4.87,0,9.82-.09,14.74,0,2.4.83,3.55,3.38,3.37a63,63,0,0,1,6.47,0c6.08.2,9.5,3.69,9.51,9.67q0,16.36,0,32.73c0,5.56-3.07,8.65-8.64,8.67q-16.54.06-33.08,0c-5.19,0-8.7-3.25-8.76-8.39q-.18-16.9,0-33.8c.05-5.21,3.68-8.52,9.38-8.85,2.39-.14,4.8-.1,7.19,0,1.93.06,2.91-.67,2.9-2.69,0-5,0-10.07,0-15.1,0-2.74-1.63-3.06-3.78-3-7.31,0-14.62,0-21.94,0-7.91,0-15.83.1-23.73,0-3.17-.06-4.64.83-4.46,4.26.23,4.54.1,9.11.06,13.66,0,2.12.85,3.07,3,3,1.91-.1,3.84,0,5.75,0,7.18.09,11.05,3.51,11.24,10.7q.38,15.09,0,30.21c-.16,7.1-3.64,10.19-10.6,10.19H190c-6.66,0-10.23-2.94-10.42-9.59q-.46-15.81,0-31.64c.17-6.28,4.26-9.74,10.54-9.86,2.16,0,4.32-.1,6.47,0s3-.94,3-3c0-4.91,0-9.83,0-14.74,0-2.09-.89-3.07-3-3.07-15.94,0-31.89,0-47.83.13a4,4,0,0,0-2.84,2.61c-.28,5.14-.11,10.3-.14,15.46,0,2.07,1.08,2.68,3,2.63,2.4-.07,4.8-.12,7.19,0,5.86.37,9.31,3.88,9.35,9.67q.12,16.18,0,32.37c-.05,5.82-3.42,9-9.27,9q-16,0-32,0c-6,0-9.74-3.27-9.86-9.41q-.32-15.82,0-31.64c.13-6.39,4.21-9.94,10.74-10,9.23-.15,9.23-.15,9.23-9.35,0-3.72,0-7.43,0-11.15A11.92,11.92,0,0,1,146,143.64c8.27-.09,16.54,0,24.81,0Z"/></g><path class="cls-4" d="M165.82,138.6c8.27,0,16.54-.08,24.81,0,3,0,4.09-1,4-4-.16-4.43-.12-8.87,0-13.3.06-2.55-.76-3.82-3.5-3.59-1.9.16-3.83,0-5.75,0-6.67-.09-10.67-3.69-10.8-10.37q-.3-15.28,0-30.57c.14-7,3.69-10.25,10.63-10.3q15.1-.1,30.21,0c6.9,0,10.63,3.32,10.8,10.17q.39,15.27,0,30.56c-.19,7.17-4.08,10.47-11.37,10.51-8.63,0-8.63,0-8.63,8.84,0,2.64.15,5.28,0,7.91-.23,3.2,1.18,4.13,4.23,4.11,15.7-.1,31.42.32,47.11-.2,7.77-.26,15.12,5.42,14.29,14.49-.44,4.87,0,9.82-.09,14.74,0,2.4.83,3.55,3.38,3.37a63,63,0,0,1,6.47,0c6.08.2,9.5,3.69,9.51,9.67q0,16.36,0,32.73c0,5.56-3.07,8.65-8.64,8.67q-16.54.06-33.08,0c-5.19,0-8.7-3.25-8.76-8.39q-.18-16.9,0-33.8c.05-5.21,3.68-8.52,9.38-8.85,2.39-.14,4.8-.1,7.19,0,1.93.06,2.91-.67,2.9-2.69,0-5,0-10.07,0-15.1,0-2.74-1.63-3.06-3.78-3-7.31,0-14.62,0-21.94,0-7.91,0-15.83.1-23.73,0-3.17-.06-4.64.83-4.46,4.26.23,4.54.1,9.11.06,13.66,0,2.12.85,3.07,3,3,1.91-.1,3.84,0,5.75,0,7.18.09,11.05,3.51,11.24,10.7q.38,15.09,0,30.21c-.16,7.1-3.64,10.19-10.6,10.19H185c-6.66,0-10.23-2.94-10.42-9.59q-.46-15.81,0-31.64c.17-6.28,4.26-9.74,10.54-9.86,2.16,0,4.32-.1,6.47,0s3-.94,3-3c0-4.91,0-9.83,0-14.74,0-2.09-.89-3.07-3-3.07-15.94,0-31.89,0-47.83.13a4,4,0,0,0-2.84,2.61c-.28,5.14-.11,10.3-.14,15.46,0,2.07,1.08,2.68,3,2.63,2.4-.07,4.8-.12,7.19,0,5.86.37,9.31,3.88,9.35,9.67q.12,16.18,0,32.37c-.05,5.82-3.42,9-9.27,9q-16,0-32,0c-6,0-9.74-3.27-9.86-9.41q-.32-15.82,0-31.64c.13-6.39,4.21-9.94,10.74-10,9.23-.15,9.23-.15,9.23-9.35,0-3.72,0-7.43,0-11.15A11.92,11.92,0,0,1,141,138.64c8.27-.09,16.54,0,24.81,0Z"/></g></g></svg>