<svg xmlns="http://www.w3.org/2000/svg" viewBox="0 0 400 400"><defs><style>.cls-1{isolation:isolate;}.cls-2{fill:#9b59b6;}.cls-3{opacity:0.6;mix-blend-mode:soft-light;}.cls-4{fill:#f6f6f6;}</style></defs><title>Artboard 4</title><g class="cls-1"><g id="Layer_4" data-name="Layer 4"><rect class="cls-2" x="0.39" width="400" height="400"/><g class="cls-3"><path d="M233.34,158.66l-3-4,6.25-4.86c1-.79,2-1.67,3-2.37,1.3-.85,1.31-1.63.36-2.81-5-6.18-9.8-12.45-14.79-18.6-3-3.75-6.24-7.38-9.45-11a2.88,2.88,0,0,0-2.08-.88c-8.28.71-16.59,1.21-24.8,2.4-9.13,1.32-18.17,3.31-27.25,5a2.21,2.21,0,0,0-2,2c-1.79,9.36-3.58,18.72-5.45,28.06a2.37,2.37,0,0,0,1.09,2.52q8.19,6.94,16.42,13.84c.31.26.63.5,1.17.93l-2.93,4.27-17-13.94c-.33,1.6-.67,3.08-.94,4.57-.59,3.26-1.13,6.53-1.71,9.79a2.27,2.27,0,0,0,1.13,2.75,10.88,10.88,0,0,1-5.32,20.12,10.5,10.5,0,0,1-10.09-6,10.27,10.27,0,0,1,1.29-11.74,3.23,3.23,0,0,0,.63-4,148.29,148.29,0,0,1-8.42-30.19c-.2-1.14-.53-1.77-1.92-2a14.44,14.44,0,0,1-.86-28.48,15,15,0,0,1,5.21,0,2,2,0,0,0,2.45-1.24,195.91,195.91,0,0,1,15.47-25.12c3.42-4.57,7.06-9,10.7-13.36a2.75,2.75,0,0,0,.6-3.22,10.85,10.85,0,0,1,10.53-14.87A10.29,10.29,0,0,1,181,62.47a2.94,2.94,0,0,0,3,1.9c8.71.38,17.42.79,26.12,1.43,4.45.33,8.89,1,13.29,1.81a2.05,2.05,0,0,0,2.66-1.37,13.79,13.79,0,0,1,13-8.16A14.31,14.31,0,0,1,252.31,78a3,3,0,0,0,.74,3.92,135.19,135.19,0,0,1,17.29,21.46,2.09,2.09,0,0,0,2.56,1.08,10.86,10.86,0,0,1,6.48,20.67,2,2,0,0,0-1.49,2.36c.66,8.86-.15,17.67-1.16,26.46a113.79,113.79,0,0,1-2.08,11.65,3,3,0,0,0,1.43,3.72,14.34,14.34,0,0,1,2.73,21.07,14.44,14.44,0,0,1-25.45-10.06,13.44,13.44,0,0,1,3.57-8.71,1.79,1.79,0,0,0,.18-2.7q-6-8.51-11.83-17.09c-.79-1.15-1.4-1.39-2.6-.4C239.72,153.86,236.62,156.13,233.34,158.66ZM199,89.49c.57.72.85,1.14,1.2,1.51,5.31,5.64,10.67,11.24,15.93,16.93,1,1.12,2.14,1.09,3.46,1.07,6.4-.11,12.82-.37,19.21-.13,8.42.33,16.83,1,25.23,1.7,1.65.13,2.06-.92,2.47-1.9a2.83,2.83,0,0,0-.18-2.29,144.55,144.55,0,0,0-16.85-21.15,2,2,0,0,0-2.94-.43,14.26,14.26,0,0,1-19.34-4.14,1.89,1.89,0,0,0-2.59-.85c-5.08,1.87-10.2,3.61-15.27,5.51C205.94,86.56,202.64,88,199,89.49Zm22.9,24.59c.39.57.59.92.83,1.22,7,8.75,14.1,17.47,21.1,26.26.93,1.17,1.57,1.25,2.59.23q9.21-9.17,18.48-18.28c1.27-1.24,1.78-2.44.64-4.09a6.71,6.71,0,0,1-.83-2.46,1.73,1.73,0,0,0-1.81-1.51c-4-.33-8.09-.86-12.15-1-8.95-.33-17.9-.48-26.86-.68A12.2,12.2,0,0,0,221.89,114.08Zm51.31,14.38h-.28c0-.29,0-.58,0-.87,0-1,.09-1.87-1.17-2.39s-1.92.25-2.61,1-1.18,1.45-1.84,2.1c-6,5.91-12,11.83-18.11,17.68-.91.88-1.07,1.48-.27,2.45s1.68,2.23,2.47,3.38c3.3,4.79,6.61,9.58,9.87,14.4a2,2,0,0,0,2.59,1,15.14,15.14,0,0,1,4-.5,1.68,1.68,0,0,0,1.9-1.57c1-6.25,2.16-12.48,2.77-18.77C273,140.44,273,134.44,273.2,128.46Zm-62.72-19.15c-.91-1.1-1.48-1.87-2.13-2.56-4.34-4.55-8.72-9.05-13-13.63a2.29,2.29,0,0,0-3.18-.58c-8.69,4.59-17.38,9.16-26.14,13.62-2.21,1.13-3.53,2.6-3.75,5.13a51.58,51.58,0,0,1-1,5.19A308.76,308.76,0,0,1,210.48,109.31ZM187.37,69l0,.3a27.73,27.73,0,0,0-3.84.05,2.75,2.75,0,0,0-1.8,1.13c-.51.88-1,1.86.12,2.92C186,77.19,190,81.13,194.2,85a2.11,2.11,0,0,0,1.8.35q13.73-5.11,27.4-10.38c.49-.19.81-.8,1.21-1.22a9.46,9.46,0,0,0-1.39-1,4.33,4.33,0,0,0-1.36-.28c-3.74-.49-7.48-1.07-11.23-1.43C202.88,70.25,195.13,69.63,187.37,69Zm-21.79,8.27-.39-.19c-.74.71-1.54,1.37-2.21,2.15A184.08,184.08,0,0,0,139,115a6.32,6.32,0,0,0-.26,2.16,6.63,6.63,0,0,0,2.11-.52q8.24-5.42,16.39-11a4.34,4.34,0,0,0,1.62-2.26c1.92-7.25,3.73-14.53,5.57-21.79C164.82,80.11,165.21,78.67,165.59,77.24Zm-.91,23.7,25.28-13.14c-4.06-3.79-7.86-7.39-11.74-10.9a2.19,2.19,0,0,0-1.68-.11A32.73,32.73,0,0,1,172.39,78a2.2,2.2,0,0,0-2.29,1.85c-1.24,4.9-2.57,9.78-3.84,14.68C165.73,96.48,165.27,98.49,164.67,100.93Zm-16.18,54.23a6.27,6.27,0,0,0-.8-1.53c-3.43-3.87-6.88-7.74-10.42-11.52a2.33,2.33,0,0,0-2-.39,1.93,1.93,0,0,0-.78,1.7c1.18,5.56,2.3,11.15,3.8,16.63,1.24,4.53,2.94,8.93,4.53,13.36.2.56,1,.91,1.49,1.36a6.42,6.42,0,0,0,1-1.63c.38-1.58.62-3.19.91-4.79C146.91,164.07,147.67,159.79,148.49,155.16Zm6-31.86c-3.34.93-6.16,1.76-9,2.48A1.84,1.84,0,0,0,143.9,128a13.87,13.87,0,0,1-2.72,9,2,2,0,0,0,0,1.92c2.39,2.85,4.89,5.61,7.38,8.38a6.52,6.52,0,0,0,1.18.77Zm2.37-10.79-.55-.38-12.22,8.23c.68.19.85.3,1,.27,3.25-.86,6.49-1.72,9.73-2.62a1.39,1.39,0,0,0,.88-.72C156.18,115.7,156.52,114.1,156.9,112.5Z"/><path d="M233.83,228.09H174.88c1.22-7,2.43-14,3.64-20.9.84-4.81,1.76-9.61,2.52-14.44a15.3,15.3,0,0,1,7-10.61c9-6.11,23.24-6.2,32.32-.24a16.4,16.4,0,0,1,7.51,11.64C229.74,205,231.81,216.46,233.83,228.09Z"/><path d="M223.08,154.56a18.72,18.72,0,1,1-18.52-18.81A18.67,18.67,0,0,1,223.08,154.56Z"/></g><path class="cls-4" d="M228.34,153.66l-3-4,6.25-4.86c1-.79,2-1.67,3-2.37,1.3-.85,1.31-1.63.36-2.81-5-6.18-9.8-12.45-14.79-18.6-3-3.75-6.24-7.38-9.45-11a2.88,2.88,0,0,0-2.08-.88c-8.28.71-16.59,1.21-24.8,2.4-9.13,1.32-18.17,3.31-27.25,5a2.21,2.21,0,0,0-2,2c-1.79,9.36-3.58,18.72-5.45,28.06a2.37,2.37,0,0,0,1.09,2.52q8.19,6.94,16.42,13.84c.31.26.63.5,1.17.93l-2.93,4.27-17-13.94c-.33,1.6-.67,3.08-.94,4.57-.59,3.26-1.13,6.53-1.71,9.79a2.27,2.27,0,0,0,1.13,2.75,10.88,10.88,0,0,1-5.32,20.12,10.5,10.5,0,0,1-10.09-6,10.27,10.27,0,0,1,1.29-11.74,3.23,3.23,0,0,0,.63-4,148.29,148.29,0,0,1-8.42-30.19c-.2-1.14-.53-1.77-1.92-2a14.44,14.44,0,0,1-.86-28.48,15,15,0,0,1,5.21,0,2,2,0,0,0,2.45-1.24,195.91,195.91,0,0,1,15.47-25.12c3.42-4.57,7.06-9,10.7-13.36a2.75,2.75,0,0,0,.6-3.22,10.85,10.85,0,0,1,10.53-14.87A10.29,10.29,0,0,1,176,57.47a2.94,2.94,0,0,0,3,1.9c8.71.38,17.42.79,26.12,1.43,4.45.33,8.89,1,13.29,1.81a2.05,2.05,0,0,0,2.66-1.37,13.79,13.79,0,0,1,13-8.16A14.31,14.31,0,0,1,247.31,73a3,3,0,0,0,.74,3.92,135.19,135.19,0,0,1,17.29,21.46,2.09,2.09,0,0,0,2.56,1.08,10.86,10.86,0,0,1,6.48,20.67,2,2,0,0,0-1.49,2.36c.66,8.86-.15,17.67-1.16,26.46a113.79,113.79,0,0,1-2.08,11.65,3,3,0,0,0,1.43,3.72,14.34,14.34,0,0,1,2.73,21.07,14.44,14.44,0,0,1-25.45-10.06,13.44,13.44,0,0,1,3.57-8.71,1.79,1.79,0,0,0,.18-2.7q-6-8.51-11.83-17.09c-.79-1.15-1.4-1.39-2.6-.4C234.72,148.86,231.62,151.13,228.34,153.66ZM194,84.49c.57.72.85,1.14,1.2,1.51,5.31,5.64,10.67,11.24,15.93,16.93,1,1.12,2.14,1.09,3.46,1.07,6.4-.11,12.82-.37,19.21-.13,8.42.33,16.83,1,25.23,1.7,1.65.13,2.06-.92,2.47-1.9a2.83,2.83,0,0,0-.18-2.29,144.55,144.55,0,0,0-16.85-21.15,2,2,0,0,0-2.94-.43,14.26,14.26,0,0,1-19.34-4.14,1.89,1.89,0,0,0-2.59-.85c-5.08,1.87-10.2,3.61-15.27,5.51C200.94,81.56,197.64,83,194,84.49Zm22.9,24.59c.39.57.59.92.83,1.22,7,8.75,14.1,17.47,21.1,26.26.93,1.17,1.57,1.25,2.59.23q9.21-9.17,18.48-18.28c1.27-1.24,1.78-2.44.64-4.09a6.71,6.71,0,0,1-.83-2.46,1.73,1.73,0,0,0-1.81-1.51c-4-.33-8.09-.86-12.15-1-8.95-.33-17.9-.48-26.86-.68A12.2,12.2,0,0,0,216.89,109.08Zm51.31,14.38h-.28c0-.29,0-.58,0-.87,0-1,.09-1.87-1.17-2.39s-1.92.25-2.61,1-1.18,1.45-1.84,2.1c-6,5.91-12,11.83-18.11,17.68-.91.88-1.07,1.48-.27,2.45s1.68,2.23,2.47,3.38c3.3,4.79,6.61,9.58,9.87,14.4a2,2,0,0,0,2.59,1,15.14,15.14,0,0,1,4-.5,1.68,1.68,0,0,0,1.9-1.57c1-6.25,2.16-12.48,2.77-18.77C268,135.44,268,129.44,268.2,123.46Zm-62.72-19.15c-.91-1.1-1.48-1.87-2.13-2.56-4.34-4.55-8.72-9.05-13-13.63a2.29,2.29,0,0,0-3.18-.58c-8.69,4.59-17.38,9.16-26.14,13.62-2.21,1.13-3.53,2.6-3.75,5.13a51.58,51.58,0,0,1-1,5.19A308.76,308.76,0,0,1,205.48,104.31ZM182.37,64l0,.3a27.73,27.73,0,0,0-3.84.05,2.75,2.75,0,0,0-1.8,1.13c-.51.88-1,1.86.12,2.92C181,72.19,185,76.13,189.2,80a2.11,2.11,0,0,0,1.8.35q13.73-5.11,27.4-10.38c.49-.19.81-.8,1.21-1.22a9.46,9.46,0,0,0-1.39-1,4.33,4.33,0,0,0-1.36-.28c-3.74-.49-7.48-1.07-11.23-1.43C197.88,65.25,190.13,64.63,182.37,64Zm-21.79,8.27-.39-.19c-.74.71-1.54,1.37-2.21,2.15A184.08,184.08,0,0,0,134,110a6.32,6.32,0,0,0-.26,2.16,6.63,6.63,0,0,0,2.11-.52q8.24-5.42,16.39-11a4.34,4.34,0,0,0,1.62-2.26c1.92-7.25,3.73-14.53,5.57-21.79C159.82,75.11,160.21,73.67,160.59,72.24Zm-.91,23.7,25.28-13.14c-4.06-3.79-7.86-7.39-11.74-10.9a2.19,2.19,0,0,0-1.68-.11A32.73,32.73,0,0,1,167.39,73a2.2,2.2,0,0,0-2.29,1.85c-1.24,4.9-2.57,9.78-3.84,14.68C160.73,91.48,160.27,93.49,159.67,95.93Zm-16.18,54.23a6.27,6.27,0,0,0-.8-1.53c-3.43-3.87-6.88-7.74-10.42-11.52a2.33,2.33,0,0,0-2-.39,1.93,1.93,0,0,0-.78,1.7c1.18,5.56,2.3,11.15,3.8,16.63,1.24,4.53,2.94,8.93,4.53,13.36.2.56,1,.91,1.49,1.36a6.42,6.42,0,0,0,1-1.63c.38-1.58.62-3.19.91-4.79C141.91,159.07,142.67,154.79,143.49,150.16Zm6-31.86c-3.34.93-6.16,1.76-9,2.48A1.84,1.84,0,0,0,138.9,123a13.87,13.87,0,0,1-2.72,9,2,2,0,0,0,0,1.92c2.39,2.85,4.89,5.61,7.38,8.38a6.52,6.52,0,0,0,1.18.77Zm2.37-10.79-.55-.38-12.22,8.23c.68.19.85.3,1,.27,3.25-.86,6.49-1.72,9.73-2.62a1.39,1.39,0,0,0,.88-.72C151.18,110.7,151.52,109.1,151.9,107.5Z"/><path class="cls-4" d="M228.83,223.09H169.88c1.22-7,2.43-14,3.64-20.9.84-4.81,1.76-9.61,2.52-14.44a15.3,15.3,0,0,1,7-10.61c9-6.11,23.24-6.2,32.32-.24a16.4,16.4,0,0,1,7.51,11.64C224.74,200,226.81,211.46,228.83,223.09Z"/><path class="cls-4" d="M218.08,149.56a18.72,18.72,0,1,1-18.52-18.81A18.67,18.67,0,0,1,218.08,149.56Z"/></g></g></svg>