<svg xmlns="http://www.w3.org/2000/svg" viewBox="0 0 400 400">
    <defs>
        <style>
            .cls-1{isolation:isolate;}
            .cls-2{fill:#f2849e;}
            .cls-3{opacity:0.6;mix-blend-mode:soft-light;}
            .cls-4{fill:#f6f6f6;}
        </style>
    </defs>
    <title>Artboard 1</title>
    <g class="cls-1">
        <g id="Layer_1" data-name="Layer 1">
            <rect class="cls-2" width="400" height="400"/>
            <g class="cls-3">
                <path d="M133.4,243.1c-.6-3.5-1.1-6.7-1.7-10-.8-4.7-1.5-9.4-2.3-14.1a2,2,0,0,0-2.1-1.9,15,15,0,0,1-14.4-15.2q-.15-26.25,0-52.5a15.17,15.17,0,0,1,13.8-15.3,43.21,43.21,0,0,1,5-.3h82c7,0,12.6,2.7,15.4,9.5a19.66,19.66,0,0,1,1.4,6.8c.1,16.9.1,33.9.1,50.8,0,8-4.7,14.1-12,15.8a15.83,15.83,0,0,1-3.8.3H161.2a5.06,5.06,0,0,0-4.1,1.8c-7.5,7.8-15.1,15.6-22.7,23.3C134.1,242.6,133.8,242.7,133.4,243.1Z"/>
                <path d="M276.6,195.9c-2.2-2.1-4.1-3.9-5.9-5.8-6-6.1-12.1-12.3-18.1-18.5a3.77,3.77,0,0,0-3.3-1.4c-2,.1-4-.1-6,.1-1.8.1-2.4-.4-2.4-2.3.1-8.3.1-16.5,0-24.8,0-9.3-7.7-18.2-16.9-19.6a38.84,38.84,0,0,0-4.8-.4c-12.5,0-25-.1-37.4,0-1.8,0-2.4-.4-2.4-2.3.1-5.7,0-11.5.1-17.2.1-6.8,2.6-12.4,9.2-15.3a16.16,16.16,0,0,1,6.5-1.4c28.8-.1,57.5-.1,86.3-.1a15.35,15.35,0,0,1,15.6,15.5c.1,17.5.1,35.1,0,52.6a15.1,15.1,0,0,1-14.5,15.1c-1.5.1-1.8.9-2,2-.9,5.3-1.8,10.7-2.6,16C277.5,190.6,277.1,193.1,276.6,195.9Z"/>
            </g>
            <path class="cls-4" d="M128.4,238.1c-.6-3.5-1.1-6.7-1.7-10-.8-4.7-1.5-9.4-2.3-14.1a2,2,0,0,0-2.1-1.9,15,15,0,0,1-14.4-15.2q-.15-26.25,0-52.5a15.17,15.17,0,0,1,13.8-15.3,43.21,43.21,0,0,1,5-.3h82c7,0,12.6,2.7,15.4,9.5a19.66,19.66,0,0,1,1.4,6.8c.1,16.9.1,33.9.1,50.8,0,8-4.7,14.1-12,15.8a15.83,15.83,0,0,1-3.8.3H156.2a5.06,5.06,0,0,0-4.1,1.8c-7.5,7.8-15.1,15.6-22.7,23.3C129.1,237.6,128.8,237.7,128.4,238.1Z"/>
            <path class="cls-4" d="M271.6,190.9c-2.2-2.1-4.1-3.9-5.9-5.8-6-6.1-12.1-12.3-18.1-18.5a3.77,3.77,0,0,0-3.3-1.4c-2,.1-4-.1-6,.1-1.8.1-2.4-.4-2.4-2.3.1-8.3.1-16.5,0-24.8,0-9.3-7.7-18.2-16.9-19.6a38.84,38.84,0,0,0-4.8-.4c-12.5,0-25-.1-37.4,0-1.8,0-2.4-.4-2.4-2.3.1-5.7,0-11.5.1-17.2.1-6.8,2.6-12.4,9.2-15.3a16.16,16.16,0,0,1,6.5-1.4c28.8-.1,57.5-.1,86.3-.1a15.35,15.35,0,0,1,15.6,15.5c.1,17.5.1,35.1,0,52.6a15.1,15.1,0,0,1-14.5,15.1c-1.5.1-1.8.9-2,2-.9,5.3-1.8,10.7-2.6,16C272.5,185.6,272.1,188.1,271.6,190.9Z"/>
            <path class="cls-2" d="M175.3,160.3c-1.8-3.7-.9-7,1.7-9.8a81.63,81.63,0,0,1,7.4-7c1.6-1.4,2.6-1.3,4.2-.2-2.3,2.4-4.5,4.8-6.8,7.1l-.9.9c-.6.6-1,1.3-.2,1.8.4.3,1.2.1,1.7-.2.8-.5,1.5-1.3,2.3-1.9,2.1-1.8,4.3-3.7,6.5-5.5.5.5.9,1,1.4,1.6-2.1,2.4-4.2,5-6.4,7.5a5,5,0,0,1-.7.8c-.5.7-1.4,1.3-.5,2.2s1.5,0,2.1-.6c2.6-2.5,5.2-4.9,7.8-7.4,1.1,1.2,1.4,2.4.6,3.7a14.2,14.2,0,0,1-2,2.8c-2.5,2.4-5,4.9-7.8,7.1a6,6,0,0,1-5.8.7c-1-.4-1.5,0-2.2.7-8.9,9.4-17.8,18.7-26.6,28.1-1.8,1.9-2.7,1.9-4.6,0a6.1,6.1,0,0,1-1.2-1.6,2,2,0,0,1,.5-2.8c7.7-7.2,15.3-14.5,23-21.8C170.9,164.4,173,162.4,175.3,160.3Z"/>
            <path class="cls-2" d="M164.2,167.6c-1.3,1.2-2.5,2.4-3.8,3.6-2.1-2.2-4.2-4.4-6.2-6.6a1.78,1.78,0,0,0-2.2-.6,8.16,8.16,0,0,1-8.4-1.9,17.52,17.52,0,0,1-6-10.8c-.7-4.5,2.1-7.5,6.5-6.9a16.57,16.57,0,0,1,11.8,7.1,8.16,8.16,0,0,1,1,8,1.5,1.5,0,0,0,.5,1.5C159.6,163.3,161.9,165.4,164.2,167.6Z"/>
            <path class="cls-2" d="M167.5,178.7c1.4-1.4,2.6-2.8,4-4.2,5,4.7,10,9.4,14.9,14.2a2.32,2.32,0,0,1,.4,1.8,5.14,5.14,0,0,1-3.6,3.4,1.84,1.84,0,0,1-1.6-.5C176.8,188.6,172.2,183.7,167.5,178.7Z"/>
        </g>
    </g>
</svg>